<svg width="467" height="202" viewBox="0 0 467 202" fill="none" xmlns="http://www.w3.org/2000/svg">
<path d="M106.021 10.3866C155.066 -0.869184 186.904 -4.59492 235.027 10.3964C264.884 19.6975 285.82 45.7107 304.704 68.8026C314.166 80.3728 323.106 91.2057 332.412 98.9306C341.711 106.649 351.316 111.214 362.108 110.346C378.083 109.06 385.872 105.709 392.091 102.304C398.333 98.8856 403.128 95.3227 412.978 93.7499C424.194 91.9589 437.24 91.8892 447.479 92.6815C452.599 93.0777 457.035 93.6912 460.199 94.4179C461.777 94.7802 463.064 95.1768 463.967 95.5995C464.416 95.81 464.798 96.0391 465.074 96.2938C465.347 96.5454 465.573 96.8768 465.573 97.2821C465.573 97.5555 465.418 97.749 465.279 97.8632C465.143 97.9748 464.974 98.0544 464.808 98.1161C464.47 98.2412 464.002 98.3412 463.444 98.4267C462.321 98.5989 460.706 98.732 458.729 98.8632C454.758 99.1265 449.277 99.3837 443.129 99.9208C430.82 100.996 415.971 103.184 405.544 108.704C398.561 112.401 394.989 115.159 391.699 118.218C388.413 121.273 385.327 124.718 379.44 129.672C372.952 135.133 368.693 137.161 365.853 138.984C364.436 139.894 363.383 140.743 362.534 141.936C361.683 143.134 361.011 144.712 360.421 147.115C359.809 149.605 360.226 152.306 361.473 155.155C362.72 158.006 364.786 160.978 367.424 163.982C372.7 169.991 380.204 176.063 387.802 181.492C395.395 186.918 403.061 191.686 408.649 195.094C411.439 196.795 413.721 198.163 415.208 199.099C415.948 199.564 416.511 199.935 416.845 200.192C416.929 200.257 417.005 200.32 417.069 200.38C417.126 200.433 417.202 200.509 417.257 200.6C417.284 200.644 417.329 200.73 417.342 200.843C417.357 200.976 417.322 201.14 417.199 201.269C417.094 201.38 416.972 201.416 416.907 201.43C416.837 201.444 416.773 201.445 416.728 201.443C407.387 201.07 398.08 197.289 389.053 191.836C380.023 186.382 371.235 179.231 362.931 172.075C354.613 164.907 346.798 157.749 339.664 152.225C332.514 146.689 326.158 142.888 320.78 142.329C302.506 140.431 281.834 144.763 262.317 150.138C252.56 152.824 243.121 155.763 234.411 158.308C225.714 160.851 217.746 163 210.979 164.09C197.801 166.212 179.12 166.304 162.757 163.832C154.575 162.596 146.948 160.715 140.87 158.114C134.809 155.52 130.201 152.173 128.185 147.949C127.389 146.282 127.266 144.247 127.603 141.961C127.939 139.672 128.744 137.085 129.854 134.281C132.074 128.676 135.559 122.104 139.125 115.165C142.698 108.212 146.361 100.875 148.971 93.6933C151.582 86.5063 153.12 79.5212 152.485 73.2675C151.906 67.5532 150.448 62.6843 147.408 58.9755C144.377 55.2774 139.722 52.67 132.618 51.577C120.178 49.6632 107.041 55.0897 101.791 66.4179C98.3699 73.8002 99.9438 83.5047 102.235 92.1327C103.382 96.4511 104.678 100.398 105.605 103.683C106.065 105.309 106.432 106.765 106.628 107.984C106.821 109.184 106.864 110.234 106.607 111.003C106.509 111.298 106.403 111.552 106.284 111.753C106.171 111.944 106.012 112.146 105.779 112.254C105.506 112.38 105.231 112.333 105.014 112.202C104.821 112.087 104.667 111.905 104.541 111.723C104.285 111.352 104.027 110.796 103.757 110.122C103.482 109.439 103.179 108.595 102.841 107.631C101.483 103.763 99.5062 97.8277 96.25 91.6542C89.7421 79.316 78.1776 66.1141 56.3457 66.7079C35.2743 67.2813 21.5559 75.6129 13.1035 83.785C8.87397 87.8744 5.95922 91.9278 4.10352 94.9559C3.17597 96.4696 2.5137 97.7265 2.08398 98.6024C1.86915 99.0404 1.71172 99.3833 1.60938 99.6151C1.55826 99.7309 1.52062 99.8193 1.49609 99.8778C1.48388 99.907 1.47552 99.9291 1.46973 99.9433C1.46684 99.9503 1.4642 99.9556 1.46289 99.9589C1.46238 99.9602 1.46216 99.9612 1.46191 99.9618L0.5 99.7255L0.99707 99.7772C0.547347 99.7302 0.50406 99.7252 0.5 99.7245V99.7196C0.500359 99.7163 0.501272 99.7112 0.501953 99.705C0.50334 99.6923 0.50505 99.6736 0.507812 99.6493C0.513375 99.6005 0.522528 99.5286 0.53418 99.4345C0.55755 99.2458 0.593486 98.9674 0.645508 98.6083C0.749562 97.8901 0.91664 96.8459 1.16895 95.538C1.67354 92.9223 2.52021 89.2482 3.8877 85.0067C6.62135 76.5278 11.4458 65.7566 19.8115 56.6474C27.3529 48.4358 60.9003 20.7421 106.021 10.3866ZM216.098 93.744C205.376 93.0689 194.024 92.1404 184.273 93.3309C174.518 94.5221 166.228 97.8499 161.771 105.803C155.74 116.567 153.8 124.301 156.938 133.507C159.81 141.936 169.026 145.559 181.149 146.669C193.318 147.783 208.677 146.393 224.241 144.54C231.987 143.618 245.368 141.954 257.245 138.808C263.182 137.236 268.77 135.287 273.099 132.859C277.411 130.441 280.573 127.492 281.478 123.876C282.29 120.629 280.262 117.244 276.626 114.052C272.958 110.831 267.499 107.663 261.044 104.819C248.129 99.1302 231.101 94.6887 216.098 93.744Z" fill="white"/>
<path d="M106.021 10.3866L105.91 9.89928L105.91 9.89928L106.021 10.3866ZM235.027 10.3964L235.176 9.919L235.176 9.919L235.027 10.3964ZM304.704 68.8026L304.317 69.1191L304.317 69.1191L304.704 68.8026ZM332.412 98.9306L332.093 99.3153L332.093 99.3153L332.412 98.9306ZM362.108 110.346L362.148 110.844L362.148 110.844L362.108 110.346ZM392.091 102.304L392.331 102.742L392.331 102.742L392.091 102.304ZM412.978 93.7499L412.899 93.2561L412.899 93.2561L412.978 93.7499ZM447.479 92.6815L447.518 92.183L447.518 92.183L447.479 92.6815ZM460.199 94.4179L460.311 93.9305L460.311 93.9305L460.199 94.4179ZM463.967 95.5995L464.179 95.1467L464.179 95.1467L463.967 95.5995ZM465.074 96.2938L465.413 95.9264L465.413 95.9263L465.074 96.2938ZM465.573 97.2821L466.073 97.2824V97.2821H465.573ZM465.279 97.8632L465.597 98.2495L465.597 98.2493L465.279 97.8632ZM464.808 98.1161L464.981 98.585L464.981 98.585L464.808 98.1161ZM463.444 98.4267L463.52 98.9209L463.52 98.9209L463.444 98.4267ZM458.729 98.8632L458.762 99.3621L458.762 99.3621L458.729 98.8632ZM443.129 99.9208L443.085 99.4227L443.085 99.4227L443.129 99.9208ZM405.544 108.704L405.31 108.262L405.31 108.262L405.544 108.704ZM391.699 118.218L391.359 117.852L391.359 117.852L391.699 118.218ZM379.44 129.672L379.762 130.054L379.762 130.054L379.44 129.672ZM365.853 138.984L365.582 138.563L365.582 138.563L365.853 138.984ZM362.534 141.936L362.127 141.647L362.127 141.647L362.534 141.936ZM360.421 147.115L359.935 146.996L359.935 146.996L360.421 147.115ZM361.473 155.155L361.015 155.356L361.015 155.356L361.473 155.155ZM367.424 163.982L367.048 164.312L367.048 164.312L367.424 163.982ZM387.802 181.492L387.511 181.899L387.511 181.899L387.802 181.492ZM408.649 195.094L408.389 195.521L408.389 195.521L408.649 195.094ZM415.208 199.099L415.474 198.675L415.474 198.675L415.208 199.099ZM416.845 200.192L417.15 199.796L417.15 199.796L416.845 200.192ZM417.069 200.38L417.41 200.014L417.41 200.013L417.069 200.38ZM417.257 200.6L417.684 200.34L417.684 200.34L417.257 200.6ZM417.342 200.843L417.839 200.788L417.839 200.787L417.342 200.843ZM417.199 201.269L417.561 201.614L417.562 201.614L417.199 201.269ZM416.907 201.43L417.01 201.919L417.01 201.919L416.907 201.43ZM416.728 201.443L416.708 201.943L416.708 201.943L416.728 201.443ZM389.053 191.836L388.794 192.264L388.794 192.264L389.053 191.836ZM362.931 172.075L362.604 172.454L362.604 172.454L362.931 172.075ZM339.664 152.225L339.97 151.83L339.97 151.83L339.664 152.225ZM320.78 142.329L320.832 141.832L320.832 141.832L320.78 142.329ZM262.317 150.138L262.185 149.656L262.185 149.656L262.317 150.138ZM234.411 158.308L234.551 158.788L234.551 158.788L234.411 158.308ZM210.979 164.09L211.059 164.583L211.059 164.583L210.979 164.09ZM162.757 163.832L162.682 164.326L162.682 164.326L162.757 163.832ZM140.87 158.114L140.673 158.574L140.673 158.574L140.87 158.114ZM128.185 147.949L127.733 148.164L127.733 148.164L128.185 147.949ZM127.603 141.961L127.108 141.888L127.108 141.888L127.603 141.961ZM129.854 134.281L129.39 134.097L129.39 134.097L129.854 134.281ZM139.125 115.165L139.57 115.393L139.57 115.393L139.125 115.165ZM148.971 93.6933L149.441 93.864L149.441 93.864L148.971 93.6933ZM152.485 73.2675L152.983 73.217L152.983 73.217L152.485 73.2675ZM147.408 58.9755L147.795 58.6585L147.795 58.6585L147.408 58.9755ZM132.618 51.577L132.694 51.0829L132.694 51.0829L132.618 51.577ZM101.791 66.4179L101.337 66.2076L101.337 66.2076L101.791 66.4179ZM102.235 92.1327L101.752 92.2611L101.752 92.2611L102.235 92.1327ZM105.605 103.683L106.087 103.547L106.087 103.547L105.605 103.683ZM106.628 107.984L107.122 107.905L107.122 107.905L106.628 107.984ZM106.607 111.003L107.082 111.161L107.082 111.161L106.607 111.003ZM106.284 111.753L106.714 112.007L106.715 112.007L106.284 111.753ZM105.779 112.254L105.989 112.708L105.989 112.708L105.779 112.254ZM105.014 112.202L104.756 112.631L104.757 112.631L105.014 112.202ZM104.541 111.723L104.13 112.007L104.13 112.007L104.541 111.723ZM103.757 110.122L103.293 110.308L103.293 110.308L103.757 110.122ZM102.841 107.631L102.369 107.796L102.369 107.796L102.841 107.631ZM96.25 91.6542L96.6923 91.4209L96.6923 91.4209L96.25 91.6542ZM56.3457 66.7079L56.3321 66.2081L56.3321 66.2081L56.3457 66.7079ZM13.1035 83.785L12.756 83.4256L12.756 83.4256L13.1035 83.785ZM4.10352 94.9559L3.6772 94.6947L3.6772 94.6947L4.10352 94.9559ZM2.08398 98.6024L1.63509 98.3822L1.63509 98.3822L2.08398 98.6024ZM1.60938 99.6151L1.15196 99.4132L1.15195 99.4132L1.60938 99.6151ZM1.49609 99.8778L1.03497 99.6845L1.03496 99.6845L1.49609 99.8778ZM1.46973 99.9433L1.93258 100.132L1.93259 100.132L1.46973 99.9433ZM1.46289 99.9589L0.999275 99.7716L0.999173 99.7719L1.46289 99.9589ZM1.46191 99.9618L1.34262 100.447L1.76585 100.551L1.92664 100.146L1.46191 99.9618ZM0.5 99.7255L0.551783 99.2282L0.380705 100.211L0.5 99.7255ZM0.99707 99.7772L0.945287 100.275L1.04903 99.2799L0.99707 99.7772ZM0.5 99.7245H0V100.141L0.409763 100.216L0.5 99.7245ZM0.5 99.7196L0.00283036 99.6665L0 99.693V99.7196H0.5ZM0.501953 99.705L0.998965 99.7596L0.998998 99.7593L0.501953 99.705ZM0.507812 99.6493L0.0110285 99.5927L0.0110256 99.5927L0.507812 99.6493ZM0.53418 99.4345L0.0379707 99.373L0.0379699 99.373L0.53418 99.4345ZM0.645508 98.6083L0.150675 98.5366L0.150674 98.5366L0.645508 98.6083ZM1.16895 95.538L0.677997 95.4433L0.677997 95.4433L1.16895 95.538ZM3.8877 85.0067L3.41182 84.8533L3.41182 84.8533L3.8877 85.0067ZM19.8115 56.6474L19.4433 56.3091L19.4433 56.3091L19.8115 56.6474ZM216.098 93.744L216.066 94.243L216.066 94.243L216.098 93.744ZM184.273 93.3309L184.213 92.8346L184.213 92.8346L184.273 93.3309ZM161.771 105.803L161.335 105.558L161.335 105.558L161.771 105.803ZM156.938 133.507L156.464 133.668L156.464 133.668L156.938 133.507ZM181.149 146.669L181.104 147.167L181.104 147.167L181.149 146.669ZM224.241 144.54L224.3 145.036L224.3 145.036L224.241 144.54ZM257.245 138.808L257.373 139.292L257.373 139.292L257.245 138.808ZM273.099 132.859L273.343 133.295L273.343 133.295L273.099 132.859ZM281.478 123.876L281.963 123.997L281.963 123.997L281.478 123.876ZM276.626 114.052L276.956 113.676L276.956 113.676L276.626 114.052ZM261.044 104.819L261.246 104.362L261.246 104.362L261.044 104.819ZM106.021 10.3866L106.133 10.8739C155.137 -0.372606 186.876 -4.08008 234.879 10.8737L235.027 10.3964L235.176 9.919C186.933 -5.10975 154.994 -1.36576 105.91 9.89928L106.021 10.3866ZM235.027 10.3964L234.879 10.8737C264.565 20.1219 285.409 45.9972 304.317 69.1191L304.704 68.8026L305.091 68.4861C286.232 45.4242 265.202 19.273 235.176 9.919L235.027 10.3964ZM304.704 68.8026L304.317 69.1191C313.771 80.6801 322.742 91.5537 332.093 99.3153L332.412 98.9306L332.731 98.5458C323.469 90.8577 314.56 80.0655 305.091 68.4861L304.704 68.8026ZM332.412 98.9306L332.093 99.3153C341.443 107.077 351.174 111.727 362.148 110.844L362.108 110.346L362.068 109.847C351.457 110.701 341.978 106.221 332.731 98.5458L332.412 98.9306ZM362.108 110.346L362.148 110.844C378.195 109.553 386.051 106.18 392.331 102.742L392.091 102.304L391.851 101.865C385.692 105.237 377.972 108.568 362.068 109.847L362.108 110.346ZM392.091 102.304L392.331 102.742C398.61 99.304 403.314 95.7994 413.056 94.2436L412.978 93.7499L412.899 93.2561C402.943 94.846 398.056 98.4672 391.851 101.865L392.091 102.304ZM412.978 93.7499L413.056 94.2436C424.224 92.4604 437.229 92.3898 447.441 93.18L447.479 92.6815L447.518 92.183C437.251 91.3885 424.164 91.4573 412.899 93.2561L412.978 93.7499ZM447.479 92.6815L447.441 93.18C452.547 93.5752 456.956 94.1861 460.087 94.9052L460.199 94.4179L460.311 93.9305C457.113 93.1963 452.651 92.5802 447.518 92.183L447.479 92.6815ZM460.199 94.4179L460.087 94.9052C461.653 95.2646 462.9 95.6518 463.755 96.0523L463.967 95.5995L464.179 95.1467C463.229 94.7018 461.902 94.2959 460.311 93.9305L460.199 94.4179ZM463.967 95.5995L463.755 96.0523C464.183 96.2527 464.513 96.4561 464.735 96.6614L465.074 96.2938L465.413 95.9263C465.083 95.6221 464.65 95.3673 464.179 95.1467L463.967 95.5995ZM465.074 96.2938L464.735 96.6613C464.958 96.8671 465.073 97.075 465.073 97.2821H465.573H466.073C466.073 96.6786 465.736 96.2238 465.413 95.9264L465.074 96.2938ZM465.573 97.2821L465.073 97.2819C465.073 97.3496 465.037 97.4151 464.962 97.477L465.279 97.8632L465.597 98.2493C465.799 98.0829 466.073 97.7614 466.073 97.2824L465.573 97.2821ZM465.279 97.8632L464.962 97.4768C464.889 97.5371 464.779 97.5936 464.634 97.6473L464.808 98.1161L464.981 98.585C465.169 98.5153 465.398 98.4124 465.597 98.2495L465.279 97.8632ZM464.808 98.1161L464.634 97.6472C464.345 97.7542 463.918 97.8482 463.369 97.9324L463.444 98.4267L463.52 98.9209C464.085 98.8342 464.594 98.7282 464.981 98.585L464.808 98.1161ZM463.444 98.4267L463.369 97.9324C462.269 98.101 460.674 98.233 458.695 98.3643L458.729 98.8632L458.762 99.3621C460.737 99.2311 462.372 99.0968 463.52 98.9209L463.444 98.4267ZM458.729 98.8632L458.695 98.3643C454.737 98.6268 449.24 98.885 443.085 99.4227L443.129 99.9208L443.172 100.419C449.314 99.8824 454.778 99.6263 458.762 99.3621L458.729 98.8632ZM443.129 99.9208L443.085 99.4227C430.776 100.498 415.835 102.69 405.31 108.262L405.544 108.704L405.778 109.146C416.107 103.678 430.865 101.494 443.172 100.419L443.129 99.9208ZM405.544 108.704L405.31 108.262C398.291 111.978 394.682 114.761 391.359 117.852L391.699 118.218L392.04 118.584C395.295 115.557 398.831 112.824 405.778 109.146L405.544 108.704ZM391.699 118.218L391.359 117.852C388.035 120.942 384.997 124.342 379.118 129.289L379.44 129.672L379.762 130.054C385.656 125.094 388.792 121.605 392.04 118.584L391.699 118.218ZM379.44 129.672L379.118 129.289C372.663 134.723 368.465 136.713 365.582 138.563L365.853 138.984L366.123 139.405C368.922 137.608 373.241 135.543 379.762 130.054L379.44 129.672ZM365.853 138.984L365.582 138.563C364.141 139.489 363.029 140.379 362.127 141.647L362.534 141.936L362.942 142.226C363.738 141.107 364.73 140.299 366.123 139.405L365.853 138.984ZM362.534 141.936L362.127 141.647C361.225 142.914 360.534 144.56 359.935 146.996L360.421 147.115L360.906 147.234C361.488 144.865 362.14 143.353 362.942 142.226L362.534 141.936ZM360.421 147.115L359.935 146.996C359.29 149.624 359.739 152.44 361.015 155.356L361.473 155.155L361.931 154.955C360.713 152.171 360.329 149.586 360.906 147.234L360.421 147.115ZM361.473 155.155L361.015 155.356C362.29 158.271 364.391 161.286 367.048 164.312L367.424 163.982L367.8 163.652C365.181 160.67 363.15 157.742 361.931 154.955L361.473 155.155ZM367.424 163.982L367.048 164.312C372.363 170.365 379.903 176.462 387.511 181.899L387.802 181.492L388.092 181.085C380.505 175.664 373.038 169.618 367.8 163.652L367.424 163.982ZM387.802 181.492L387.511 181.899C395.12 187.335 402.798 192.111 408.389 195.521L408.649 195.094L408.91 194.667C403.324 191.261 395.671 186.5 388.092 181.085L387.802 181.492ZM408.649 195.094L408.389 195.521C411.184 197.225 413.459 198.589 414.942 199.522L415.208 199.099L415.474 198.675C413.984 197.737 411.694 196.364 408.91 194.667L408.649 195.094ZM415.208 199.099L414.942 199.522C415.683 199.988 416.227 200.348 416.54 200.588L416.845 200.192L417.15 199.796C416.795 199.523 416.212 199.14 415.474 198.675L415.208 199.099ZM416.845 200.192L416.539 200.588C416.616 200.648 416.68 200.701 416.729 200.746L417.069 200.38L417.41 200.013C417.331 199.94 417.242 199.867 417.15 199.796L416.845 200.192ZM417.069 200.38L416.729 200.746C416.751 200.766 416.772 200.787 416.79 200.808C416.809 200.829 416.822 200.846 416.829 200.859L417.257 200.6L417.684 200.34C417.593 200.189 417.476 200.075 417.41 200.014L417.069 200.38ZM417.257 200.6L416.829 200.859C416.833 200.865 416.837 200.872 416.84 200.88C416.843 200.887 416.844 200.893 416.845 200.898L417.342 200.843L417.839 200.787C417.815 200.572 417.73 200.415 417.684 200.34L417.257 200.6ZM417.342 200.843L416.845 200.897C416.845 200.899 416.845 200.902 416.845 200.905C416.845 200.909 416.844 200.912 416.843 200.914C416.843 200.916 416.842 200.918 416.841 200.919C416.84 200.921 416.839 200.923 416.837 200.925L417.199 201.269L417.562 201.614C417.803 201.36 417.867 201.042 417.839 200.788L417.342 200.843ZM417.199 201.269L416.837 200.925C416.834 200.928 416.83 200.931 416.824 200.934C416.817 200.937 416.811 200.939 416.804 200.94L416.907 201.43L417.01 201.919C417.124 201.895 417.358 201.827 417.561 201.614L417.199 201.269ZM416.907 201.43L416.805 200.94C416.789 200.943 416.769 200.945 416.747 200.944L416.728 201.443L416.708 201.943C416.776 201.946 416.885 201.945 417.01 201.919L416.907 201.43ZM416.728 201.443L416.748 200.944C407.525 200.575 398.303 196.839 389.311 191.408L389.053 191.836L388.794 192.264C397.858 197.738 407.249 201.564 416.708 201.943L416.728 201.443ZM389.053 191.836L389.311 191.408C380.319 185.977 371.557 178.849 363.257 171.696L362.931 172.075L362.604 172.454C370.912 179.613 379.727 186.787 388.794 192.264L389.053 191.836ZM362.931 172.075L363.257 171.696C354.957 164.543 347.118 157.364 339.97 151.83L339.664 152.225L339.358 152.621C346.478 158.134 354.269 165.271 362.604 172.454L362.931 172.075ZM339.664 152.225L339.97 151.83C332.823 146.296 326.366 142.407 320.832 141.832L320.78 142.329L320.729 142.826C325.95 143.369 332.205 147.083 339.358 152.621L339.664 152.225ZM320.78 142.329L320.832 141.832C302.458 139.923 281.707 144.28 262.185 149.656L262.317 150.138L262.45 150.62C281.961 145.247 302.555 140.939 320.729 142.826L320.78 142.329ZM262.317 150.138L262.185 149.656C252.423 152.344 242.968 155.287 234.271 157.829L234.411 158.308L234.551 158.788C243.273 156.239 252.697 153.305 262.45 150.62L262.317 150.138ZM234.411 158.308L234.271 157.829C225.574 160.37 217.633 162.512 210.9 163.596L210.979 164.09L211.059 164.583C217.859 163.488 225.853 161.331 234.551 158.788L234.411 158.308ZM210.979 164.09L210.9 163.596C197.777 165.71 179.148 165.803 162.832 163.338L162.757 163.832L162.682 164.326C179.091 166.805 197.825 166.715 211.059 164.583L210.979 164.09ZM162.757 163.832L162.832 163.338C154.673 162.105 147.092 160.233 141.067 157.654L140.87 158.114L140.673 158.574C146.804 161.197 154.477 163.087 162.682 164.326L162.757 163.832ZM140.87 158.114L141.067 157.654C135.042 155.076 130.573 151.791 128.636 147.734L128.185 147.949L127.733 148.164C129.829 152.554 134.576 155.965 140.673 158.574L140.87 158.114ZM128.185 147.949L128.636 147.734C127.9 146.192 127.768 144.268 128.097 142.034L127.603 141.961L127.108 141.888C126.764 144.225 126.878 146.373 127.733 148.164L128.185 147.949ZM127.603 141.961L128.097 142.034C128.426 139.799 129.215 137.253 130.319 134.465L129.854 134.281L129.39 134.097C128.272 136.918 127.453 139.545 127.108 141.888L127.603 141.961ZM129.854 134.281L130.319 134.465C132.528 128.89 135.997 122.346 139.57 115.393L139.125 115.165L138.68 114.936C135.122 121.862 131.621 128.463 129.39 134.097L129.854 134.281ZM139.125 115.165L139.57 115.393C143.142 108.441 146.819 101.079 149.441 93.864L148.971 93.6933L148.501 93.5225C145.903 100.671 142.254 107.983 138.68 114.936L139.125 115.165ZM148.971 93.6933L149.441 93.864C152.062 86.6488 153.628 79.5804 152.983 73.217L152.485 73.2675L151.988 73.3179C152.611 79.4621 151.102 86.3639 148.501 93.5225L148.971 93.6933ZM152.485 73.2675L152.983 73.217C152.398 67.4549 150.923 62.4747 147.795 58.6585L147.408 58.9755L147.021 59.2924C149.973 62.894 151.413 67.6514 151.988 73.3179L152.485 73.2675ZM147.408 58.9755L147.795 58.6585C144.667 54.8426 139.887 52.1896 132.694 51.0829L132.618 51.577L132.542 52.0712C139.556 53.1504 144.087 55.7122 147.022 59.2924L147.408 58.9755ZM132.618 51.577L132.694 51.0829C120.086 49.1431 106.701 54.6338 101.337 66.2076L101.791 66.4179L102.245 66.6281C107.381 55.5457 120.271 50.1833 132.542 52.0712L132.618 51.577ZM101.791 66.4179L101.337 66.2076C97.8328 73.7699 99.4619 83.6383 101.752 92.2611L102.235 92.1327L102.719 92.0044C100.426 83.3712 98.9069 73.8306 102.245 66.6281L101.791 66.4179ZM102.235 92.1327L101.752 92.2611C102.897 96.5723 104.208 100.574 105.124 103.818L105.605 103.683L106.087 103.547C105.148 100.223 103.867 96.3299 102.719 92.0044L102.235 92.1327ZM105.605 103.683L105.124 103.818C105.582 105.441 105.943 106.874 106.134 108.064L106.628 107.984L107.122 107.905C106.921 106.656 106.547 105.177 106.087 103.547L105.605 103.683ZM106.628 107.984L106.134 108.064C106.326 109.253 106.348 110.199 106.133 110.845L106.607 111.003L107.082 111.161C107.379 110.27 107.316 109.115 107.122 107.905L106.628 107.984ZM106.607 111.003L106.133 110.845C106.04 111.123 105.947 111.34 105.854 111.498L106.284 111.753L106.715 112.007C106.859 111.764 106.978 111.473 107.082 111.161L106.607 111.003ZM106.284 111.753L105.854 111.498C105.761 111.655 105.666 111.755 105.569 111.8L105.779 112.254L105.989 112.708C106.357 112.537 106.581 112.232 106.714 112.007L106.284 111.753ZM105.779 112.254L105.57 111.8C105.474 111.844 105.374 111.835 105.271 111.773L105.014 112.202L104.757 112.631C105.088 112.83 105.539 112.916 105.989 112.708L105.779 112.254ZM105.014 112.202L105.271 111.773C105.169 111.712 105.064 111.599 104.952 111.438L104.541 111.723L104.13 112.007C104.27 112.21 104.473 112.461 104.756 112.631L105.014 112.202ZM104.541 111.723L104.952 111.438C104.731 111.118 104.49 110.607 104.221 109.936L103.757 110.122L103.293 110.308C103.564 110.985 103.84 111.587 104.13 112.007L104.541 111.723ZM103.757 110.122L104.221 109.936C103.951 109.264 103.651 108.43 103.313 107.465L102.841 107.631L102.369 107.796C102.708 108.761 103.014 109.614 103.293 110.308L103.757 110.122ZM102.841 107.631L103.313 107.465C101.958 103.605 99.9689 97.6332 96.6923 91.4209L96.25 91.6542L95.8077 91.8875C99.0435 98.0223 101.009 103.921 102.369 107.796L102.841 107.631ZM96.25 91.6542L96.6923 91.4209C90.1388 78.9963 78.432 65.607 56.3321 66.2081L56.3457 66.7079L56.3593 67.2077C77.9231 66.6212 89.3455 79.6357 95.8077 91.8875L96.25 91.6542ZM56.3457 66.7079L56.3321 66.2081C35.1207 66.7853 21.2868 75.1777 12.756 83.4256L13.1035 83.785L13.4511 84.1445C21.8251 76.0481 35.428 67.7773 56.3593 67.2077L56.3457 66.7079ZM13.1035 83.785L12.756 83.4256C8.49062 87.5496 5.55052 91.6378 3.6772 94.6947L4.10352 94.9559L4.52983 95.2172C6.36793 92.2178 9.25731 88.1993 13.4511 84.1445L13.1035 83.785ZM4.10352 94.9559L3.6772 94.6947C2.74066 96.223 2.07095 97.4937 1.63509 98.3822L2.08398 98.6024L2.53288 98.8226C2.95645 97.9592 3.61128 96.7161 4.52984 95.2172L4.10352 94.9559ZM2.08398 98.6024L1.63509 98.3822C1.41741 98.826 1.25712 99.175 1.15196 99.4132L1.60938 99.6151L2.06679 99.817C2.16631 99.5916 2.32089 99.2548 2.53288 98.8226L2.08398 98.6024ZM1.60938 99.6151L1.15195 99.4132C1.0995 99.5321 1.06062 99.6233 1.03497 99.6845L1.49609 99.8778L1.95722 100.071C1.98062 100.015 2.01703 99.9298 2.0668 99.817L1.60938 99.6151ZM1.49609 99.8778L1.03496 99.6845C1.02714 99.7032 1.0207 99.7193 1.01573 99.7318C1.00968 99.7471 1.00849 99.7502 1.00687 99.7541L1.46973 99.9433L1.93259 100.132C1.93515 100.126 1.93762 100.12 1.9395 100.115C1.94181 100.109 1.9431 100.106 1.94526 100.101C1.94898 100.091 1.95283 100.082 1.95722 100.071L1.49609 99.8778ZM1.46973 99.9433L1.00687 99.7541C1.00893 99.7491 1.01053 99.7456 1.01017 99.7464C1.00997 99.7468 1.00998 99.7468 1.00949 99.7479C1.00915 99.7486 1.0085 99.7501 1.00775 99.7518C1.00701 99.7534 1.00588 99.756 1.00456 99.759C1.00326 99.762 1.0014 99.7664 0.999275 99.7716L1.46289 99.9589L1.92651 100.146C1.92471 100.151 1.92321 100.154 1.92233 100.156C1.92141 100.158 1.92072 100.16 1.92046 100.16C1.92019 100.161 1.92004 100.161 1.92025 100.161C1.92029 100.161 1.92087 100.159 1.92126 100.159C1.92327 100.154 1.92764 100.144 1.93258 100.132L1.46973 99.9433ZM1.46289 99.9589L0.999173 99.7719C0.99053 99.7933 0.985267 99.8107 0.983497 99.8166C0.983178 99.8176 0.982759 99.819 0.982969 99.8183C0.982987 99.8183 0.983549 99.8164 0.98429 99.814C0.985043 99.8115 0.986456 99.807 0.988365 99.8014C0.990254 99.7958 0.993197 99.7874 0.997186 99.7773L1.46191 99.9618L1.92664 100.146C1.93069 100.136 1.9337 100.128 1.93565 100.122C1.93762 100.116 1.93909 100.111 1.93991 100.109C1.94071 100.106 1.94134 100.104 1.94142 100.104C1.9417 100.103 1.94135 100.104 1.94111 100.105C1.93963 100.11 1.93474 100.126 1.92661 100.146L1.46289 99.9589ZM1.46191 99.9618L1.58121 99.4762L0.619295 99.2399L0.5 99.7255L0.380705 100.211L1.34262 100.447L1.46191 99.9618ZM0.5 99.7255L0.448217 100.223L0.945287 100.275L0.99707 99.7772L1.04885 99.2799L0.551783 99.2282L0.5 99.7255ZM0.99707 99.7772L1.04903 99.2799C0.82421 99.2565 0.701454 99.2435 0.634534 99.2364C0.600921 99.2328 0.582167 99.2307 0.571894 99.2296C0.566597 99.229 0.564766 99.2288 0.564809 99.2288C0.564919 99.2288 0.565335 99.2288 0.565983 99.2289C0.566604 99.229 0.567717 99.2291 0.56918 99.2293C0.57028 99.2295 0.578979 99.2306 0.590237 99.2327L0.5 99.7245L0.409763 100.216C0.436156 100.221 0.478844 100.225 0.528289 100.231C0.596458 100.238 0.720208 100.251 0.945114 100.275L0.99707 99.7772ZM0.5 99.7245H1V99.7196H0.5H0V99.7245H0.5ZM0.5 99.7196L0.99717 99.7727C0.996747 99.7767 0.996355 99.7799 0.996094 99.7819C0.99583 99.784 0.995616 99.7855 0.995516 99.7862C0.995416 99.7869 0.995356 99.7873 0.995398 99.7871C0.995418 99.7869 0.995439 99.7868 0.995489 99.7864C0.995531 99.7861 0.995596 99.7857 0.995665 99.7852C0.996206 99.7815 0.997637 99.7716 0.998965 99.7596L0.501953 99.705L0.00494132 99.6504C0.00558795 99.6445 0.00622258 99.6403 0.00604679 99.6415C0.00602643 99.6416 0.0060024 99.6418 0.00595819 99.6421C0.00592091 99.6424 0.00585784 99.6428 0.00579398 99.6432C0.00567049 99.6441 0.00545201 99.6456 0.00520607 99.6473C0.00495948 99.6491 0.00460963 99.6516 0.00422425 99.6547C0.00384231 99.6576 0.00334286 99.6617 0.00283036 99.6665L0.5 99.7196ZM0.501953 99.705L0.998998 99.7593C0.999958 99.7505 1.00111 99.7388 1.0018 99.7321C1.00265 99.7237 1.00354 99.7152 1.0046 99.7059L0.507812 99.6493L0.0110256 99.5927C0.00932139 99.6077 0.0079751 99.6206 0.00693634 99.6308C0.00572991 99.6427 0.00533562 99.6468 0.00490813 99.6507L0.501953 99.705ZM0.507812 99.6493L1.0046 99.7059C1.00979 99.6603 1.01834 99.5932 1.03039 99.4959L0.53418 99.4345L0.0379699 99.373C0.0267198 99.4639 0.0169586 99.5407 0.0110285 99.5927L0.507812 99.6493ZM0.53418 99.4345L1.03039 99.4959C1.05342 99.3099 1.0889 99.035 1.14034 98.68L0.645508 98.6083L0.150674 98.5366C0.0980665 98.8997 0.0616776 99.1816 0.0379707 99.373L0.53418 99.4345ZM0.645508 98.6083L1.14034 98.68C1.24337 97.9689 1.40918 96.9324 1.65989 95.6327L1.16895 95.538L0.677997 95.4433C0.4241 96.7594 0.255751 97.8114 0.150675 98.5366L0.645508 98.6083ZM1.16895 95.538L1.65989 95.6327C2.16136 93.0332 3.00334 89.3792 4.36357 85.1602L3.8877 85.0067L3.41182 84.8533C2.03709 89.1173 1.18572 92.8114 0.677997 95.4433L1.16895 95.538ZM3.8877 85.0067L4.36357 85.1602C7.0842 76.7217 11.8796 66.0235 20.1798 56.9856L19.8115 56.6474L19.4433 56.3091C11.0121 65.4897 6.1585 76.334 3.41182 84.8533L3.8877 85.0067ZM19.8115 56.6474L20.1798 56.9856C27.6658 48.8343 61.128 21.2028 106.133 10.8739L106.021 10.3866L105.91 9.89928C60.6726 20.2813 27.0401 48.0373 19.4433 56.3091L19.8115 56.6474ZM216.098 93.744L216.129 93.245C205.43 92.5713 194.021 91.637 184.213 92.8346L184.273 93.3309L184.334 93.8273C194.027 92.6437 205.321 93.5665 216.066 94.243L216.098 93.744ZM184.273 93.3309L184.213 92.8346C174.396 94.0333 165.907 97.3993 161.335 105.558L161.771 105.803L162.208 106.047C166.549 98.3005 174.641 95.0109 184.334 93.8273L184.273 93.3309ZM161.771 105.803L161.335 105.558C155.273 116.377 153.261 124.268 156.464 133.668L156.938 133.507L157.411 133.345C154.34 124.334 156.207 116.756 162.208 106.047L161.771 105.803ZM156.938 133.507L156.464 133.668C159.444 142.411 168.967 146.055 181.104 147.167L181.149 146.669L181.195 146.171C169.085 145.062 160.177 141.461 157.411 133.345L156.938 133.507ZM181.149 146.669L181.104 147.167C193.331 148.286 208.739 146.889 224.3 145.036L224.241 144.54L224.182 144.043C208.614 145.897 193.304 147.28 181.195 146.171L181.149 146.669ZM224.241 144.54L224.3 145.036C232.045 144.115 245.458 142.448 257.373 139.292L257.245 138.808L257.117 138.325C245.278 141.461 231.929 143.121 224.182 144.043L224.241 144.54ZM257.245 138.808L257.373 139.292C263.327 137.715 268.961 135.753 273.343 133.295L273.099 132.859L272.854 132.423C268.579 134.821 263.036 136.757 257.117 138.325L257.245 138.808ZM273.099 132.859L273.343 133.295C277.692 130.856 281.007 127.818 281.963 123.997L281.478 123.876L280.992 123.754C280.139 127.167 277.13 130.025 272.854 132.423L273.099 132.859ZM281.478 123.876L281.963 123.997C282.849 120.454 280.614 116.888 276.956 113.676L276.626 114.052L276.296 114.427C279.91 117.601 281.731 120.804 280.992 123.755L281.478 123.876ZM276.626 114.052L276.956 113.676C273.234 110.408 267.723 107.215 261.246 104.362L261.044 104.819L260.842 105.277C267.275 108.11 272.682 111.254 276.296 114.427L276.626 114.052ZM261.044 104.819L261.246 104.362C248.28 98.6507 231.195 94.1937 216.129 93.245L216.098 93.744L216.066 94.243C231.006 95.1838 247.977 99.6097 260.842 105.277L261.044 104.819Z" fill="black"/>
</svg>
