<svg width="485" height="288" viewBox="0 0 485 288" fill="none" xmlns="http://www.w3.org/2000/svg">
<g clip-path="url(#clip0_123_336)">
<g filter="url(#filter0_d_123_336)">
<path d="M16.2315 193.225C8.17636 189.198 1.66239 188.459 0.123868 178.073C-1.35157 168.112 10.7521 161.525 15.2556 144.503C20.038 126.427 17.824 115.729 24.0958 98.3912C30.9003 79.5806 40.2812 72.2426 55.8295 59.6572C78.6741 41.1657 95.8768 35.8753 124.068 27.5633C153.343 18.9316 180.132 17.1242 201.168 18.3409C230.957 20.0639 252.076 23.5725 269.783 34.5723C294.13 49.697 311.974 72.5049 333.233 97.6534C341.341 107.245 356.105 127.165 379.346 127.165C407.013 127.165 411.427 113.03 434.311 110.565C453.96 108.448 486.687 109.827 484.482 113.147C480.414 119.272 465.299 133.436 459.765 147.454C457.332 153.618 460.123 155.957 457.929 162.21C455.13 170.189 449.693 168.71 444.272 177.335C436.156 190.246 443.262 205.926 440.214 212.749C433.951 226.767 370.861 176.228 370.861 176.228C370.861 176.228 327.428 206.976 296.343 220.864C265.601 234.6 247.28 240.785 214.079 247.056C181.654 253.181 158.375 252.589 126.281 247.794C105.459 244.682 90.1291 240.785 66.8885 228.242C54.9248 221.786 47.1259 210.354 35.1632 203.895C27.1808 199.586 15.8966 202.671 14.0181 195.439C13.4722 193.336 17.7071 193.963 16.2315 193.225Z" fill="white"/>
<path d="M16.2315 193.225C8.17636 189.198 1.66239 188.459 0.123868 178.073C-1.35157 168.112 10.7521 161.525 15.2556 144.503C20.038 126.427 17.824 115.729 24.0958 98.3912C30.9003 79.5806 40.2812 72.2426 55.8295 59.6572C78.6741 41.1657 95.8768 35.8753 124.068 27.5633C153.343 18.9316 180.132 17.1242 201.168 18.3409C230.957 20.0639 252.076 23.5725 269.783 34.5723C294.13 49.697 311.974 72.5049 333.233 97.6534C341.341 107.245 356.105 127.165 379.346 127.165C407.013 127.165 411.427 113.03 434.311 110.565C453.96 108.448 486.687 109.827 484.482 113.147C480.414 119.272 465.299 133.436 459.765 147.454C457.332 153.618 460.123 155.957 457.929 162.21C455.13 170.189 449.693 168.71 444.272 177.335C436.156 190.246 443.262 205.926 440.214 212.749C433.951 226.767 370.861 176.228 370.861 176.228C370.861 176.228 327.428 206.976 296.343 220.864C265.601 234.6 247.28 240.785 214.079 247.056C181.654 253.181 158.375 252.589 126.281 247.794C105.459 244.682 90.1291 240.785 66.8885 228.242C54.9248 221.786 47.1259 210.354 35.1632 203.895C27.1808 199.586 15.8966 202.671 14.0181 195.439C13.4722 193.336 17.7071 193.963 16.2315 193.225Z" stroke="black"/>
</g>
<g filter="url(#filter1_d_123_336)">
<path fill-rule="evenodd" clip-rule="evenodd" d="M151.92 193.782C141.306 215.807 226.068 249.116 226.068 249.116C226.068 249.116 191.948 225.507 184.201 216.667C176.454 207.828 181.25 191.934 181.25 191.934C176.606 191.379 172.716 190.738 169.433 190.197C159.136 188.501 154.808 187.788 151.92 193.782Z" fill="white"/>
<path d="M226.068 249.116C226.068 249.116 218.461 230.667 220.869 225.507C223.451 219.973 227.254 219.209 227.878 212.964C228.616 205.586 220.923 202.723 222.345 197.102C223.011 194.466 228.004 192.073 225.296 192.306C205.76 193.988 191.624 193.174 181.25 191.934C181.25 191.934 176.454 207.828 184.201 216.667C191.948 225.507 226.068 249.116 226.068 249.116Z" fill="white"/>
<path d="M226.068 249.116C226.068 249.116 141.306 215.807 151.92 193.782C154.808 187.788 159.136 188.501 169.433 190.197C172.716 190.738 176.606 191.379 181.25 191.934M226.068 249.116C226.068 249.116 218.461 230.667 220.869 225.507C223.451 219.973 227.254 219.209 227.878 212.964C228.616 205.586 220.923 202.723 222.345 197.102C223.011 194.466 228.004 192.073 225.296 192.306C205.76 193.988 191.624 193.174 181.25 191.934M226.068 249.116C226.068 249.116 191.948 225.507 184.201 216.667C176.454 207.828 181.25 191.934 181.25 191.934" stroke="black"/>
</g>
<g filter="url(#filter2_f_123_336)">
<path d="M33.8714 191.354C29.7779 196.149 11.527 192.764 15.5845 192.378C19.6421 191.991 28.7106 190.985 32.7678 185.452C34.3339 183.316 35.5909 189.339 33.8714 191.354Z" fill="#161139" fill-opacity="0.7"/>
</g>
<ellipse cx="72.5016" cy="154.021" rx="29.5074" ry="33.7919" fill="white"/>
<circle cx="74.7158" cy="134.51" r="20.6552" fill="#6B62A4"/>
<circle cx="74.4185" cy="134.212" r="16.2291" fill="#130D0D"/>
<g filter="url(#filter3_f_123_336)">
<circle cx="62.9113" cy="147.496" r="5.90149" fill="white"/>
</g>
<g filter="url(#filter4_f_123_336)">
<circle cx="86.223" cy="121.231" r="4.42612" fill="white"/>
</g>
</g>
<defs>
<filter id="filter0_d_123_336" x="-0.5" y="17.5" width="494.588" height="248.52" filterUnits="userSpaceOnUse" color-interpolation-filters="sRGB">
<feFlood flood-opacity="0" result="BackgroundImageFix"/>
<feColorMatrix in="SourceAlpha" type="matrix" values="0 0 0 0 0 0 0 0 0 0 0 0 0 0 0 0 0 0 127 0" result="hardAlpha"/>
<feOffset dx="5" dy="10"/>
<feGaussianBlur stdDeviation="2"/>
<feComposite in2="hardAlpha" operator="out"/>
<feColorMatrix type="matrix" values="0 0 0 0 0 0 0 0 0 0 0 0 0 0 0 0 0 0 0.25 0"/>
<feBlend mode="normal" in2="BackgroundImageFix" result="effect1_dropShadow_123_336"/>
<feBlend mode="normal" in="SourceGraphic" in2="effect1_dropShadow_123_336" result="shape"/>
</filter>
<filter id="filter1_d_123_336" x="150.5" y="188.5" width="77.9277" height="65.5103" filterUnits="userSpaceOnUse" color-interpolation-filters="sRGB">
<feFlood flood-opacity="0" result="BackgroundImageFix"/>
<feColorMatrix in="SourceAlpha" type="matrix" values="0 0 0 0 0 0 0 0 0 0 0 0 0 0 0 0 0 0 127 0" result="hardAlpha"/>
<feOffset dy="4"/>
<feComposite in2="hardAlpha" operator="out"/>
<feColorMatrix type="matrix" values="0 0 0 0 0.0862745 0 0 0 0 0.0666667 0 0 0 0 0.223529 0 0 0 0.5 0"/>
<feBlend mode="normal" in2="BackgroundImageFix" result="effect1_dropShadow_123_336"/>
<feBlend mode="normal" in="SourceGraphic" in2="effect1_dropShadow_123_336" result="shape"/>
</filter>
<filter id="filter2_f_123_336" x="14.5" y="184.5" width="20.6973" height="9.89746" filterUnits="userSpaceOnUse" color-interpolation-filters="sRGB">
<feFlood flood-opacity="0" result="BackgroundImageFix"/>
<feBlend mode="normal" in="SourceGraphic" in2="BackgroundImageFix" result="shape"/>
<feGaussianBlur stdDeviation="0.25" result="effect1_foregroundBlur_123_336"/>
</filter>
<filter id="filter3_f_123_336" x="55.0098" y="139.594" width="15.8027" height="15.8027" filterUnits="userSpaceOnUse" color-interpolation-filters="sRGB">
<feFlood flood-opacity="0" result="BackgroundImageFix"/>
<feBlend mode="normal" in="SourceGraphic" in2="BackgroundImageFix" result="shape"/>
<feGaussianBlur stdDeviation="1" result="effect1_foregroundBlur_123_336"/>
</filter>
<filter id="filter4_f_123_336" x="79.7969" y="114.805" width="12.8516" height="12.8521" filterUnits="userSpaceOnUse" color-interpolation-filters="sRGB">
<feFlood flood-opacity="0" result="BackgroundImageFix"/>
<feBlend mode="normal" in="SourceGraphic" in2="BackgroundImageFix" result="shape"/>
<feGaussianBlur stdDeviation="1" result="effect1_foregroundBlur_123_336"/>
</filter>
<clipPath id="clip0_123_336">
<rect width="485" height="288" fill="white"/>
</clipPath>
</defs>
</svg>
