<svg width="800" height="530" viewBox="0 0 800 530" fill="none" xmlns="http://www.w3.org/2000/svg">
<path d="M135.221 48.8683C112.039 65.4271 87.852 91.4944 87.8486 103.439C87.8463 111.834 119.64 74.0548 190.398 54.266C270.752 31.7935 385.285 37.6896 420.663 50.668C469.835 68.7062 541.792 159.207 541.792 159.207C541.792 159.207 597.785 131.023 595.161 122.628C592.538 114.233 524.993 8.69123 364.886 2.0949C204.78 -4.50143 139.418 45.87 135.221 48.8683Z" fill="#B8E329" stroke="black" stroke-width="3"/>
<g filter="url(#filter0_d_135_384)">
<path d="M27.8836 321.122C14.7898 314.575 4.20126 313.373 1.70037 296.49C-0.697978 280.299 18.9767 269.59 26.2971 241.921C34.071 212.537 30.4722 195.147 40.6671 166.962C51.7279 136.384 66.9766 124.456 92.2505 103.997C129.385 73.9382 157.348 65.3383 203.173 51.8265C250.76 37.7951 294.306 34.8572 328.499 36.8349C376.923 39.6358 411.251 45.3392 440.034 63.2202C479.611 87.8065 508.617 124.882 543.174 165.763C556.353 181.354 580.352 213.736 618.13 213.736C663.103 213.736 670.279 190.759 707.477 186.751C739.417 183.31 792.614 185.552 789.03 190.949C782.417 200.905 757.848 223.931 748.853 246.718C744.898 256.738 749.434 260.539 745.868 270.704C741.319 283.675 732.48 281.271 723.668 295.291C710.476 316.279 722.027 341.768 717.072 352.859C706.891 375.646 604.338 293.492 604.338 293.492C604.338 293.492 533.737 343.475 483.209 366.051C433.236 388.38 403.455 398.433 349.487 408.628C296.78 418.584 258.94 417.623 206.77 409.827C172.924 404.769 148.005 398.433 110.227 378.045C90.7799 367.549 78.1027 348.965 58.6572 338.467C45.6817 331.461 27.3391 336.477 24.2857 324.72C23.3982 321.303 30.2822 322.321 27.8836 321.122Z" fill="#F37D00"/>
<path d="M27.8836 321.122C14.7898 314.575 4.20126 313.373 1.70037 296.49C-0.697978 280.299 18.9767 269.59 26.2971 241.921C34.071 212.537 30.4722 195.147 40.6671 166.962C51.7279 136.384 66.9766 124.456 92.2505 103.997C129.385 73.9382 157.348 65.3383 203.173 51.8265C250.76 37.7951 294.306 34.8572 328.499 36.8349C376.923 39.6358 411.251 45.3392 440.034 63.2202C479.611 87.8065 508.617 124.882 543.174 165.763C556.353 181.354 580.352 213.736 618.13 213.736C663.103 213.736 670.279 190.759 707.477 186.751C739.417 183.31 792.614 185.552 789.03 190.949C782.417 200.905 757.848 223.931 748.853 246.718C744.898 256.738 749.434 260.539 745.868 270.704C741.319 283.675 732.48 281.271 723.668 295.291C710.476 316.279 722.027 341.768 717.072 352.859C706.891 375.646 604.338 293.492 604.338 293.492C604.338 293.492 533.737 343.475 483.209 366.051C433.236 388.38 403.455 398.433 349.487 408.628C296.78 418.584 258.94 417.623 206.77 409.827C172.924 404.769 148.005 398.433 110.227 378.045C90.7799 367.549 78.1027 348.965 58.6572 338.467C45.6817 331.461 27.3391 336.477 24.2857 324.72C23.3982 321.303 30.2822 322.321 27.8836 321.122Z" stroke="black" stroke-width="3"/>
</g>
<path d="M206.463 46.4438C286.16 28.1524 337.852 22.1076 416.001 46.4536C464.427 61.5399 498.4 103.741 529.111 141.297C544.487 160.1 559.038 177.734 574.193 190.314C589.341 202.888 605.034 210.363 622.691 208.942C648.704 206.849 661.406 201.388 671.553 195.832C681.723 190.263 689.461 184.507 705.404 181.961C723.606 179.055 744.786 178.941 761.413 180.228C769.726 180.871 776.919 181.866 782.043 183.042C784.6 183.63 786.667 184.268 788.104 184.941C788.821 185.277 789.41 185.635 789.825 186.018C790.237 186.398 790.537 186.859 790.537 187.394C790.537 187.711 790.358 187.944 790.173 188.096C789.991 188.246 789.752 188.361 789.495 188.457C788.977 188.648 788.243 188.807 787.342 188.945C785.53 189.223 782.918 189.439 779.702 189.652C773.255 190.079 764.336 190.499 754.338 191.373C734.329 193.121 710.134 196.679 693.124 205.685C681.751 211.707 675.921 216.205 670.553 221.198C665.188 226.187 660.2 231.757 650.637 239.806C640.11 248.666 633.227 251.94 628.583 254.92C626.265 256.408 624.516 257.814 623.103 259.8C621.687 261.791 620.584 264.4 619.619 268.327C618.604 272.461 619.302 276.924 621.346 281.597C623.391 286.272 626.771 291.129 631.071 296.027C639.672 305.822 651.891 315.708 664.248 324.538C676.601 333.364 689.069 341.12 698.155 346.661C702.694 349.428 706.398 351.649 708.812 353.168C710.016 353.926 710.919 354.522 711.448 354.929C711.582 355.032 711.699 355.128 711.793 355.215C711.88 355.296 711.977 355.396 712.043 355.505C712.076 355.559 712.124 355.653 712.138 355.773C712.153 355.914 712.118 356.082 711.99 356.216C711.881 356.331 711.751 356.371 711.678 356.386C711.599 356.403 711.523 356.404 711.463 356.402C696.353 355.797 681.277 349.681 666.625 340.831C651.971 331.979 637.703 320.37 624.207 308.739C610.697 297.096 597.978 285.447 586.373 276.461C574.752 267.463 564.358 261.228 555.519 260.31C525.751 257.218 492.099 264.276 460.371 273.013C444.508 277.382 429.155 282.161 415.005 286.296C400.867 290.429 387.933 293.918 376.955 295.686C355.568 299.131 325.233 299.28 298.663 295.266C285.378 293.259 273.011 290.207 263.164 285.994C253.334 281.787 245.93 276.385 242.702 269.623C241.446 266.991 241.241 263.752 241.783 260.068C242.326 256.381 243.624 252.202 245.425 247.654C249.026 238.561 254.681 227.896 260.481 216.608C266.289 205.305 272.252 193.362 276.501 181.667C280.752 169.966 283.271 158.559 282.232 148.325C281.287 139.006 278.906 131.021 273.91 124.925C268.923 118.84 261.277 114.574 249.674 112.789C229.347 109.661 207.838 118.523 199.233 137.091C193.62 149.204 196.213 165.082 199.938 179.104C201.801 186.119 203.915 192.568 205.416 197.882C206.162 200.524 206.753 202.878 207.069 204.841C207.382 206.785 207.44 208.426 207.049 209.598C206.892 210.068 206.729 210.457 206.552 210.757C206.38 211.047 206.161 211.312 205.868 211.448C205.535 211.602 205.199 211.548 204.917 211.379C204.66 211.225 204.439 210.973 204.244 210.691C203.85 210.12 203.441 209.243 203.002 208.149C202.559 207.045 202.069 205.681 201.519 204.113C199.313 197.83 196.093 188.16 190.787 178.1C180.18 157.989 161.292 136.41 125.636 137.38C91.2961 138.315 68.9242 151.897 55.1357 165.229C48.2384 171.898 43.4854 178.508 40.458 183.449C38.9444 185.919 37.8625 187.971 37.1602 189.403C36.809 190.119 36.5527 190.68 36.3848 191.06C36.3008 191.25 36.2389 191.396 36.1982 191.493C36.178 191.541 36.1631 191.577 36.1533 191.601C36.1485 191.613 36.1449 191.622 36.1426 191.627C36.1414 191.63 36.1402 191.633 36.1396 191.634V191.635L35.1777 191.398V191.396C35.1779 191.395 35.1784 191.393 35.1787 191.39C35.1793 191.385 35.1796 191.377 35.1807 191.367C35.1829 191.347 35.186 191.317 35.1904 191.278C35.1994 191.199 35.2136 191.082 35.2324 190.93C35.2702 190.626 35.3289 190.176 35.4131 189.595C35.5816 188.432 35.8526 186.74 36.2617 184.619C37.08 180.377 38.4525 174.417 40.6709 167.536C45.1063 153.778 52.9308 136.314 66.4883 121.551C78.7118 108.241 133.19 63.2609 206.463 46.4438ZM385.304 181.96C367.86 180.862 349.443 179.358 333.629 181.289C317.811 183.22 304.459 188.606 297.287 201.405C287.502 218.868 284.395 231.343 289.453 246.186C294.056 259.692 308.844 265.568 328.542 267.372C348.285 269.179 373.221 266.924 398.523 263.912C411.115 262.413 432.847 259.71 452.129 254.603C461.768 252.05 470.823 248.889 477.826 244.961C484.813 241.043 489.856 236.305 491.295 230.554C492.569 225.461 489.402 220.073 483.505 214.896C477.576 209.691 468.736 204.556 458.257 199.94C437.294 190.706 409.652 183.494 385.304 181.96Z" fill="#204BC6"/>
<path d="M206.463 46.4438L206.127 44.9819L206.127 44.9819L206.463 46.4438ZM416.001 46.4536L416.447 45.0215L416.447 45.0215L416.001 46.4536ZM529.111 141.297L527.95 142.247L527.95 142.247L529.111 141.297ZM574.193 190.314L573.235 191.468L573.235 191.468L574.193 190.314ZM622.691 208.942L622.812 210.437L622.812 210.437L622.691 208.942ZM671.553 195.832L672.273 197.147L672.273 197.147L671.553 195.832ZM705.404 181.961L705.168 180.48L705.168 180.48L705.404 181.961ZM761.413 180.228L761.529 178.732L761.529 178.732L761.413 180.228ZM782.043 183.042L782.379 181.581L782.379 181.581L782.043 183.042ZM788.104 184.941L788.741 183.583L788.741 183.583L788.104 184.941ZM789.825 186.018L790.842 184.916L790.842 184.915L789.825 186.018ZM790.537 187.394L792.037 187.395L792.037 187.394L790.537 187.394ZM790.173 188.096L791.125 189.255L791.126 189.255L790.173 188.096ZM789.495 188.457L790.016 189.863L790.016 189.863L789.495 188.457ZM787.342 188.945L787.569 190.428L787.569 190.428L787.342 188.945ZM779.702 189.652L779.801 191.149L779.801 191.149L779.702 189.652ZM754.338 191.373L754.207 189.878L754.207 189.878L754.338 191.373ZM693.124 205.685L692.422 204.359L692.422 204.359L693.124 205.685ZM670.553 221.198L669.531 220.099L669.531 220.099L670.553 221.198ZM650.637 239.806L651.603 240.954L651.603 240.954L650.637 239.806ZM628.583 254.92L627.773 253.658L627.773 253.658L628.583 254.92ZM623.103 259.8L621.88 258.931L621.88 258.931L623.103 259.8ZM619.619 268.327L618.162 267.969L618.162 267.969L619.619 268.327ZM621.346 281.597L619.971 282.198L619.971 282.198L621.346 281.597ZM631.071 296.027L629.944 297.017L629.944 297.017L631.071 296.027ZM664.248 324.538L663.376 325.758L663.376 325.758L664.248 324.538ZM698.155 346.661L697.374 347.941L697.374 347.941L698.155 346.661ZM708.812 353.168L709.611 351.899L709.611 351.899L708.812 353.168ZM711.448 354.929L712.364 353.741L712.364 353.741L711.448 354.929ZM711.793 355.215L712.814 354.117L712.814 354.116L711.793 355.215ZM712.043 355.505L713.326 354.727L713.325 354.726L712.043 355.505ZM712.138 355.773L713.628 355.607L713.628 355.607L712.138 355.773ZM711.99 356.216L713.078 357.249L713.079 357.249L711.99 356.216ZM711.678 356.386L711.985 357.854L711.986 357.854L711.678 356.386ZM711.463 356.402L711.403 357.901L711.403 357.901L711.463 356.402ZM666.625 340.831L665.849 342.115L665.849 342.115L666.625 340.831ZM624.207 308.739L623.228 309.875L623.228 309.875L624.207 308.739ZM586.373 276.461L587.291 275.275L587.291 275.275L586.373 276.461ZM555.519 260.31L555.674 258.818L555.674 258.818L555.519 260.31ZM460.371 273.013L459.973 271.567L459.973 271.567L460.371 273.013ZM415.005 286.296L415.426 287.736L415.426 287.736L415.005 286.296ZM376.955 295.686L377.194 297.167L377.194 297.167L376.955 295.686ZM298.663 295.266L298.439 296.749L298.439 296.749L298.663 295.266ZM263.164 285.994L262.574 287.373L262.574 287.373L263.164 285.994ZM242.702 269.623L241.348 270.269L241.348 270.269L242.702 269.623ZM241.783 260.068L240.299 259.85L240.299 259.85L241.783 260.068ZM245.425 247.654L244.03 247.101L244.03 247.101L245.425 247.654ZM260.481 216.608L261.816 217.293L261.816 217.293L260.481 216.608ZM276.501 181.667L277.911 182.179L277.911 182.179L276.501 181.667ZM282.232 148.325L283.725 148.173L283.725 148.173L282.232 148.325ZM273.91 124.925L275.07 123.974L275.07 123.974L273.91 124.925ZM249.674 112.789L249.902 111.306L249.902 111.306L249.674 112.789ZM199.233 137.091L197.872 136.461L197.872 136.461L199.233 137.091ZM199.938 179.104L198.488 179.489L198.488 179.489L199.938 179.104ZM205.416 197.882L206.86 197.475L206.86 197.475L205.416 197.882ZM207.069 204.841L208.55 204.603L208.55 204.603L207.069 204.841ZM207.049 209.598L208.472 210.072L208.472 210.072L207.049 209.598ZM206.552 210.757L207.843 211.521L207.843 211.521L206.552 210.757ZM205.868 211.448L206.497 212.81L206.498 212.809L205.868 211.448ZM204.917 211.379L204.145 212.665L204.146 212.666L204.917 211.379ZM204.244 210.691L203.01 211.543L203.01 211.543L204.244 210.691ZM203.002 208.149L201.61 208.708L201.61 208.708L203.002 208.149ZM201.519 204.113L200.103 204.61L200.103 204.61L201.519 204.113ZM190.787 178.1L192.114 177.4L192.114 177.4L190.787 178.1ZM125.636 137.38L125.595 135.881L125.595 135.881L125.636 137.38ZM55.1357 165.229L54.0931 164.151L54.0931 164.151L55.1357 165.229ZM40.458 183.449L39.179 182.665L39.179 182.665L40.458 183.449ZM37.1602 189.403L35.8135 188.742L35.8135 188.742L37.1602 189.403ZM36.3848 191.06L35.0125 190.454L35.0125 190.454L36.3848 191.06ZM36.1982 191.493L34.8149 190.913L34.8149 190.913L36.1982 191.493ZM36.1533 191.601L34.7648 191.034L34.7647 191.034L36.1533 191.601ZM36.1426 191.627L34.7516 191.066L34.7515 191.066L36.1426 191.627ZM36.1396 191.634L34.7473 191.076L34.6396 191.345V191.634H36.1396ZM36.1396 191.635L35.7804 193.092L37.6396 193.55V191.635H36.1396ZM35.1777 191.398H33.6777V192.573L34.8185 192.854L35.1777 191.398ZM35.1777 191.396L33.6873 191.227L33.6777 191.311V191.396H35.1777ZM35.1787 191.39L36.6702 191.549L36.6704 191.548L35.1787 191.39ZM35.1807 191.367L36.6718 191.529L36.6718 191.529L35.1807 191.367ZM35.1904 191.278L33.7001 191.108L33.7001 191.108L35.1904 191.278ZM35.2324 190.93L33.7438 190.746L33.7438 190.746L35.2324 190.93ZM35.4131 189.595L33.9286 189.38L33.9286 189.38L35.4131 189.595ZM36.2617 184.619L34.7889 184.335L34.7889 184.335L36.2617 184.619ZM40.6709 167.536L39.2433 167.075L39.2433 167.075L40.6709 167.536ZM66.4883 121.551L65.3835 120.537L65.3835 120.537L66.4883 121.551ZM385.304 181.96L385.398 180.463L385.398 180.463L385.304 181.96ZM333.629 181.289L333.447 179.8L333.447 179.8L333.629 181.289ZM297.287 201.405L295.979 200.672L295.979 200.672L297.287 201.405ZM289.453 246.186L288.033 246.67L288.033 246.67L289.453 246.186ZM328.542 267.372L328.405 268.865L328.405 268.865L328.542 267.372ZM398.523 263.912L398.346 262.422L398.346 262.422L398.523 263.912ZM452.129 254.603L452.513 256.053L452.513 256.053L452.129 254.603ZM477.826 244.961L478.56 246.27L478.56 246.27L477.826 244.961ZM491.295 230.554L492.75 230.918L492.75 230.918L491.295 230.554ZM483.505 214.896L484.495 213.769L484.495 213.769L483.505 214.896ZM458.257 199.94L458.862 198.567L458.862 198.567L458.257 199.94ZM206.463 46.4438L206.798 47.9058C286.375 29.6421 337.766 23.6521 415.555 47.8857L416.001 46.4536L416.447 45.0215C337.937 20.5631 285.945 26.6627 206.127 44.9819L206.463 46.4438ZM416.001 46.4536L415.555 47.8857C463.471 62.8131 497.165 104.6 527.95 142.247L529.111 141.297L530.273 140.348C499.635 102.881 465.383 60.2666 416.447 45.0215L416.001 46.4536ZM529.111 141.297L527.95 142.247C543.303 161.022 557.947 178.778 573.235 191.468L574.193 190.314L575.151 189.16C560.129 176.69 545.671 159.178 530.273 140.348L529.111 141.297ZM574.193 190.314L573.235 191.468C588.539 204.171 604.609 211.902 622.812 210.437L622.691 208.942L622.571 207.447C605.459 208.824 590.144 201.605 575.151 189.16L574.193 190.314ZM622.691 208.942L622.812 210.437C649.04 208.327 661.945 202.803 672.273 197.147L671.553 195.832L670.832 194.516C660.866 199.973 648.369 205.371 622.571 207.447L622.691 208.942ZM671.553 195.832L672.273 197.147C682.554 191.518 690.018 185.938 705.641 183.443L705.404 181.961L705.168 180.48C688.904 183.077 680.892 189.007 670.832 194.516L671.553 195.832ZM705.404 181.961L705.641 183.443C723.695 180.56 744.752 180.443 761.297 181.724L761.413 180.228L761.529 178.732C744.82 177.439 723.517 177.55 705.168 180.48L705.404 181.961ZM761.413 180.228L761.297 181.724C769.571 182.364 776.683 183.351 781.707 184.504L782.043 183.042L782.379 181.581C777.156 180.381 769.882 179.379 761.529 178.732L761.413 180.228ZM782.043 183.042L781.707 184.504C784.227 185.083 786.173 185.693 787.468 186.299L788.104 184.941L788.741 183.583C787.161 182.843 784.974 182.177 782.379 181.581L782.043 183.042ZM788.104 184.941L787.468 186.299C788.118 186.604 788.552 186.885 788.808 187.121L789.825 186.018L790.842 184.915C790.267 184.385 789.525 183.95 788.741 183.583L788.104 184.941ZM789.825 186.018L788.808 187.12C788.93 187.233 788.993 187.32 789.022 187.372C789.046 187.416 789.037 187.418 789.037 187.394L790.537 187.394L792.037 187.394C792.037 186.263 791.402 185.432 790.842 184.916L789.825 186.018ZM790.537 187.394L789.037 187.393C789.037 187.256 789.079 187.136 789.127 187.053C789.17 186.98 789.211 186.945 789.22 186.938L790.173 188.096L791.126 189.255C791.499 188.947 792.037 188.33 792.037 187.395L790.537 187.394ZM790.173 188.096L789.22 186.937C789.229 186.93 789.217 186.942 789.171 186.966C789.125 186.989 789.061 187.018 788.974 187.05L789.495 188.457L790.016 189.863C790.339 189.744 790.756 189.559 791.125 189.255L790.173 188.096ZM789.495 188.457L788.974 187.05C788.603 187.187 787.992 187.328 787.114 187.462L787.342 188.945L787.569 190.428C788.494 190.286 789.35 190.11 790.016 189.863L789.495 188.457ZM787.342 188.945L787.115 187.462C785.375 187.729 782.823 187.942 779.603 188.155L779.702 189.652L779.801 191.149C783.012 190.936 785.685 190.716 787.569 190.428L787.342 188.945ZM779.702 189.652L779.603 188.155C773.194 188.58 764.225 189.003 754.207 189.878L754.338 191.373L754.468 192.867C764.447 191.995 773.317 191.579 779.801 191.149L779.702 189.652ZM754.338 191.373L754.207 189.878C734.196 191.627 709.726 195.198 692.422 204.359L693.124 205.685L693.826 207.011C710.542 198.16 734.463 194.615 754.468 192.867L754.338 191.373ZM693.124 205.685L692.422 204.359C680.941 210.438 675.002 215.012 669.531 220.099L670.553 221.198L671.574 222.296C676.84 217.399 682.561 212.975 693.826 207.011L693.124 205.685ZM670.553 221.198L669.531 220.099C664.054 225.193 659.21 230.629 649.671 238.659L650.637 239.806L651.603 240.954C661.19 232.885 666.322 227.181 671.574 222.296L670.553 221.198ZM650.637 239.806L649.671 238.659C639.243 247.436 632.541 250.597 627.773 253.658L628.583 254.92L629.393 256.183C633.913 253.282 640.978 249.897 651.603 240.954L650.637 239.806ZM628.583 254.92L627.773 253.658C625.382 255.193 623.452 256.721 621.88 258.931L623.103 259.8L624.325 260.67C625.579 258.906 627.148 257.624 629.393 256.183L628.583 254.92ZM623.103 259.8L621.88 258.931C620.314 261.133 619.151 263.943 618.162 267.969L619.619 268.327L621.076 268.684C622.016 264.857 623.06 262.448 624.325 260.67L623.103 259.8ZM619.619 268.327L618.162 267.969C617.045 272.518 617.841 277.327 619.971 282.198L621.346 281.597L622.72 280.996C620.762 276.52 620.162 272.403 621.076 268.684L619.619 268.327ZM621.346 281.597L619.971 282.198C622.101 287.066 625.587 292.054 629.944 297.017L631.071 296.027L632.198 295.037C627.956 290.205 624.681 285.479 622.72 280.996L621.346 281.597ZM631.071 296.027L629.944 297.017C638.659 306.941 650.987 316.906 663.376 325.758L664.248 324.538L665.12 323.317C652.794 314.509 640.685 304.703 632.198 295.037L631.071 296.027ZM664.248 324.538L663.376 325.758C675.774 334.617 688.28 342.396 697.374 347.941L698.155 346.661L698.936 345.38C689.858 339.844 677.427 332.111 665.12 323.317L664.248 324.538ZM698.155 346.661L697.374 347.941C701.93 350.719 705.611 352.926 708.014 354.438L708.812 353.168L709.611 351.899C707.185 350.372 703.457 348.137 698.936 345.38L698.155 346.661ZM708.812 353.168L708.014 354.438C709.222 355.198 710.068 355.759 710.533 356.117L711.448 354.929L712.364 353.741C711.771 353.284 710.81 352.653 709.611 351.899L708.812 353.168ZM711.448 354.929L710.533 356.117C710.65 356.208 710.726 356.272 710.772 356.314L711.793 355.215L712.814 354.116C712.671 353.983 712.513 353.856 712.364 353.741L711.448 354.929ZM711.793 355.215L710.772 356.314C710.782 356.324 710.79 356.332 710.796 356.337C710.799 356.34 710.801 356.343 710.803 356.344C710.804 356.346 710.805 356.346 710.805 356.346C710.805 356.346 710.804 356.345 710.802 356.343C710.8 356.341 710.797 356.337 710.794 356.333C710.787 356.324 710.775 356.307 710.761 356.284L712.043 355.505L713.325 354.726C713.149 354.437 712.93 354.224 712.814 354.117L711.793 355.215ZM712.043 355.505L710.76 356.283C710.739 356.248 710.668 356.126 710.647 355.939L712.138 355.773L713.628 355.607C713.581 355.18 713.412 354.871 713.326 354.727L712.043 355.505ZM712.138 355.773L710.647 355.939C710.622 355.716 710.677 355.421 710.902 355.184L711.99 356.216L713.079 357.249C713.559 356.742 713.685 356.112 713.628 355.607L712.138 355.773ZM711.99 356.216L710.903 355.183C711.089 354.987 711.296 354.934 711.37 354.918L711.678 356.386L711.986 357.854C712.206 357.808 712.673 357.675 713.078 357.249L711.99 356.216ZM711.678 356.386L711.371 354.918C711.415 354.909 711.451 354.905 711.475 354.904C711.499 354.902 711.516 354.903 711.523 354.903L711.463 356.402L711.403 357.901C711.532 357.906 711.742 357.905 711.985 357.854L711.678 356.386ZM711.463 356.402L711.523 354.903C696.768 354.313 681.945 348.332 667.401 339.547L666.625 340.831L665.849 342.115C680.609 351.03 695.938 357.282 711.403 357.901L711.463 356.402ZM666.625 340.831L667.401 339.547C652.86 330.764 638.671 319.224 625.186 307.603L624.207 308.739L623.228 309.875C636.735 321.515 651.082 333.194 665.849 342.115L666.625 340.831ZM624.207 308.739L625.186 307.603C611.729 296.005 598.937 284.293 587.291 275.275L586.373 276.461L585.455 277.647C597.019 286.601 609.666 298.187 623.228 309.875L624.207 308.739ZM586.373 276.461L587.291 275.275C575.678 266.284 564.982 259.785 555.674 258.818L555.519 260.31L555.364 261.802C563.734 262.672 573.825 268.643 585.455 277.647L586.373 276.461ZM555.519 260.31L555.674 258.818C525.605 255.695 491.719 262.825 459.973 271.567L460.371 273.013L460.769 274.459C492.48 265.727 525.896 258.741 555.364 261.802L555.519 260.31ZM460.371 273.013L459.973 271.567C444.097 275.939 428.698 280.732 414.584 284.857L415.005 286.296L415.426 287.736C429.612 283.59 444.919 278.824 460.769 274.459L460.371 273.013ZM415.005 286.296L414.584 284.857C400.447 288.989 387.593 292.453 376.717 294.205L376.955 295.686L377.194 297.167C388.273 295.382 401.287 291.869 415.426 287.736L415.005 286.296ZM376.955 295.686L376.717 294.205C355.497 297.623 325.318 297.776 298.887 293.783L298.663 295.266L298.439 296.749C325.147 300.784 355.639 300.639 377.194 297.167L376.955 295.686ZM298.663 295.266L298.887 293.783C285.673 291.786 273.442 288.76 263.754 284.615L263.164 285.994L262.574 287.373C272.58 291.654 285.083 294.731 298.439 296.749L298.663 295.266ZM263.164 285.994L263.754 284.615C254.033 280.455 247.046 275.24 244.056 268.976L242.702 269.623L241.348 270.269C244.814 277.529 252.635 283.12 262.574 287.373L263.164 285.994ZM242.702 269.623L244.056 268.977C242.978 266.719 242.748 263.816 243.267 260.286L241.783 260.068L240.299 259.85C239.735 263.687 239.914 267.263 241.348 270.269L242.702 269.623ZM241.783 260.068L243.267 260.286C243.786 256.762 245.038 252.705 246.819 248.206L245.425 247.654L244.03 247.101C242.209 251.699 240.866 256 240.299 259.85L241.783 260.068ZM245.425 247.654L246.819 248.206C250.386 239.201 255.994 228.623 261.816 217.293L260.481 216.608L259.147 215.922C253.368 227.169 247.666 237.922 244.03 247.101L245.425 247.654ZM260.481 216.608L261.816 217.293C267.623 205.993 273.625 193.974 277.911 182.179L276.501 181.667L275.091 181.154C270.878 192.751 264.956 204.618 259.147 215.922L260.481 216.608ZM276.501 181.667L277.911 182.179C282.193 170.393 284.796 158.737 283.725 148.173L282.232 148.325L280.74 148.476C281.745 158.382 279.311 169.538 275.091 181.154L276.501 181.667ZM282.232 148.325L283.725 148.173C282.765 138.711 280.33 130.392 275.07 123.974L273.91 124.925L272.75 125.876C277.483 131.65 279.809 139.3 280.74 148.476L282.232 148.325ZM273.91 124.925L275.07 123.974C269.793 117.535 261.774 113.133 249.902 111.306L249.674 112.789L249.446 114.271C260.78 116.015 268.052 120.144 272.75 125.876L273.91 124.925ZM249.674 112.789L249.902 111.306C229.07 108.101 206.819 117.155 197.872 136.461L199.233 137.091L200.594 137.722C208.858 119.89 229.625 111.222 249.446 114.271L249.674 112.789ZM199.233 137.091L197.872 136.461C192.009 149.113 194.768 165.482 198.488 179.489L199.938 179.104L201.387 178.719C197.659 164.681 195.231 149.296 200.594 137.722L199.233 137.091ZM199.938 179.104L198.488 179.489C200.345 186.483 202.505 193.093 203.972 198.29L205.416 197.882L206.86 197.475C205.326 192.044 203.256 185.755 201.387 178.719L199.938 179.104ZM205.416 197.882L203.972 198.29C204.715 200.919 205.287 203.205 205.588 205.08L207.069 204.841L208.55 204.603C208.22 202.551 207.609 200.129 206.86 197.475L205.416 197.882ZM207.069 204.841L205.588 205.08C205.896 206.992 205.894 208.32 205.626 209.124L207.049 209.598L208.472 210.072C208.985 208.531 208.868 206.578 208.55 204.603L207.069 204.841ZM207.049 209.598L205.626 209.124C205.485 209.546 205.361 209.823 205.261 209.994L206.552 210.757L207.843 211.521C208.097 211.091 208.3 210.589 208.472 210.072L207.049 209.598ZM206.552 210.757L205.261 209.993C205.238 210.032 205.218 210.063 205.2 210.087C205.183 210.11 205.171 210.124 205.165 210.13C205.152 210.144 205.175 210.116 205.239 210.086L205.868 211.448L206.498 212.809C207.198 212.486 207.611 211.912 207.843 211.521L206.552 210.757ZM205.868 211.448L205.239 210.086C205.316 210.05 205.415 210.032 205.514 210.041C205.606 210.05 205.665 210.079 205.688 210.093L204.917 211.379L204.146 212.666C204.771 213.041 205.633 213.208 206.497 212.81L205.868 211.448ZM204.917 211.379L205.689 210.093C205.705 210.103 205.689 210.096 205.645 210.05C205.601 210.004 205.546 209.936 205.478 209.838L204.244 210.691L203.01 211.543C203.251 211.893 203.618 212.349 204.145 212.665L204.917 211.379ZM204.244 210.691L205.478 209.839C205.187 209.417 204.831 208.677 204.394 207.59L203.002 208.149L201.61 208.708C202.052 209.809 202.512 210.823 203.01 211.543L204.244 210.691ZM203.002 208.149L204.394 207.59C203.965 206.52 203.485 205.185 202.934 203.616L201.519 204.113L200.103 204.61C200.654 206.177 201.153 207.57 201.61 208.708L203.002 208.149ZM201.519 204.113L202.934 203.616C200.737 197.356 197.481 187.576 192.114 177.4L190.787 178.1L189.46 178.8C194.705 188.743 197.89 198.304 200.103 204.61L201.519 204.113ZM190.787 178.1L192.114 177.4C181.37 157.03 162.056 134.889 125.595 135.881L125.636 137.38L125.677 138.88C160.529 137.931 178.99 158.948 189.46 178.8L190.787 178.1ZM125.636 137.38L125.595 135.881C90.8352 136.827 68.1167 150.591 54.0931 164.151L55.1357 165.229L56.1784 166.307C69.7317 153.203 91.757 139.803 125.677 138.88L125.636 137.38ZM55.1357 165.229L54.0931 164.151C47.0883 170.924 42.2593 177.638 39.179 182.665L40.458 183.449L41.737 184.232C44.7116 179.378 49.3885 172.873 56.1784 166.307L55.1357 165.229ZM40.458 183.449L39.179 182.665C37.6386 185.179 36.5344 187.273 35.8135 188.742L37.1602 189.403L38.5069 190.063C39.1907 188.669 40.2503 186.659 41.737 184.232L40.458 183.449ZM37.1602 189.403L35.8135 188.742C35.453 189.477 35.1882 190.056 35.0125 190.454L36.3848 191.06L37.757 191.666C37.9173 191.303 38.165 190.76 38.5069 190.063L37.1602 189.403ZM36.3848 191.06L35.0125 190.454C34.9244 190.654 34.8588 190.808 34.8149 190.913L36.1982 191.493L37.5816 192.073C37.6189 191.984 37.6771 191.847 37.757 191.666L36.3848 191.06ZM36.1982 191.493L34.8149 190.913C34.7929 190.965 34.7762 191.006 34.7648 191.034L36.1533 191.601L37.5419 192.168C37.55 192.149 37.5632 192.116 37.5816 192.073L36.1982 191.493ZM36.1533 191.601L34.7647 191.034C34.7605 191.044 34.7554 191.057 34.7516 191.066L36.1426 191.627L37.5336 192.189C37.5336 192.189 37.5336 192.189 37.5338 192.188C37.5339 192.188 37.534 192.188 37.5343 192.187C37.5347 192.186 37.5353 192.185 37.536 192.183C37.5376 192.179 37.5395 192.174 37.5419 192.168L36.1533 191.601ZM36.1426 191.627L34.7515 191.066C34.756 191.055 34.7599 191.046 34.7625 191.04C34.7651 191.034 34.7672 191.029 34.7678 191.028C34.7679 191.027 34.7683 191.026 34.7679 191.027C34.7677 191.028 34.7667 191.03 34.7656 191.033C34.7645 191.035 34.7624 191.04 34.7597 191.046C34.7584 191.049 34.7566 191.053 34.7547 191.058C34.7527 191.063 34.7502 191.069 34.7473 191.076L36.1396 191.634L37.5319 192.192C37.5292 192.199 37.5267 192.205 37.5248 192.21C37.5229 192.214 37.5213 192.218 37.52 192.221C37.5175 192.227 37.5156 192.232 37.5147 192.234C37.5142 192.235 37.5138 192.236 37.5136 192.236C37.5133 192.237 37.5131 192.237 37.5131 192.237C37.5129 192.238 37.5135 192.236 37.514 192.235C37.5151 192.233 37.5177 192.227 37.5209 192.219C37.5241 192.212 37.5285 192.201 37.5337 192.189L36.1426 191.627ZM36.1396 191.634H34.6396V191.635H36.1396H37.6396V191.634H36.1396ZM36.1396 191.635L36.4989 190.179L35.537 189.942L35.1777 191.398L34.8185 192.854L35.7804 193.092L36.1396 191.635ZM35.1777 191.398H36.6777V191.396H35.1777H33.6777V191.398H35.1777ZM35.1777 191.396L36.6682 191.565C36.6649 191.593 36.6615 191.617 36.6589 191.633C36.6563 191.649 36.6539 191.662 36.6525 191.67C36.6511 191.677 36.65 191.683 36.6498 191.684C36.6497 191.684 36.6495 191.685 36.6497 191.684C36.6498 191.684 36.6501 191.683 36.6504 191.681C36.6517 191.674 36.655 191.657 36.6586 191.635C36.6623 191.613 36.6666 191.583 36.6702 191.549L35.1787 191.39L33.6872 191.231C33.6907 191.198 33.6948 191.17 33.6983 191.149C33.7017 191.128 33.7049 191.112 33.706 191.106C33.7062 191.105 33.7065 191.104 33.7065 191.103C33.7067 191.103 33.7064 191.104 33.7063 191.104C33.706 191.106 33.7048 191.112 33.7033 191.12C33.7019 191.128 33.6994 191.141 33.6967 191.158C33.6941 191.174 33.6906 191.198 33.6873 191.227L35.1777 191.396ZM35.1787 191.39L36.6704 191.548C36.6718 191.535 36.6728 191.523 36.6735 191.516C36.6742 191.508 36.6747 191.501 36.675 191.497C36.6753 191.493 36.6755 191.49 36.6756 191.488C36.6756 191.488 36.6756 191.488 36.6757 191.487C36.6757 191.487 36.6757 191.487 36.6757 191.487C36.6757 191.487 36.6757 191.487 36.6757 191.487C36.6755 191.489 36.6743 191.506 36.6718 191.529L35.1807 191.367L33.6895 191.204C33.6859 191.237 33.684 191.264 33.6833 191.273C33.6832 191.275 33.6831 191.276 33.6831 191.277C33.683 191.278 33.683 191.277 33.683 191.278C33.6829 191.278 33.6831 191.277 33.6832 191.274C33.6834 191.272 33.6838 191.267 33.6843 191.26C33.6849 191.254 33.6858 191.244 33.687 191.232L35.1787 191.39ZM35.1807 191.367L36.6718 191.529C36.6747 191.503 36.6769 191.482 36.6808 191.448L35.1904 191.278L33.7001 191.108C33.6951 191.152 33.691 191.19 33.6895 191.204L35.1807 191.367ZM35.1904 191.278L36.6808 191.448C36.6888 191.377 36.7022 191.267 36.721 191.115L35.2324 190.93L33.7438 190.746C33.7249 190.898 33.7099 191.021 33.7001 191.108L35.1904 191.278ZM35.2324 190.93L36.721 191.115C36.7576 190.82 36.8149 190.381 36.8976 189.81L35.4131 189.595L33.9286 189.38C33.8429 189.972 33.7828 190.431 33.7438 190.746L35.2324 190.93ZM35.4131 189.595L36.8976 189.81C37.063 188.669 37.3302 186.999 37.7346 184.903L36.2617 184.619L34.7889 184.335C34.375 186.48 34.1002 188.196 33.9286 189.38L35.4131 189.595ZM36.2617 184.619L37.7346 184.903C38.5435 180.709 39.902 174.809 42.0985 167.996L40.6709 167.536L39.2433 167.075C37.0031 174.024 35.6165 180.044 34.7889 184.335L36.2617 184.619ZM40.6709 167.536L42.0985 167.996C46.4949 154.359 54.2321 137.115 67.5931 122.566L66.4883 121.551L65.3835 120.537C51.6296 135.514 43.7178 153.196 39.2433 167.075L40.6709 167.536ZM66.4883 121.551L67.5931 122.566C79.6505 109.436 133.873 64.6432 206.798 47.9058L206.463 46.4438L206.127 44.9819C132.507 61.8787 77.7732 107.045 65.3835 120.537L66.4883 121.551ZM385.304 181.96L385.398 180.463C368.023 179.369 349.434 177.848 333.447 179.8L333.629 181.289L333.811 182.778C349.452 180.868 367.698 182.355 385.209 183.457L385.304 181.96ZM333.629 181.289L333.447 179.8C317.443 181.754 303.497 187.254 295.979 200.672L297.287 201.405L298.596 202.138C305.421 189.958 318.178 184.686 333.811 182.778L333.629 181.289ZM297.287 201.405L295.979 200.672C286.101 218.3 282.776 231.244 288.033 246.67L289.453 246.186L290.873 245.702C286.013 231.442 288.903 219.437 298.596 202.138L297.287 201.405ZM289.453 246.186L288.033 246.67C292.957 261.117 308.667 267.058 328.405 268.865L328.542 267.372L328.679 265.878C309.022 264.078 295.155 258.267 290.873 245.702L289.453 246.186ZM328.542 267.372L328.405 268.865C348.325 270.689 373.407 268.412 398.701 265.401L398.523 263.912L398.346 262.422C373.034 265.435 348.245 267.67 328.679 265.878L328.542 267.372ZM398.523 263.912L398.701 265.401C411.288 263.903 433.116 261.191 452.513 256.053L452.129 254.603L451.745 253.153C432.577 258.23 410.942 260.923 398.346 262.422L398.523 263.912ZM452.129 254.603L452.513 256.053C462.204 253.486 471.398 250.287 478.56 246.27L477.826 244.961L477.092 243.653C470.249 247.491 461.332 250.614 451.745 253.153L452.129 254.603ZM477.826 244.961L478.56 246.27C485.657 242.289 491.158 237.282 492.75 230.918L491.295 230.554L489.84 230.19C488.554 235.329 483.969 239.797 477.092 243.653L477.826 244.961ZM491.295 230.554L492.75 230.918C494.246 224.938 490.457 219.004 484.495 213.769L483.505 214.896L482.515 216.023C488.346 221.143 490.892 225.985 489.84 230.19L491.295 230.554ZM483.505 214.896L484.495 213.769C478.403 208.421 469.408 203.213 458.862 198.567L458.257 199.94L457.652 201.313C468.064 205.899 476.749 210.96 482.515 216.023L483.505 214.896ZM458.257 199.94L458.862 198.567C437.749 189.267 409.935 182.009 385.398 180.463L385.304 181.96L385.209 183.457C409.369 184.979 436.839 192.144 457.652 201.313L458.257 199.94Z" fill="black"/>
<ellipse cx="117.83" cy="224.575" rx="47.9719" ry="47.9733" fill="white"/>
<ellipse cx="121.429" cy="224.576" rx="33.5803" ry="33.5813" fill="#6B62A4"/>
<ellipse cx="120.948" cy="224.096" rx="26.3846" ry="26.3853" fill="#130D0D"/>
<g filter="url(#filter1_f_135_384)">
<ellipse cx="102.24" cy="245.684" rx="9.59439" ry="9.59465" fill="white"/>
</g>
<g filter="url(#filter2_f_135_384)">
<ellipse cx="140.137" cy="202.988" rx="7.19579" ry="7.19599" fill="white"/>
</g>
<g filter="url(#filter3_f_135_384)">
<path d="M46.4739 316.924C30.3975 324.962 15.8905 316.924 6.29543 307.929C3.90936 305.692 22.2408 311.744 30.3975 313.783C37.5934 315.582 49.6013 315.36 46.4739 316.924Z" fill="#D9D9D9" fill-opacity="0.5"/>
</g>
<g filter="url(#filter4_f_135_384)">
<path d="M58.8085 317.659C52.1545 325.454 22.4874 319.952 29.083 319.323C35.6785 318.695 50.4196 317.059 57.0146 308.064C59.5603 304.592 61.6036 314.384 58.8085 317.659Z" fill="#161139" fill-opacity="0.7"/>
</g>
<g filter="url(#filter5_d_135_384)">
<path fill-rule="evenodd" clip-rule="evenodd" d="M233.896 309.793C216.643 345.597 354.426 399.743 354.426 399.743C354.426 399.743 298.962 361.365 286.37 346.995C273.777 332.626 281.572 306.79 281.572 306.79C274.024 305.887 267.701 304.846 262.365 303.967C245.626 301.209 238.591 300.051 233.896 309.793Z" fill="#E329C7"/>
<path d="M354.426 399.743C354.426 399.743 342.059 369.754 345.974 361.365C350.172 352.37 356.352 351.128 357.368 340.976C358.567 328.983 346.063 324.329 348.373 315.19C349.456 310.907 357.572 307.016 353.17 307.395C321.415 310.129 298.436 308.806 281.572 306.79C281.572 306.79 273.777 332.626 286.37 346.995C298.962 361.365 354.426 399.743 354.426 399.743Z" fill="#E329C7"/>
<path d="M354.426 399.743C354.426 399.743 216.643 345.597 233.896 309.793C238.591 300.051 245.626 301.209 262.365 303.967C267.701 304.846 274.024 305.887 281.572 306.79M354.426 399.743C354.426 399.743 342.059 369.754 345.974 361.365C350.172 352.37 356.352 351.128 357.368 340.976C358.567 328.983 346.063 324.329 348.373 315.19C349.456 310.907 357.572 307.016 353.17 307.395C321.415 310.129 298.436 308.806 281.572 306.79M354.426 399.743C354.426 399.743 298.962 361.365 286.37 346.995C273.777 332.626 281.572 306.79 281.572 306.79" stroke="black" stroke-width="3"/>
</g>
<mask id="mask0_135_384" style="mask-type:alpha" maskUnits="userSpaceOnUse" x="169" y="431" width="127" height="100">
<path d="M292.173 529.912C292.173 529.912 154.39 475.766 171.643 439.962C176.338 430.219 183.373 431.378 200.112 434.135C205.448 435.015 211.771 436.056 219.319 436.959M292.173 529.912C292.173 529.912 279.806 499.923 283.721 491.534C287.919 482.539 294.099 481.297 295.115 471.145C296.314 459.152 283.81 454.498 286.12 445.359C287.203 441.075 295.319 437.185 290.917 437.564C259.162 440.298 236.183 438.975 219.319 436.959M292.173 529.912C292.173 529.912 236.709 491.534 224.117 477.164C211.524 462.795 219.319 436.959 219.319 436.959" stroke="black"/>
</mask>
<g mask="url(#mask0_135_384)">
</g>
<defs>
<filter id="filter0_d_135_384" x="0" y="34.7808" width="799.702" height="396.604" filterUnits="userSpaceOnUse" color-interpolation-filters="sRGB">
<feFlood flood-opacity="0" result="BackgroundImageFix"/>
<feColorMatrix in="SourceAlpha" type="matrix" values="0 0 0 0 0 0 0 0 0 0 0 0 0 0 0 0 0 0 127 0" result="hardAlpha"/>
<feOffset dx="5" dy="10"/>
<feGaussianBlur stdDeviation="2"/>
<feComposite in2="hardAlpha" operator="out"/>
<feColorMatrix type="matrix" values="0 0 0 0 0 0 0 0 0 0 0 0 0 0 0 0 0 0 0.25 0"/>
<feBlend mode="normal" in2="BackgroundImageFix" result="effect1_dropShadow_135_384"/>
<feBlend mode="normal" in="SourceGraphic" in2="effect1_dropShadow_135_384" result="shape"/>
</filter>
<filter id="filter1_f_135_384" x="90.6455" y="234.089" width="23.1885" height="23.1895" filterUnits="userSpaceOnUse" color-interpolation-filters="sRGB">
<feFlood flood-opacity="0" result="BackgroundImageFix"/>
<feBlend mode="normal" in="SourceGraphic" in2="BackgroundImageFix" result="shape"/>
<feGaussianBlur stdDeviation="1" result="effect1_foregroundBlur_135_384"/>
</filter>
<filter id="filter2_f_135_384" x="130.941" y="193.792" width="18.3916" height="18.3921" filterUnits="userSpaceOnUse" color-interpolation-filters="sRGB">
<feFlood flood-opacity="0" result="BackgroundImageFix"/>
<feBlend mode="normal" in="SourceGraphic" in2="BackgroundImageFix" result="shape"/>
<feGaussianBlur stdDeviation="1" result="effect1_foregroundBlur_135_384"/>
</filter>
<filter id="filter3_f_135_384" x="4.08301" y="305.44" width="44.9004" height="16.7891" filterUnits="userSpaceOnUse" color-interpolation-filters="sRGB">
<feFlood flood-opacity="0" result="BackgroundImageFix"/>
<feBlend mode="normal" in="SourceGraphic" in2="BackgroundImageFix" result="shape"/>
<feGaussianBlur stdDeviation="1" result="effect1_foregroundBlur_135_384"/>
</filter>
<filter id="filter4_f_135_384" x="27.6328" y="306.83" width="33.0195" height="15.4639" filterUnits="userSpaceOnUse" color-interpolation-filters="sRGB">
<feFlood flood-opacity="0" result="BackgroundImageFix"/>
<feBlend mode="normal" in="SourceGraphic" in2="BackgroundImageFix" result="shape"/>
<feGaussianBlur stdDeviation="0.25" result="effect1_foregroundBlur_135_384"/>
</filter>
<filter id="filter5_d_135_384" x="230.901" y="300.522" width="128.047" height="105.906" filterUnits="userSpaceOnUse" color-interpolation-filters="sRGB">
<feFlood flood-opacity="0" result="BackgroundImageFix"/>
<feColorMatrix in="SourceAlpha" type="matrix" values="0 0 0 0 0 0 0 0 0 0 0 0 0 0 0 0 0 0 127 0" result="hardAlpha"/>
<feOffset dy="4"/>
<feComposite in2="hardAlpha" operator="out"/>
<feColorMatrix type="matrix" values="0 0 0 0 0.0862745 0 0 0 0 0.0666667 0 0 0 0 0.223529 0 0 0 0.5 0"/>
<feBlend mode="normal" in2="BackgroundImageFix" result="effect1_dropShadow_135_384"/>
<feBlend mode="normal" in="SourceGraphic" in2="effect1_dropShadow_135_384" result="shape"/>
</filter>
</defs>
</svg>
