<svg width="486" height="252" viewBox="0 0 486 252" fill="none" xmlns="http://www.w3.org/2000/svg">
<g clip-path="url(#clip0_83_747)">
<path d="M80.143 29.1395C65.8819 39.3259 51.0021 55.3617 51 62.7094C50.9986 67.8739 70.5578 44.6334 114.087 32.4599C163.52 18.6356 233.98 22.2627 255.744 30.2466C285.995 41.3431 330.262 97.0166 330.262 97.0166C330.262 97.0166 364.708 79.6786 363.094 74.5141C361.48 69.3495 319.927 4.42381 221.431 0.365962C122.935 -3.69189 82.7253 27.295 80.143 29.1395Z" fill="white" stroke="black"/>
<g filter="url(#filter0_d_83_747)">
<path d="M16.2315 193.225C8.17636 189.198 1.66239 188.459 0.123868 178.073C-1.35157 168.112 10.7521 161.525 15.2556 144.503C20.038 126.427 17.824 115.729 24.0958 98.3912C30.9003 79.5806 40.2812 72.2426 55.8295 59.6572C78.6741 41.1657 95.8768 35.8753 124.068 27.5633C153.343 18.9316 180.132 17.1242 201.168 18.3409C230.957 20.0639 252.076 23.5725 269.783 34.5723C294.13 49.697 311.974 72.5049 333.233 97.6534C341.341 107.245 356.105 127.165 379.346 127.165C407.013 127.165 411.427 113.03 434.311 110.565C453.96 108.448 486.687 109.827 484.482 113.147C480.414 119.272 465.299 133.436 459.765 147.454C457.332 153.618 460.123 155.957 457.929 162.21C455.13 170.189 449.693 168.71 444.272 177.335C436.156 190.246 443.262 205.926 440.214 212.749C433.951 226.767 370.861 176.228 370.861 176.228C370.861 176.228 327.428 206.976 296.343 220.864C265.601 234.6 247.28 240.785 214.079 247.056C181.654 253.181 158.375 252.589 126.281 247.794C105.459 244.682 90.1291 240.785 66.8885 228.242C54.9248 221.786 47.1259 210.354 35.1632 203.895C27.1808 199.586 15.8966 202.671 14.0181 195.439C13.4722 193.336 17.7071 193.963 16.2315 193.225Z" fill="white"/>
<path d="M16.2315 193.225C8.17636 189.198 1.66239 188.459 0.123868 178.073C-1.35157 168.112 10.7521 161.525 15.2556 144.503C20.038 126.427 17.824 115.729 24.0958 98.3912C30.9003 79.5806 40.2812 72.2426 55.8295 59.6572C78.6741 41.1657 95.8768 35.8753 124.068 27.5633C153.343 18.9316 180.132 17.1242 201.168 18.3409C230.957 20.0639 252.076 23.5725 269.783 34.5723C294.13 49.697 311.974 72.5049 333.233 97.6534C341.341 107.245 356.105 127.165 379.346 127.165C407.013 127.165 411.427 113.03 434.311 110.565C453.96 108.448 486.687 109.827 484.482 113.147C480.414 119.272 465.299 133.436 459.765 147.454C457.332 153.618 460.123 155.957 457.929 162.21C455.13 170.189 449.693 168.71 444.272 177.335C436.156 190.246 443.262 205.926 440.214 212.749C433.951 226.767 370.861 176.228 370.861 176.228C370.861 176.228 327.428 206.976 296.343 220.864C265.601 234.6 247.28 240.785 214.079 247.056C181.654 253.181 158.375 252.589 126.281 247.794C105.459 244.682 90.1291 240.785 66.8885 228.242C54.9248 221.786 47.1259 210.354 35.1632 203.895C27.1808 199.586 15.8966 202.671 14.0181 195.439C13.4722 193.336 17.7071 193.963 16.2315 193.225Z" stroke="black"/>
</g>
<path d="M125.521 27.8866C174.566 16.6308 206.404 12.9051 254.527 27.8964C284.384 37.1975 305.32 63.2107 324.204 86.3026C333.666 97.8728 342.606 108.706 351.912 116.431C361.211 124.149 370.816 128.714 381.608 127.846C397.583 126.56 405.372 123.209 411.591 119.804C417.833 116.386 422.628 112.823 432.478 111.25C443.694 109.459 456.74 109.389 466.979 110.182C472.099 110.578 476.535 111.191 479.699 111.918C481.277 112.28 482.564 112.677 483.467 113.1C483.916 113.31 484.298 113.539 484.574 113.794C484.847 114.045 485.073 114.377 485.073 114.782C485.073 115.056 484.918 115.249 484.779 115.363C484.643 115.475 484.474 115.554 484.308 115.616C483.97 115.741 483.502 115.841 482.944 115.927C481.821 116.099 480.206 116.232 478.229 116.363C474.258 116.627 468.777 116.884 462.629 117.421C450.32 118.496 435.471 120.684 425.044 126.204C418.061 129.901 414.489 132.659 411.199 135.718C407.913 138.773 404.827 142.218 398.94 147.172C392.452 152.633 388.193 154.661 385.353 156.484C383.936 157.394 382.883 158.243 382.034 159.436C381.183 160.634 380.511 162.212 379.921 164.615C379.309 167.105 379.726 169.806 380.973 172.655C382.22 175.506 384.286 178.478 386.924 181.482C392.2 187.491 399.704 193.563 407.302 198.992C414.895 204.418 422.561 209.186 428.149 212.594C430.939 214.295 433.221 215.663 434.708 216.599C435.448 217.064 436.011 217.435 436.345 217.692C436.429 217.757 436.505 217.82 436.569 217.88C436.626 217.933 436.702 218.009 436.757 218.1C436.784 218.144 436.829 218.23 436.842 218.343C436.857 218.476 436.822 218.64 436.699 218.769C436.594 218.88 436.472 218.916 436.407 218.93C436.337 218.944 436.273 218.945 436.228 218.943C426.887 218.57 417.58 214.789 408.553 209.336C399.523 203.882 390.735 196.731 382.431 189.575C374.113 182.407 366.298 175.249 359.164 169.725C352.014 164.189 345.658 160.388 340.28 159.829C322.006 157.931 301.334 162.263 281.817 167.638C272.06 170.324 262.621 173.263 253.911 175.808C245.214 178.351 237.246 180.5 230.479 181.59C217.301 183.712 198.62 183.804 182.257 181.332C174.075 180.096 166.448 178.215 160.37 175.614C154.309 173.02 149.701 169.673 147.685 165.449C146.889 163.782 146.766 161.747 147.103 159.461C147.439 157.172 148.244 154.585 149.354 151.781C151.574 146.176 155.059 139.604 158.625 132.665C162.198 125.712 165.861 118.375 168.471 111.193C171.082 104.006 172.62 97.0212 171.985 90.7675C171.406 85.0532 169.948 80.1843 166.908 76.4755C163.877 72.7774 159.222 70.17 152.118 69.077C139.678 67.1632 126.541 72.5897 121.291 83.9179C117.87 91.3002 119.444 101.005 121.735 109.633C122.882 113.951 124.178 117.898 125.105 121.183C125.565 122.809 125.932 124.265 126.128 125.484C126.321 126.684 126.364 127.734 126.107 128.503C126.009 128.798 125.903 129.052 125.784 129.253C125.671 129.444 125.512 129.646 125.279 129.754C125.006 129.88 124.731 129.833 124.514 129.702C124.321 129.587 124.167 129.405 124.041 129.223C123.785 128.852 123.527 128.296 123.257 127.622C122.982 126.939 122.679 126.095 122.341 125.131C120.983 121.263 119.006 115.328 115.75 109.154C109.242 96.816 97.6776 83.6141 75.8457 84.2079C54.7743 84.7813 41.0559 93.1129 32.6035 101.285C28.374 105.374 25.4592 109.428 23.6035 112.456C22.676 113.97 22.0137 115.226 21.584 116.102C21.3691 116.54 21.2117 116.883 21.1094 117.115C21.0583 117.231 21.0206 117.319 20.9961 117.378C20.9839 117.407 20.9755 117.429 20.9697 117.443C20.9668 117.45 20.9642 117.456 20.9629 117.459C20.9624 117.46 20.9622 117.461 20.9619 117.462L20 117.225L20.4971 117.277C20.0473 117.23 20.0041 117.225 20 117.225V117.22C20.0004 117.216 20.0013 117.211 20.002 117.205C20.0033 117.192 20.0051 117.174 20.0078 117.149C20.0134 117.1 20.0225 117.029 20.0342 116.934C20.0576 116.746 20.0935 116.467 20.1455 116.108C20.2496 115.39 20.4166 114.346 20.6689 113.038C21.1735 110.422 22.0202 106.748 23.3877 102.507C26.1214 94.0278 30.9458 83.2566 39.3115 74.1474C46.8529 65.9358 80.4003 38.2421 125.521 27.8866ZM235.598 111.244C224.876 110.569 213.524 109.64 203.773 110.831C194.018 112.022 185.728 115.35 181.271 123.303C175.24 134.067 173.3 141.801 176.438 151.007C179.31 159.436 188.526 163.059 200.649 164.169C212.818 165.283 228.177 163.893 243.741 162.04C251.487 161.118 264.868 159.454 276.745 156.308C282.682 154.736 288.27 152.787 292.599 150.359C296.911 147.941 300.073 144.992 300.978 141.376C301.79 138.129 299.762 134.744 296.126 131.552C292.458 128.331 286.999 125.163 280.544 122.319C267.629 116.63 250.601 112.189 235.598 111.244Z" fill="white"/>
<path d="M125.521 27.8866L125.41 27.3993L125.41 27.3993L125.521 27.8866ZM254.527 27.8964L254.676 27.419L254.676 27.419L254.527 27.8964ZM324.204 86.3026L323.817 86.6191L323.817 86.6191L324.204 86.3026ZM351.912 116.431L351.593 116.815L351.593 116.815L351.912 116.431ZM381.608 127.846L381.648 128.344L381.648 128.344L381.608 127.846ZM411.591 119.804L411.831 120.242L411.831 120.242L411.591 119.804ZM432.478 111.25L432.399 110.756L432.399 110.756L432.478 111.25ZM466.979 110.182L467.018 109.683L467.018 109.683L466.979 110.182ZM479.699 111.918L479.811 111.431L479.811 111.431L479.699 111.918ZM483.467 113.1L483.679 112.647L483.679 112.647L483.467 113.1ZM484.574 113.794L484.913 113.426L484.913 113.426L484.574 113.794ZM485.073 114.782L485.573 114.782V114.782H485.073ZM484.779 115.363L485.097 115.75L485.097 115.749L484.779 115.363ZM484.308 115.616L484.481 116.085L484.481 116.085L484.308 115.616ZM482.944 115.927L483.02 116.421L483.02 116.421L482.944 115.927ZM478.229 116.363L478.262 116.862L478.262 116.862L478.229 116.363ZM462.629 117.421L462.585 116.923L462.585 116.923L462.629 117.421ZM425.044 126.204L424.81 125.762L424.81 125.762L425.044 126.204ZM411.199 135.718L410.859 135.352L410.859 135.352L411.199 135.718ZM398.94 147.172L399.262 147.554L399.262 147.554L398.94 147.172ZM385.353 156.484L385.082 156.063L385.082 156.063L385.353 156.484ZM382.034 159.436L381.627 159.147L381.627 159.147L382.034 159.436ZM379.921 164.615L379.435 164.496L379.435 164.496L379.921 164.615ZM380.973 172.655L380.515 172.856L380.515 172.856L380.973 172.655ZM386.924 181.482L386.548 181.812L386.548 181.812L386.924 181.482ZM407.302 198.992L407.011 199.399L407.011 199.399L407.302 198.992ZM428.149 212.594L427.889 213.021L427.889 213.021L428.149 212.594ZM434.708 216.599L434.974 216.175L434.974 216.175L434.708 216.599ZM436.345 217.692L436.65 217.296L436.65 217.296L436.345 217.692ZM436.569 217.88L436.91 217.514L436.91 217.513L436.569 217.88ZM436.757 218.1L437.184 217.84L437.184 217.84L436.757 218.1ZM436.842 218.343L437.339 218.288L437.339 218.287L436.842 218.343ZM436.699 218.769L437.061 219.114L437.062 219.114L436.699 218.769ZM436.407 218.93L436.51 219.419L436.51 219.419L436.407 218.93ZM436.228 218.943L436.208 219.443L436.208 219.443L436.228 218.943ZM408.553 209.336L408.294 209.764L408.294 209.764L408.553 209.336ZM382.431 189.575L382.104 189.954L382.104 189.954L382.431 189.575ZM359.164 169.725L359.47 169.33L359.47 169.33L359.164 169.725ZM340.28 159.829L340.332 159.332L340.332 159.332L340.28 159.829ZM281.817 167.638L281.685 167.156L281.685 167.156L281.817 167.638ZM253.911 175.808L254.051 176.288L254.051 176.288L253.911 175.808ZM230.479 181.59L230.559 182.083L230.559 182.083L230.479 181.59ZM182.257 181.332L182.182 181.826L182.182 181.826L182.257 181.332ZM160.37 175.614L160.173 176.074L160.173 176.074L160.37 175.614ZM147.685 165.449L147.233 165.664L147.233 165.664L147.685 165.449ZM147.103 159.461L146.608 159.388L146.608 159.388L147.103 159.461ZM149.354 151.781L148.89 151.597L148.89 151.597L149.354 151.781ZM158.625 132.665L159.07 132.893L159.07 132.893L158.625 132.665ZM168.471 111.193L168.941 111.364L168.941 111.364L168.471 111.193ZM171.985 90.7675L172.483 90.717L172.483 90.717L171.985 90.7675ZM166.908 76.4755L167.295 76.1585L167.295 76.1585L166.908 76.4755ZM152.118 69.077L152.194 68.5829L152.194 68.5829L152.118 69.077ZM121.291 83.9179L120.837 83.7076L120.837 83.7076L121.291 83.9179ZM121.735 109.633L121.252 109.761L121.252 109.761L121.735 109.633ZM125.105 121.183L125.587 121.047L125.587 121.047L125.105 121.183ZM126.128 125.484L126.622 125.405L126.622 125.405L126.128 125.484ZM126.107 128.503L126.582 128.661L126.582 128.661L126.107 128.503ZM125.784 129.253L126.214 129.507L126.215 129.507L125.784 129.253ZM125.279 129.754L125.489 130.208L125.489 130.208L125.279 129.754ZM124.514 129.702L124.256 130.131L124.257 130.131L124.514 129.702ZM124.041 129.223L123.63 129.507L123.63 129.507L124.041 129.223ZM123.257 127.622L122.793 127.808L122.793 127.808L123.257 127.622ZM122.341 125.131L121.869 125.296L121.869 125.296L122.341 125.131ZM115.75 109.154L116.192 108.921L116.192 108.921L115.75 109.154ZM75.8457 84.2079L75.8321 83.7081L75.8321 83.7081L75.8457 84.2079ZM32.6035 101.285L32.256 100.926L32.256 100.926L32.6035 101.285ZM23.6035 112.456L23.1772 112.195L23.1772 112.195L23.6035 112.456ZM21.584 116.102L21.1351 115.882L21.1351 115.882L21.584 116.102ZM21.1094 117.115L20.652 116.913L20.652 116.913L21.1094 117.115ZM20.9961 117.378L20.535 117.185L20.535 117.185L20.9961 117.378ZM20.9697 117.443L21.4326 117.632L21.4326 117.632L20.9697 117.443ZM20.9629 117.459L20.4993 117.272L20.4992 117.272L20.9629 117.459ZM20.9619 117.462L20.8426 117.947L21.2659 118.051L21.4266 117.646L20.9619 117.462ZM20 117.225L20.0518 116.728L19.8807 117.711L20 117.225ZM20.4971 117.277L20.4453 117.775L20.549 116.78L20.4971 117.277ZM20 117.225H19.5V117.641L19.9098 117.716L20 117.225ZM20 117.22L19.5028 117.166L19.5 117.193V117.22H20ZM20.002 117.205L20.499 117.26L20.499 117.259L20.002 117.205ZM20.0078 117.149L19.511 117.093L19.511 117.093L20.0078 117.149ZM20.0342 116.934L19.538 116.873L19.538 116.873L20.0342 116.934ZM20.1455 116.108L19.6507 116.037L19.6507 116.037L20.1455 116.108ZM20.6689 113.038L20.178 112.943L20.178 112.943L20.6689 113.038ZM23.3877 102.507L22.9118 102.353L22.9118 102.353L23.3877 102.507ZM39.3115 74.1474L38.9433 73.8091L38.9433 73.8091L39.3115 74.1474ZM235.598 111.244L235.566 111.743L235.566 111.743L235.598 111.244ZM203.773 110.831L203.713 110.335L203.713 110.335L203.773 110.831ZM181.271 123.303L180.835 123.058L180.835 123.058L181.271 123.303ZM176.438 151.007L175.964 151.168L175.964 151.168L176.438 151.007ZM200.649 164.169L200.604 164.667L200.604 164.667L200.649 164.169ZM243.741 162.04L243.8 162.536L243.8 162.536L243.741 162.04ZM276.745 156.308L276.873 156.792L276.873 156.792L276.745 156.308ZM292.599 150.359L292.843 150.795L292.843 150.795L292.599 150.359ZM300.978 141.376L301.463 141.497L301.463 141.497L300.978 141.376ZM296.126 131.552L296.456 131.176L296.456 131.176L296.126 131.552ZM280.544 122.319L280.746 121.862L280.746 121.862L280.544 122.319ZM125.521 27.8866L125.633 28.3739C174.637 17.1274 206.376 13.4199 254.379 28.3737L254.527 27.8964L254.676 27.419C206.433 12.3903 174.494 16.1342 125.41 27.3993L125.521 27.8866ZM254.527 27.8964L254.379 28.3737C284.065 37.6219 304.909 63.4972 323.817 86.6191L324.204 86.3026L324.591 85.9861C305.732 62.9242 284.702 36.773 254.676 27.419L254.527 27.8964ZM324.204 86.3026L323.817 86.6191C333.271 98.1801 342.242 109.054 351.593 116.815L351.912 116.431L352.231 116.046C342.969 108.358 334.06 97.5655 324.591 85.9861L324.204 86.3026ZM351.912 116.431L351.593 116.815C360.943 124.577 370.674 129.227 381.648 128.344L381.608 127.846L381.568 127.347C370.957 128.201 361.478 123.721 352.231 116.046L351.912 116.431ZM381.608 127.846L381.648 128.344C397.695 127.053 405.551 123.68 411.831 120.242L411.591 119.804L411.351 119.365C405.192 122.737 397.472 126.068 381.568 127.347L381.608 127.846ZM411.591 119.804L411.831 120.242C418.11 116.804 422.814 113.299 432.556 111.744L432.478 111.25L432.399 110.756C422.443 112.346 417.556 115.967 411.351 119.365L411.591 119.804ZM432.478 111.25L432.556 111.744C443.724 109.96 456.729 109.89 466.941 110.68L466.979 110.182L467.018 109.683C456.751 108.889 443.664 108.957 432.399 110.756L432.478 111.25ZM466.979 110.182L466.941 110.68C472.047 111.075 476.456 111.686 479.587 112.405L479.699 111.918L479.811 111.431C476.613 110.696 472.151 110.08 467.018 109.683L466.979 110.182ZM479.699 111.918L479.587 112.405C481.153 112.765 482.4 113.152 483.255 113.552L483.467 113.1L483.679 112.647C482.729 112.202 481.402 111.796 479.811 111.431L479.699 111.918ZM483.467 113.1L483.255 113.552C483.683 113.753 484.013 113.956 484.235 114.161L484.574 113.794L484.913 113.426C484.583 113.122 484.15 112.867 483.679 112.647L483.467 113.1ZM484.574 113.794L484.235 114.161C484.458 114.367 484.573 114.575 484.573 114.782H485.073H485.573C485.573 114.179 485.236 113.724 484.913 113.426L484.574 113.794ZM485.073 114.782L484.573 114.782C484.573 114.85 484.537 114.915 484.462 114.977L484.779 115.363L485.097 115.749C485.299 115.583 485.573 115.261 485.573 114.782L485.073 114.782ZM484.779 115.363L484.462 114.977C484.389 115.037 484.279 115.094 484.134 115.147L484.308 115.616L484.481 116.085C484.669 116.015 484.898 115.912 485.097 115.75L484.779 115.363ZM484.308 115.616L484.134 115.147C483.845 115.254 483.418 115.348 482.869 115.432L482.944 115.927L483.02 116.421C483.585 116.334 484.094 116.228 484.481 116.085L484.308 115.616ZM482.944 115.927L482.869 115.432C481.769 115.601 480.174 115.733 478.195 115.864L478.229 116.363L478.262 116.862C480.237 116.731 481.872 116.597 483.02 116.421L482.944 115.927ZM478.229 116.363L478.195 115.864C474.237 116.127 468.74 116.385 462.585 116.923L462.629 117.421L462.672 117.919C468.814 117.382 474.278 117.126 478.262 116.862L478.229 116.363ZM462.629 117.421L462.585 116.923C450.276 117.998 435.335 120.19 424.81 125.762L425.044 126.204L425.278 126.646C435.607 121.178 450.365 118.994 462.672 117.919L462.629 117.421ZM425.044 126.204L424.81 125.762C417.791 129.478 414.182 132.261 410.859 135.352L411.199 135.718L411.54 136.084C414.795 133.057 418.331 130.324 425.278 126.646L425.044 126.204ZM411.199 135.718L410.859 135.352C407.535 138.442 404.497 141.842 398.618 146.789L398.94 147.172L399.262 147.554C405.156 142.594 408.292 139.105 411.54 136.084L411.199 135.718ZM398.94 147.172L398.618 146.789C392.163 152.223 387.965 154.213 385.082 156.063L385.353 156.484L385.623 156.905C388.422 155.108 392.741 153.043 399.262 147.554L398.94 147.172ZM385.353 156.484L385.082 156.063C383.641 156.989 382.529 157.879 381.627 159.147L382.034 159.436L382.442 159.726C383.238 158.607 384.23 157.799 385.623 156.905L385.353 156.484ZM382.034 159.436L381.627 159.147C380.725 160.414 380.034 162.06 379.435 164.496L379.921 164.615L380.406 164.734C380.988 162.365 381.64 160.853 382.442 159.726L382.034 159.436ZM379.921 164.615L379.435 164.496C378.79 167.124 379.239 169.94 380.515 172.856L380.973 172.655L381.431 172.455C380.213 169.671 379.829 167.086 380.406 164.734L379.921 164.615ZM380.973 172.655L380.515 172.856C381.79 175.771 383.891 178.786 386.548 181.812L386.924 181.482L387.3 181.152C384.681 178.17 382.65 175.242 381.431 172.455L380.973 172.655ZM386.924 181.482L386.548 181.812C391.863 187.865 399.403 193.962 407.011 199.399L407.302 198.992L407.592 198.585C400.005 193.164 392.538 187.118 387.3 181.152L386.924 181.482ZM407.302 198.992L407.011 199.399C414.62 204.835 422.298 209.611 427.889 213.021L428.149 212.594L428.41 212.167C422.824 208.761 415.171 204 407.592 198.585L407.302 198.992ZM428.149 212.594L427.889 213.021C430.684 214.725 432.959 216.089 434.442 217.022L434.708 216.599L434.974 216.175C433.484 215.237 431.194 213.864 428.41 212.167L428.149 212.594ZM434.708 216.599L434.442 217.022C435.183 217.488 435.727 217.848 436.04 218.088L436.345 217.692L436.65 217.296C436.295 217.023 435.712 216.64 434.974 216.175L434.708 216.599ZM436.345 217.692L436.039 218.088C436.116 218.148 436.18 218.201 436.229 218.246L436.569 217.88L436.91 217.513C436.831 217.44 436.742 217.367 436.65 217.296L436.345 217.692ZM436.569 217.88L436.229 218.246C436.251 218.266 436.272 218.287 436.29 218.308C436.309 218.329 436.322 218.346 436.329 218.359L436.757 218.1L437.184 217.84C437.093 217.689 436.976 217.575 436.91 217.514L436.569 217.88ZM436.757 218.1L436.329 218.359C436.333 218.365 436.337 218.372 436.34 218.38C436.343 218.387 436.344 218.393 436.345 218.398L436.842 218.343L437.339 218.287C437.315 218.072 437.23 217.915 437.184 217.84L436.757 218.1ZM436.842 218.343L436.345 218.397C436.345 218.399 436.345 218.402 436.345 218.405C436.345 218.409 436.344 218.412 436.343 218.414C436.343 218.416 436.342 218.418 436.341 218.419C436.34 218.421 436.339 218.423 436.337 218.425L436.699 218.769L437.062 219.114C437.303 218.86 437.367 218.542 437.339 218.288L436.842 218.343ZM436.699 218.769L436.337 218.425C436.334 218.428 436.33 218.431 436.324 218.434C436.317 218.437 436.311 218.439 436.304 218.44L436.407 218.93L436.51 219.419C436.624 219.395 436.858 219.327 437.061 219.114L436.699 218.769ZM436.407 218.93L436.305 218.44C436.289 218.443 436.269 218.445 436.247 218.444L436.228 218.943L436.208 219.443C436.276 219.446 436.385 219.445 436.51 219.419L436.407 218.93ZM436.228 218.943L436.248 218.444C427.025 218.075 417.803 214.339 408.811 208.908L408.553 209.336L408.294 209.764C417.358 215.238 426.749 219.064 436.208 219.443L436.228 218.943ZM408.553 209.336L408.811 208.908C399.819 203.477 391.057 196.349 382.757 189.196L382.431 189.575L382.104 189.954C390.412 197.113 399.227 204.287 408.294 209.764L408.553 209.336ZM382.431 189.575L382.757 189.196C374.457 182.043 366.618 174.864 359.47 169.33L359.164 169.725L358.858 170.121C365.978 175.634 373.769 182.771 382.104 189.954L382.431 189.575ZM359.164 169.725L359.47 169.33C352.323 163.796 345.866 159.907 340.332 159.332L340.28 159.829L340.229 160.326C345.45 160.869 351.705 164.583 358.858 170.121L359.164 169.725ZM340.28 159.829L340.332 159.332C321.958 157.423 301.207 161.78 281.685 167.156L281.817 167.638L281.95 168.12C301.461 162.747 322.055 158.439 340.229 160.326L340.28 159.829ZM281.817 167.638L281.685 167.156C271.923 169.844 262.468 172.787 253.771 175.329L253.911 175.808L254.051 176.288C262.773 173.739 272.197 170.805 281.95 168.12L281.817 167.638ZM253.911 175.808L253.771 175.329C245.074 177.87 237.133 180.012 230.4 181.096L230.479 181.59L230.559 182.083C237.359 180.988 245.353 178.831 254.051 176.288L253.911 175.808ZM230.479 181.59L230.4 181.096C217.277 183.21 198.648 183.303 182.332 180.838L182.257 181.332L182.182 181.826C198.591 184.305 217.325 184.215 230.559 182.083L230.479 181.59ZM182.257 181.332L182.332 180.838C174.173 179.605 166.592 177.733 160.567 175.154L160.37 175.614L160.173 176.074C166.304 178.697 173.977 180.587 182.182 181.826L182.257 181.332ZM160.37 175.614L160.567 175.154C154.542 172.576 150.073 169.291 148.136 165.234L147.685 165.449L147.233 165.664C149.329 170.054 154.076 173.465 160.173 176.074L160.37 175.614ZM147.685 165.449L148.136 165.234C147.4 163.692 147.268 161.768 147.597 159.534L147.103 159.461L146.608 159.388C146.264 161.725 146.378 163.873 147.233 165.664L147.685 165.449ZM147.103 159.461L147.597 159.534C147.926 157.299 148.715 154.753 149.819 151.965L149.354 151.781L148.89 151.597C147.772 154.418 146.953 157.045 146.608 159.388L147.103 159.461ZM149.354 151.781L149.819 151.965C152.028 146.39 155.497 139.846 159.07 132.893L158.625 132.665L158.18 132.436C154.622 139.362 151.121 145.963 148.89 151.597L149.354 151.781ZM158.625 132.665L159.07 132.893C162.642 125.941 166.319 118.579 168.941 111.364L168.471 111.193L168.001 111.023C165.403 118.171 161.754 125.483 158.18 132.436L158.625 132.665ZM168.471 111.193L168.941 111.364C171.562 104.149 173.128 97.0804 172.483 90.717L171.985 90.7675L171.488 90.8179C172.111 96.9621 170.602 103.864 168.001 111.023L168.471 111.193ZM171.985 90.7675L172.483 90.717C171.898 84.9549 170.423 79.9747 167.295 76.1585L166.908 76.4755L166.521 76.7924C169.473 80.394 170.913 85.1514 171.488 90.8179L171.985 90.7675ZM166.908 76.4755L167.295 76.1585C164.167 72.3426 159.387 69.6896 152.194 68.5829L152.118 69.077L152.042 69.5712C159.056 70.6504 163.587 73.2122 166.522 76.7924L166.908 76.4755ZM152.118 69.077L152.194 68.5829C139.586 66.6431 126.201 72.1338 120.837 83.7076L121.291 83.9179L121.745 84.1281C126.881 73.0457 139.771 67.6833 152.042 69.5712L152.118 69.077ZM121.291 83.9179L120.837 83.7076C117.333 91.2699 118.962 101.138 121.252 109.761L121.735 109.633L122.219 109.504C119.926 100.871 118.407 91.3306 121.745 84.1281L121.291 83.9179ZM121.735 109.633L121.252 109.761C122.397 114.072 123.708 118.074 124.624 121.318L125.105 121.183L125.587 121.047C124.648 117.723 123.367 113.83 122.219 109.504L121.735 109.633ZM125.105 121.183L124.624 121.318C125.082 122.941 125.443 124.374 125.634 125.564L126.128 125.484L126.622 125.405C126.421 124.156 126.047 122.677 125.587 121.047L125.105 121.183ZM126.128 125.484L125.634 125.564C125.826 126.753 125.848 127.699 125.633 128.345L126.107 128.503L126.582 128.661C126.879 127.77 126.816 126.615 126.622 125.405L126.128 125.484ZM126.107 128.503L125.633 128.345C125.54 128.623 125.447 128.84 125.354 128.998L125.784 129.253L126.215 129.507C126.359 129.264 126.478 128.973 126.582 128.661L126.107 128.503ZM125.784 129.253L125.354 128.998C125.261 129.155 125.166 129.255 125.069 129.3L125.279 129.754L125.489 130.208C125.857 130.037 126.081 129.732 126.214 129.507L125.784 129.253ZM125.279 129.754L125.07 129.3C124.974 129.344 124.874 129.335 124.771 129.273L124.514 129.702L124.257 130.131C124.588 130.33 125.039 130.416 125.489 130.208L125.279 129.754ZM124.514 129.702L124.771 129.273C124.669 129.212 124.564 129.099 124.452 128.938L124.041 129.223L123.63 129.507C123.77 129.71 123.973 129.961 124.256 130.131L124.514 129.702ZM124.041 129.223L124.452 128.938C124.231 128.618 123.99 128.107 123.721 127.436L123.257 127.622L122.793 127.808C123.064 128.485 123.34 129.087 123.63 129.507L124.041 129.223ZM123.257 127.622L123.721 127.436C123.451 126.764 123.151 125.93 122.813 124.965L122.341 125.131L121.869 125.296C122.208 126.261 122.514 127.114 122.793 127.808L123.257 127.622ZM122.341 125.131L122.813 124.965C121.458 121.105 119.469 115.133 116.192 108.921L115.75 109.154L115.308 109.387C118.544 115.522 120.509 121.421 121.869 125.296L122.341 125.131ZM115.75 109.154L116.192 108.921C109.639 96.4963 97.932 83.107 75.8321 83.7081L75.8457 84.2079L75.8593 84.7077C97.4231 84.1212 108.845 97.1357 115.308 109.387L115.75 109.154ZM75.8457 84.2079L75.8321 83.7081C54.6207 84.2853 40.7868 92.6777 32.256 100.926L32.6035 101.285L32.9511 101.645C41.3251 93.5481 54.928 85.2773 75.8593 84.7077L75.8457 84.2079ZM32.6035 101.285L32.256 100.926C27.9906 105.05 25.0505 109.138 23.1772 112.195L23.6035 112.456L24.0298 112.717C25.8679 109.718 28.7573 105.699 32.9511 101.645L32.6035 101.285ZM23.6035 112.456L23.1772 112.195C22.2407 113.723 21.5709 114.994 21.1351 115.882L21.584 116.102L22.0329 116.323C22.4565 115.459 23.1113 114.216 24.0298 112.717L23.6035 112.456ZM21.584 116.102L21.1351 115.882C20.9174 116.326 20.7571 116.675 20.652 116.913L21.1094 117.115L21.5668 117.317C21.6663 117.092 21.8209 116.755 22.0329 116.323L21.584 116.102ZM21.1094 117.115L20.652 116.913C20.5995 117.032 20.5606 117.123 20.535 117.185L20.9961 117.378L21.4572 117.571C21.4806 117.515 21.517 117.43 21.5668 117.317L21.1094 117.115ZM20.9961 117.378L20.535 117.185C20.5271 117.203 20.5207 117.219 20.5157 117.232C20.5097 117.247 20.5085 117.25 20.5069 117.254L20.9697 117.443L21.4326 117.632C21.4352 117.626 21.4376 117.62 21.4395 117.615C21.4418 117.609 21.4431 117.606 21.4453 117.601C21.449 117.591 21.4528 117.582 21.4572 117.571L20.9961 117.378ZM20.9697 117.443L20.5069 117.254C20.5089 117.249 20.5105 117.246 20.5102 117.246C20.51 117.247 20.51 117.247 20.5095 117.248C20.5092 117.249 20.5085 117.25 20.5078 117.252C20.507 117.253 20.5059 117.256 20.5046 117.259C20.5033 117.262 20.5014 117.266 20.4993 117.272L20.9629 117.459L21.4265 117.646C21.4247 117.651 21.4232 117.654 21.4223 117.656C21.4214 117.658 21.4207 117.66 21.4205 117.66C21.4202 117.661 21.42 117.661 21.4202 117.661C21.4203 117.661 21.4209 117.659 21.4213 117.659C21.4233 117.654 21.4276 117.644 21.4326 117.632L20.9697 117.443ZM20.9629 117.459L20.4992 117.272C20.4905 117.293 20.4853 117.311 20.4835 117.317C20.4832 117.318 20.4828 117.319 20.483 117.318C20.483 117.318 20.4835 117.316 20.4843 117.314C20.485 117.312 20.4865 117.307 20.4884 117.301C20.4903 117.296 20.4932 117.287 20.4972 117.277L20.9619 117.462L21.4266 117.646C21.4307 117.636 21.4337 117.628 21.4356 117.622C21.4376 117.616 21.4391 117.611 21.4399 117.609C21.4407 117.606 21.4413 117.604 21.4414 117.604C21.4417 117.603 21.4414 117.604 21.4411 117.605C21.4396 117.61 21.4347 117.626 21.4266 117.646L20.9629 117.459ZM20.9619 117.462L21.0812 116.976L20.1193 116.74L20 117.225L19.8807 117.711L20.8426 117.947L20.9619 117.462ZM20 117.225L19.9482 117.723L20.4453 117.775L20.4971 117.277L20.5489 116.78L20.0518 116.728L20 117.225ZM20.4971 117.277L20.549 116.78C20.3242 116.756 20.2015 116.744 20.1345 116.736C20.1009 116.733 20.0822 116.731 20.0719 116.73C20.0666 116.729 20.0648 116.729 20.0648 116.729C20.0649 116.729 20.0653 116.729 20.066 116.729C20.0666 116.729 20.0677 116.729 20.0692 116.729C20.0703 116.729 20.079 116.731 20.0902 116.733L20 117.225L19.9098 117.716C19.9362 117.721 19.9788 117.725 20.0283 117.731C20.0965 117.738 20.2202 117.751 20.4451 117.775L20.4971 117.277ZM20 117.225H20.5V117.22H20H19.5V117.225H20ZM20 117.22L20.4972 117.273C20.4967 117.277 20.4964 117.28 20.4961 117.282C20.4958 117.284 20.4956 117.286 20.4955 117.286C20.4954 117.287 20.4954 117.287 20.4954 117.287C20.4954 117.287 20.4954 117.287 20.4955 117.286C20.4955 117.286 20.4956 117.286 20.4957 117.285C20.4962 117.281 20.4976 117.272 20.499 117.26L20.002 117.205L19.5049 117.15C19.5056 117.144 19.5062 117.14 19.506 117.141C19.506 117.142 19.506 117.142 19.506 117.142C19.5059 117.142 19.5059 117.143 19.5058 117.143C19.5057 117.144 19.5055 117.146 19.5052 117.147C19.505 117.149 19.5046 117.152 19.5042 117.155C19.5038 117.158 19.5033 117.162 19.5028 117.166L20 117.22ZM20.002 117.205L20.499 117.259C20.5 117.25 20.5011 117.239 20.5018 117.232C20.5027 117.224 20.5035 117.215 20.5046 117.206L20.0078 117.149L19.511 117.093C19.5093 117.108 19.508 117.121 19.5069 117.131C19.5057 117.143 19.5053 117.147 19.5049 117.151L20.002 117.205ZM20.0078 117.149L20.5046 117.206C20.5098 117.16 20.5183 117.093 20.5304 116.996L20.0342 116.934L19.538 116.873C19.5267 116.964 19.517 117.041 19.511 117.093L20.0078 117.149ZM20.0342 116.934L20.5304 116.996C20.5534 116.81 20.5889 116.535 20.6403 116.18L20.1455 116.108L19.6507 116.037C19.5981 116.4 19.5617 116.682 19.538 116.873L20.0342 116.934ZM20.1455 116.108L20.6403 116.18C20.7434 115.469 20.9092 114.432 21.1599 113.133L20.6689 113.038L20.178 112.943C19.9241 114.259 19.7558 115.311 19.6507 116.037L20.1455 116.108ZM20.6689 113.038L21.1599 113.133C21.6614 110.533 22.5033 106.879 23.8636 102.66L23.3877 102.507L22.9118 102.353C21.5371 106.617 20.6857 110.311 20.178 112.943L20.6689 113.038ZM23.3877 102.507L23.8636 102.66C26.5842 94.2217 31.3796 83.5235 39.6798 74.4856L39.3115 74.1474L38.9433 73.8091C30.5121 82.9897 25.6585 93.834 22.9118 102.353L23.3877 102.507ZM39.3115 74.1474L39.6798 74.4856C47.1658 66.3343 80.628 38.7028 125.633 28.3739L125.521 27.8866L125.41 27.3993C80.1726 37.7813 46.5401 65.5373 38.9433 73.8091L39.3115 74.1474ZM235.598 111.244L235.629 110.745C224.93 110.071 213.521 109.137 203.713 110.335L203.773 110.831L203.834 111.327C213.527 110.144 224.821 111.066 235.566 111.743L235.598 111.244ZM203.773 110.831L203.713 110.335C193.896 111.533 185.407 114.899 180.835 123.058L181.271 123.303L181.708 123.547C186.049 115.801 194.141 112.511 203.834 111.327L203.773 110.831ZM181.271 123.303L180.835 123.058C174.773 133.877 172.761 141.768 175.964 151.168L176.438 151.007L176.911 150.845C173.84 141.834 175.707 134.256 181.708 123.547L181.271 123.303ZM176.438 151.007L175.964 151.168C178.944 159.911 188.467 163.555 200.604 164.667L200.649 164.169L200.695 163.671C188.585 162.562 179.677 158.961 176.911 150.845L176.438 151.007ZM200.649 164.169L200.604 164.667C212.831 165.786 228.239 164.389 243.8 162.536L243.741 162.04L243.682 161.543C228.114 163.397 212.804 164.78 200.695 163.671L200.649 164.169ZM243.741 162.04L243.8 162.536C251.545 161.615 264.958 159.948 276.873 156.792L276.745 156.308L276.617 155.825C264.778 158.961 251.429 160.621 243.682 161.543L243.741 162.04ZM276.745 156.308L276.873 156.792C282.827 155.215 288.461 153.253 292.843 150.795L292.599 150.359L292.354 149.923C288.079 152.321 282.536 154.257 276.617 155.825L276.745 156.308ZM292.599 150.359L292.843 150.795C297.192 148.356 300.507 145.318 301.463 141.497L300.978 141.376L300.492 141.254C299.639 144.667 296.63 147.525 292.354 149.923L292.599 150.359ZM300.978 141.376L301.463 141.497C302.349 137.954 300.114 134.388 296.456 131.176L296.126 131.552L295.796 131.927C299.41 135.101 301.231 138.304 300.492 141.255L300.978 141.376ZM296.126 131.552L296.456 131.176C292.734 127.908 287.223 124.715 280.746 121.862L280.544 122.319L280.342 122.777C286.775 125.61 292.182 128.754 295.796 131.927L296.126 131.552ZM280.544 122.319L280.746 121.862C267.78 116.151 250.695 111.694 235.629 110.745L235.598 111.244L235.566 111.743C250.506 112.684 267.477 117.11 280.342 122.777L280.544 122.319Z" fill="black"/>
<g filter="url(#filter1_d_83_747)">
<path fill-rule="evenodd" clip-rule="evenodd" d="M151.92 193.782C141.306 215.807 226.068 249.116 226.068 249.116C226.068 249.116 191.948 225.507 184.201 216.667C176.454 207.828 181.25 191.934 181.25 191.934C176.606 191.379 172.716 190.738 169.433 190.197C159.136 188.501 154.808 187.788 151.92 193.782Z" fill="white"/>
<path d="M226.068 249.116C226.068 249.116 218.461 230.667 220.869 225.507C223.451 219.973 227.254 219.209 227.878 212.964C228.616 205.586 220.923 202.723 222.345 197.102C223.011 194.466 228.004 192.073 225.296 192.306C205.76 193.988 191.624 193.174 181.25 191.934C181.25 191.934 176.454 207.828 184.201 216.667C191.948 225.507 226.068 249.116 226.068 249.116Z" fill="white"/>
<path d="M226.068 249.116C226.068 249.116 141.306 215.807 151.92 193.782C154.808 187.788 159.136 188.501 169.433 190.197C172.716 190.738 176.606 191.379 181.25 191.934M226.068 249.116C226.068 249.116 218.461 230.667 220.869 225.507C223.451 219.973 227.254 219.209 227.878 212.964C228.616 205.586 220.923 202.723 222.345 197.102C223.011 194.466 228.004 192.073 225.296 192.306C205.76 193.988 191.624 193.174 181.25 191.934M226.068 249.116C226.068 249.116 191.948 225.507 184.201 216.667C176.454 207.828 181.25 191.934 181.25 191.934" stroke="black"/>
</g>
<g filter="url(#filter2_f_83_747)">
<path d="M33.8714 191.354C29.7779 196.149 11.527 192.764 15.5845 192.378C19.6421 191.991 28.7106 190.985 32.7678 185.452C34.3339 183.316 35.5909 189.339 33.8714 191.354Z" fill="#161139" fill-opacity="0.7"/>
</g>
<ellipse cx="72.5119" cy="134.512" rx="29.5119" ry="29.5116" fill="white"/>
<ellipse cx="74.7267" cy="134.513" rx="20.6583" ry="20.6581" fill="#6B62A4"/>
<ellipse cx="74.4308" cy="134.214" rx="16.2315" ry="16.2314" fill="#130D0D"/>
<g filter="url(#filter3_f_83_747)">
<ellipse cx="62.9219" cy="147.497" rx="5.90238" ry="5.90232" fill="white"/>
</g>
<g filter="url(#filter4_f_83_747)">
<ellipse cx="86.2354" cy="121.231" rx="4.42678" ry="4.42674" fill="white"/>
</g>
</g>
<defs>
<filter id="filter0_d_83_747" x="-0.5" y="17.5" width="494.588" height="248.52" filterUnits="userSpaceOnUse" color-interpolation-filters="sRGB">
<feFlood flood-opacity="0" result="BackgroundImageFix"/>
<feColorMatrix in="SourceAlpha" type="matrix" values="0 0 0 0 0 0 0 0 0 0 0 0 0 0 0 0 0 0 127 0" result="hardAlpha"/>
<feOffset dx="5" dy="10"/>
<feGaussianBlur stdDeviation="2"/>
<feComposite in2="hardAlpha" operator="out"/>
<feColorMatrix type="matrix" values="0 0 0 0 0 0 0 0 0 0 0 0 0 0 0 0 0 0 0.25 0"/>
<feBlend mode="normal" in2="BackgroundImageFix" result="effect1_dropShadow_83_747"/>
<feBlend mode="normal" in="SourceGraphic" in2="effect1_dropShadow_83_747" result="shape"/>
</filter>
<filter id="filter1_d_83_747" x="150.5" y="188.5" width="77.9277" height="65.5103" filterUnits="userSpaceOnUse" color-interpolation-filters="sRGB">
<feFlood flood-opacity="0" result="BackgroundImageFix"/>
<feColorMatrix in="SourceAlpha" type="matrix" values="0 0 0 0 0 0 0 0 0 0 0 0 0 0 0 0 0 0 127 0" result="hardAlpha"/>
<feOffset dy="4"/>
<feComposite in2="hardAlpha" operator="out"/>
<feColorMatrix type="matrix" values="0 0 0 0 0.0862745 0 0 0 0 0.0666667 0 0 0 0 0.223529 0 0 0 0.5 0"/>
<feBlend mode="normal" in2="BackgroundImageFix" result="effect1_dropShadow_83_747"/>
<feBlend mode="normal" in="SourceGraphic" in2="effect1_dropShadow_83_747" result="shape"/>
</filter>
<filter id="filter2_f_83_747" x="14.5" y="184.5" width="20.6973" height="9.89746" filterUnits="userSpaceOnUse" color-interpolation-filters="sRGB">
<feFlood flood-opacity="0" result="BackgroundImageFix"/>
<feBlend mode="normal" in="SourceGraphic" in2="BackgroundImageFix" result="shape"/>
<feGaussianBlur stdDeviation="0.25" result="effect1_foregroundBlur_83_747"/>
</filter>
<filter id="filter3_f_83_747" x="55.0195" y="139.594" width="15.8047" height="15.8047" filterUnits="userSpaceOnUse" color-interpolation-filters="sRGB">
<feFlood flood-opacity="0" result="BackgroundImageFix"/>
<feBlend mode="normal" in="SourceGraphic" in2="BackgroundImageFix" result="shape"/>
<feGaussianBlur stdDeviation="1" result="effect1_foregroundBlur_83_747"/>
</filter>
<filter id="filter4_f_83_747" x="79.8086" y="114.805" width="12.8535" height="12.8535" filterUnits="userSpaceOnUse" color-interpolation-filters="sRGB">
<feFlood flood-opacity="0" result="BackgroundImageFix"/>
<feBlend mode="normal" in="SourceGraphic" in2="BackgroundImageFix" result="shape"/>
<feGaussianBlur stdDeviation="1" result="effect1_foregroundBlur_83_747"/>
</filter>
<clipPath id="clip0_83_747">
<rect width="485.073" height="251.52" fill="white"/>
</clipPath>
</defs>
</svg>
