<svg width="1200" height="750" viewBox="0 0 1200 750" fill="none" xmlns="http://www.w3.org/2000/svg">
<rect width="1200" height="750" fill="#1E1E1E"/>
<g clip-path="url(#clip0_1_6979)">
<g clip-path="url(#clip1_1_6979)">
<rect width="1200" height="750" fill="white"/>
<path fill-rule="evenodd" clip-rule="evenodd" d="M213.531 445.758L207.967 437.204C209.949 439.657 211.81 442.504 213.531 445.758Z" fill="#EECBA3"/>
<path d="M36.1615 588.317C28.3728 583.588 8.80856 582.406 0 582.406L0.268354 647.079C14.5508 645.804 47.7748 644.019 66.4119 647.079C74.6897 648.438 85.0309 650.061 95.3607 651.681C114.102 654.622 132.806 657.556 139.083 658.901C139.949 659.087 141.253 659.372 142.919 659.735C159.986 663.462 215.108 675.498 228.095 674.548C231.939 674.267 238.587 674.567 246.943 674.944C269.584 675.966 304.764 677.553 330.669 669.68C366.135 658.901 452.714 658.206 488.527 673.157C524.341 688.109 627.61 689.152 668.639 676.634C709.669 664.117 783.73 641.864 874.829 642.907C947.708 643.741 1030.14 658.554 1062.24 665.855C1088.55 667.594 1144.93 670.028 1159.95 665.855C1174.97 661.683 1240.62 661.335 1271.56 661.683V590.056C1247.42 597.679 1237.12 602.459 1230.06 605.733C1223.59 608.731 1219.85 610.465 1210.71 611.961C1207.92 612.419 1205.75 612.802 1203.99 613.114L1203.99 613.115C1200.88 613.664 1199.02 613.993 1197.15 614.12C1194.35 614.309 1191.53 614.046 1184.48 613.391L1184.47 613.39L1184.47 613.39L1184.47 613.39L1184.46 613.389L1184.45 613.389L1184.45 613.388C1184.44 613.388 1184.44 613.387 1184.43 613.386C1180.55 613.026 1175.41 612.548 1168.29 611.961C1141.31 609.736 1122.05 612.888 1115.79 614.743C1079.63 625.869 1048.57 621.929 1037.56 618.567C1025.04 613.931 993.188 606.398 965.928 613.352C931.853 622.045 888.042 618.567 868.57 611.266C859.371 607.816 849.94 606.772 842.145 606.594C836.862 606.474 832.332 606.751 829.135 606.946L829.134 606.946L829.129 606.947C827.061 607.073 825.552 607.165 824.759 607.093C823.214 606.953 817.465 607.607 810.177 608.437C799.431 609.661 785.337 611.266 776.428 611.266C771.134 611.266 766.363 610.045 761.467 608.792C752.536 606.507 743.188 604.115 729.488 608.832C708.278 616.134 664.814 624.478 640.823 622.74C621.629 621.349 578.12 631.201 558.764 636.3C544.731 638.976 522.079 641.955 498.263 642.555C471.528 643.227 443.326 640.901 424.202 631.78C388.04 614.534 346.779 616.713 330.669 619.958C278.285 631.876 247.995 629.876 236.275 629.102C233.292 628.905 231.512 628.787 230.877 628.999C227.748 630.042 150.209 613.004 142.212 610.57C134.215 608.136 97.3578 606.745 87.622 606.398C77.8862 606.05 45.8972 594.228 36.1615 588.317Z" fill="#E6B379"/>
<path fill-rule="evenodd" clip-rule="evenodd" d="M0.695413 750H1271.56V661.683C1240.62 661.335 1174.97 661.683 1159.95 665.855C1144.93 670.028 1088.55 667.594 1062.24 665.855C1030.14 658.554 947.708 643.741 874.829 642.907C783.73 641.864 709.669 664.117 668.639 676.634C627.61 689.152 524.341 688.109 488.527 673.157C452.714 658.206 366.135 658.901 330.669 669.68C304.764 677.553 269.584 675.966 246.943 674.944C238.587 674.567 231.939 674.267 228.095 674.548C215.108 675.498 159.986 663.462 142.919 659.735C141.253 659.372 139.949 659.087 139.083 658.901C132.806 657.556 114.102 654.622 95.3607 651.681C85.0309 650.061 74.6897 648.438 66.4119 647.079C47.7748 644.019 14.5508 645.804 0.268354 647.079L0.695413 750ZM407.164 689.152C396.872 696.384 338.898 695.41 311.197 694.019L310.154 695.758C311.313 703.639 324.201 720.097 366.482 722.879C408.764 725.661 460.595 719.866 481.226 716.62C380.53 701.878 473.808 695.41 533.034 694.019C495.366 689.383 417.456 681.919 407.164 689.152ZM66.4119 676.982C9.9444 668.915 24.3394 681.966 38.5954 689.499C2.99027 697.716 0.115902 704.513 3.12936 706.885C17.5012 708.044 48.3312 710.709 56.6761 712.1C65.0211 713.491 80.7838 726.356 87.622 732.615C168.568 753.199 188.573 748.609 188.457 743.741C130.39 732.962 44.9237 715.23 167.594 730.529C290.265 745.828 280.599 738.294 260.432 732.615C139.577 707.449 216.725 707.157 238.604 707.074C242.722 707.058 244.882 707.05 243.394 706.885C235.884 706.05 215.694 694.947 206.538 689.499C183.357 688.688 122.879 685.049 66.4119 676.982ZM571.629 724.965C628.097 725.8 628.537 712.796 621.699 706.189C606.052 701.321 682.548 701.321 756.261 711.057C815.232 718.846 817.921 728.21 811.894 731.919C795.38 742.175 781.734 739.483 759.052 735.007C736.364 730.53 704.634 724.269 651.949 727.399C567.665 732.406 563.284 727.863 571.629 724.965ZM861.269 713.143C966.693 699.768 894.069 691.112 844.579 688.456C791.727 683.35 952.715 673.505 996.874 688.109C1019.99 695.753 1041.29 691.584 1058.49 688.218C1074.15 685.153 1086.41 682.754 1093.54 690.542C1102.99 700.872 1123.27 702.589 1146.58 704.561C1160.15 705.709 1174.74 706.944 1188.81 710.014C1207.09 714.002 1197.25 713.543 1177.52 712.622C1155.97 711.615 1122.61 710.057 1101.19 713.143C1081.62 715.963 1073.2 712.216 1067.41 709.639C1061.06 706.813 1057.87 705.393 1046.6 715.577C1025.04 735.049 934.287 731.919 888.39 724.618C851.672 718.776 855.01 714.534 861.269 713.143Z" fill="#EDC79B"/>
<path d="M621.699 706.189C628.537 712.796 628.097 725.8 571.629 724.965C563.284 727.863 567.665 732.406 651.949 727.399C704.634 724.269 736.364 730.53 759.052 735.007C781.734 739.483 795.38 742.175 811.894 731.919C817.921 728.21 815.232 718.846 756.261 711.057C682.548 701.321 606.052 701.321 621.699 706.189Z" fill="#E6C29A"/>
<path d="M844.579 688.456C894.069 691.112 966.693 699.768 861.269 713.143C855.01 714.534 851.672 718.776 888.39 724.618C934.287 731.919 1025.04 735.049 1046.6 715.577C1057.87 705.393 1061.06 706.813 1067.41 709.639C1073.2 712.216 1081.62 715.963 1101.19 713.143C1122.61 710.057 1155.97 711.615 1177.52 712.622C1197.25 713.543 1207.09 714.002 1188.81 710.014C1174.74 706.944 1160.15 705.709 1146.58 704.561C1123.27 702.589 1102.99 700.872 1093.54 690.542C1086.41 682.754 1074.15 685.153 1058.49 688.218C1041.29 691.584 1019.99 695.753 996.874 688.109C952.715 673.505 791.727 683.35 844.579 688.456Z" fill="#E6C29A"/>
<path d="M311.197 694.019C338.898 695.41 396.872 696.384 407.164 689.152C417.456 681.919 495.366 689.383 533.034 694.019C473.808 695.41 380.53 701.878 481.226 716.62C460.595 719.866 408.764 725.661 366.482 722.879C324.201 720.097 311.313 703.639 310.154 695.758L311.197 694.019Z" fill="#E6C29A"/>
<path d="M38.5954 689.499C24.3394 681.966 9.9444 668.915 66.4119 676.982C122.879 685.049 183.357 688.688 206.538 689.499C215.694 694.947 235.884 706.05 243.394 706.885C244.882 707.05 242.722 707.058 238.604 707.074C216.725 707.157 139.577 707.449 260.432 732.615C280.599 738.294 290.265 745.828 167.594 730.529C44.9237 715.23 130.39 732.962 188.457 743.741C188.573 748.609 168.568 753.199 87.622 732.615C80.7838 726.356 65.0211 713.491 56.6761 712.1C48.3312 710.709 17.5012 708.044 3.12936 706.885C0.115902 704.513 2.99027 697.716 38.5954 689.499Z" fill="#E6C29A"/>
<path d="M0 582.406C8.80856 582.406 28.3728 583.588 36.1615 588.317C45.8972 594.228 77.8862 606.05 87.622 606.398C97.3578 606.745 134.215 608.136 142.212 610.57C150.209 613.004 227.748 630.042 230.877 628.999C231.512 628.787 233.292 628.905 236.275 629.102C247.995 629.876 278.285 631.876 330.669 619.958C346.779 616.713 388.04 614.534 424.202 631.78C443.326 640.901 471.528 643.227 498.263 642.555C494.67 621.23 471.281 580.598 406.469 588.665C341.656 596.732 313.399 582.058 307.372 573.714C288.735 539.777 275.963 526.194 271.906 523.644C266.203 521.45 261.121 519.147 256.607 516.804C235.361 505.776 226.687 493.879 224.966 488.526C223.964 479.511 222.497 471.527 220.631 464.534C218.676 457.204 216.283 450.961 213.531 445.758L207.967 437.204C194.76 420.861 176.17 422.03 157.859 437.204C152.575 441.583 147.314 447.128 142.212 453.755C115.23 488.804 98.7486 455.841 93.8807 434.979C92.8761 429.677 90.7588 421.225 87.622 412.737C85.6453 407.388 83.2639 402.025 80.5009 397.427C78.5432 394.169 76.3939 391.295 74.0614 389.082C63.213 378.79 20.167 378.071 0 378.999V582.406Z" fill="#077789"/>
<path d="M868.57 611.266C888.042 618.567 931.853 622.045 965.928 613.352C993.188 606.398 1025.04 613.931 1037.56 618.567C1048.57 621.929 1079.63 625.869 1115.79 614.743C1122.05 612.888 1141.31 609.736 1168.29 611.961C1175.41 612.548 1180.55 613.026 1184.43 613.386L1184.45 613.388L1184.45 613.389L1184.46 613.389L1184.47 613.39L1184.47 613.39L1184.47 613.39L1184.48 613.391C1191.53 614.046 1194.35 614.309 1197.15 614.12C1199.02 613.993 1200.88 613.664 1203.99 613.115L1203.99 613.114C1205.75 612.802 1207.92 612.419 1210.71 611.961C1219.85 610.465 1223.59 608.731 1230.06 605.733C1237.12 602.459 1247.42 597.679 1271.56 590.056L1271.81 379.694C1243.33 376.549 1184.19 381.368 1155.45 421.419C1152.41 425.651 1149.72 430.276 1147.43 435.327C1142.56 442.629 1117.46 459.666 1055.98 469.402C1046.68 471.122 1026.44 487.056 1011.64 535.466C1009.48 542.522 1007.44 550.269 1005.57 558.762C998.033 573.598 963.425 600.07 885.26 587.274C874.829 587.405 851.602 591.452 842.145 606.594C849.94 606.772 859.371 607.816 868.57 611.266Z" fill="#077789"/>
<path d="M558.764 636.3C578.12 631.201 621.629 621.349 640.823 622.74C664.814 624.478 708.278 616.134 729.488 608.832C743.188 604.115 752.536 606.507 761.467 608.792C766.363 610.045 771.134 611.266 776.428 611.266C785.337 611.266 799.431 609.661 810.177 608.437C817.465 607.607 823.214 606.953 824.759 607.093C825.552 607.165 827.061 607.073 829.129 606.947L829.134 606.946L829.135 606.946C832.332 606.751 836.862 606.474 842.145 606.594C851.602 591.452 874.829 587.405 885.26 587.274C963.425 600.07 998.033 573.598 1005.57 558.762C1007.44 550.269 1009.48 542.522 1011.64 535.466C1009.29 542.768 931.853 547.983 857.096 528.164C824.788 519.599 765.919 531.36 703.081 543.915C620.52 560.41 531.109 578.273 486.093 553.199C422.672 517.872 306.677 514.216 256.607 516.804C261.121 519.147 266.203 521.45 271.906 523.644C275.963 526.194 288.735 539.777 307.372 573.714C313.399 582.058 341.656 596.732 406.469 588.665C471.281 580.598 494.67 621.23 498.263 642.555C522.079 641.955 544.731 638.976 558.764 636.3Z" fill="#14919F"/>
<path d="M1055.98 469.402C1117.46 459.666 1142.56 442.629 1147.43 435.327C1149.72 430.276 1152.41 425.651 1155.45 421.419C1151.77 421.786 1143.97 423.365 1134.22 426.952C1128.59 429.023 1122.31 431.764 1115.79 435.327C1100.47 443.703 1067.41 444.272 1046.6 443.234C1043.22 443.066 1040.16 442.855 1037.56 442.629C1020.15 445.902 999.202 449.596 976.359 453.314C939.283 459.349 897.201 465.446 857.096 469.911C787.194 477.693 723.295 480.516 702.367 469.402C694.196 467.553 681.556 465.266 666.758 463.491C651.354 461.643 633.612 460.35 616.136 460.68C605.152 460.887 594.274 461.736 584.147 463.491C562.357 460.246 496.316 456.398 406.469 466.968C316.621 477.538 245.141 469.75 220.631 464.534C222.497 471.527 223.964 479.511 224.966 488.526C226.687 493.879 235.361 505.776 256.607 516.804C306.677 514.216 422.672 517.872 486.093 553.199C531.109 578.273 620.52 560.41 703.081 543.915C765.919 531.36 824.788 519.599 857.096 528.164C931.853 547.983 1009.29 542.768 1011.64 535.466C1026.44 487.056 1046.68 471.122 1055.98 469.402Z" fill="#1CA2AF"/>
<path fill-rule="evenodd" clip-rule="evenodd" d="M0 378.999C20.167 378.071 63.213 378.79 74.0614 389.082C76.3939 391.295 78.5432 394.169 80.5009 397.427C92.4945 398.122 124.757 397.427 157.859 389.082C177.673 384.087 190.869 385.072 207.451 386.309C225.497 387.656 247.552 389.302 286.51 383.866C325.072 378.486 337.451 382.264 353.571 387.185C368.701 391.803 387.126 397.427 433.59 397.427C529.557 397.427 592.839 407.88 380.391 412.737C210.432 416.622 317.688 419.448 392.56 420.376C425.387 421.766 435.538 428.79 213.531 445.758C216.283 450.961 218.676 457.204 220.631 464.534C245.141 469.75 316.621 477.538 406.469 466.968C496.316 456.398 562.357 460.246 584.147 463.491C594.274 461.736 605.152 460.887 616.136 460.68C633.753 446.665 687.207 415.09 760.086 400.904C805.561 392.052 826.256 398.276 844.013 403.616C861.829 408.974 876.686 413.442 910.643 400.904C978.446 375.869 1100.14 393.225 1134.22 426.952C1143.97 423.365 1151.77 421.786 1155.45 421.419C1184.19 381.368 1243.33 376.549 1271.81 379.694L1271.99 226.704C1247.39 214.766 1176.01 192.072 1087.28 196.801C1068.97 197.381 1017.88 195.619 960.017 183.936C943.327 178.141 897.43 171.28 847.36 190.195C784.773 213.839 714.536 156.467 760.086 166.898C780.14 171.491 780.581 166.715 781.172 160.315C781.923 152.18 782.916 141.42 824.759 143.95C884.565 147.566 891.635 140.357 887.694 136.3C899.169 116.365 952.507 87.4131 1074.06 131.085C1106.41 134.098 1191.31 138.317 1272.1 131.085L1272.18 65.5424C1252.04 69.541 1193.47 76.4951 1120.31 72.3227C1077.84 69.9002 1049.09 72.1284 1005.29 75.5233C954.791 79.4376 884.282 84.9027 749.655 86.5786C548.541 89.0821 659.831 56.0964 740.614 39.2907C797.986 39.1748 916.762 31.1544 932.896 0H319.194C314.79 7.88132 336.858 24.2698 460.363 26.7733C583.868 29.2768 528.282 45.2017 485.05 52.8512C372.425 43.3644 351.695 48.6829 334.046 53.2107C326.467 55.155 319.456 56.9535 305.982 57.3714C270.098 58.484 232.384 35.35 218.012 23.644C202.133 23.1803 155.077 23.1572 93.8807 26.7733C32.6844 30.3894 5.79511 16.458 0 9.04033V222.184C76.1477 203.755 231.711 177.955 244.785 222.184C247.219 229.601 265.509 244.159 319.194 243.046C378.602 241.815 399.316 246.306 408.594 248.318C409.796 248.578 410.807 248.797 411.684 248.957C419.334 250.348 448.541 254.868 476.01 248.957C497.985 244.228 551.23 249.536 575.106 252.782C593.535 253.477 605.635 257.858 506.608 269.819C482.616 268.892 430.043 270.306 411.684 283.38C393.325 296.453 320.585 306.212 286.51 309.458C242.583 304.01 147.567 295.48 118.916 304.937C106.883 308.909 95.3615 314.176 83.4003 319.644C59.7592 330.451 34.4025 342.042 0 345.967V378.999ZM93.8807 148.47C-75.8 137.9 23.1804 133.635 93.8807 132.823C168.985 141.446 243.858 126.449 271.906 117.872C475.81 103.099 436.05 115.13 399.633 126.15L399.625 126.152L399.621 126.153C397.23 126.877 394.853 127.596 392.56 128.303C355.356 139.777 384.911 140.821 481.226 140.125C575.676 139.443 555.101 148.124 530.988 158.297C530.512 158.498 530.035 158.699 529.557 158.901C516.591 164.38 492.595 161.226 476.51 159.112C461.969 157.201 453.892 156.14 466.274 163.074C487.137 174.757 444.137 176.055 420.029 175.243C375.256 165.273 278.983 167.414 215.02 168.837C160.759 170.044 129.751 170.734 173.158 163.074C248.819 149.722 151.832 147.775 93.8807 148.47ZM616.136 310.848C484.285 310.292 561.198 292.304 616.136 283.38C626.555 281.52 662.348 285.055 702.32 289.002C759.718 294.67 825.736 301.19 837.625 293.811C855.471 282.733 885.028 283.093 903.882 283.322C906.333 283.352 908.603 283.38 910.643 283.38C928.376 283.38 1074.06 310.848 993.397 306.328C928.863 302.712 911.338 307.835 910.643 310.848C886.651 330.32 689.154 339.36 702.367 320.584C712.937 305.563 649.284 307.835 616.136 310.848Z" fill="#5BC9DD"/>
<path d="M666.758 463.491C681.556 465.266 694.196 467.553 702.367 469.402C723.295 480.516 787.194 477.693 857.096 469.911C807.583 414.283 709.573 442.453 666.758 463.491Z" fill="#5BC9DD"/>
<path d="M976.359 453.314C999.202 449.596 1020.15 445.902 1037.56 442.629C1040.16 442.855 1043.22 443.066 1046.6 443.234C1020.45 425.802 988.877 442.691 976.359 453.314Z" fill="#5BC9DD"/>
<path d="M740.614 39.2907C659.831 56.0964 548.541 89.0821 749.655 86.5786C884.282 84.9027 954.791 79.4376 1005.29 75.5233C1049.09 72.1284 1077.84 69.9002 1120.31 72.3227C1193.47 76.4951 1252.04 69.541 1272.18 65.5424L1272.26 0H932.896C916.762 31.1544 797.986 39.1748 740.614 39.2907Z" fill="#51C3D6"/>
<path d="M93.8807 132.823C23.1804 133.635 -75.8 137.9 93.8807 148.47C151.832 147.775 248.819 149.722 173.158 163.074C129.751 170.734 160.759 170.044 215.02 168.837C278.983 167.414 375.256 165.273 420.029 175.243C444.137 176.055 487.137 174.757 466.274 163.074C453.892 156.14 461.969 157.201 476.51 159.112C492.595 161.226 516.591 164.38 529.557 158.901C530.035 158.699 530.512 158.498 530.988 158.297C555.101 148.124 575.676 139.443 481.226 140.125C384.911 140.821 355.356 139.777 392.56 128.303C394.853 127.596 397.23 126.877 399.621 126.153L399.625 126.152L399.633 126.15C436.05 115.13 475.81 103.099 271.906 117.872C243.858 126.449 168.985 141.446 93.8807 132.823Z" fill="#51C3D6"/>
<path d="M616.136 283.38C561.198 292.304 484.285 310.292 616.136 310.848C649.284 307.835 712.937 305.563 702.367 320.584C689.154 339.36 886.651 330.32 910.643 310.848C911.338 307.835 928.863 302.712 993.397 306.328C1074.06 310.848 928.376 283.38 910.643 283.38C908.603 283.38 906.333 283.352 903.882 283.322C885.028 283.093 855.471 282.733 837.625 293.811C825.736 301.19 759.718 294.67 702.32 289.002C662.348 285.055 626.555 281.52 616.136 283.38Z" fill="#51C3D6"/>
<path d="M93.8807 434.979C98.7486 455.841 115.23 488.804 142.212 453.755C147.314 447.128 152.575 441.583 157.859 437.204C140.056 420.904 103.616 414.101 87.622 412.737C90.7588 421.225 92.8761 429.677 93.8807 434.979Z" fill="#1C92AF"/>
<path d="M87.622 412.737C103.616 414.101 140.056 420.904 157.859 437.204C176.17 422.03 194.76 420.861 207.967 437.204C209.949 439.657 211.81 442.504 213.531 445.758C435.538 428.79 425.387 421.766 392.56 420.376C317.688 419.448 210.432 416.622 380.391 412.737C592.839 407.88 529.557 397.427 433.59 397.427C387.126 397.427 368.701 391.803 353.571 387.185C337.451 382.264 325.072 378.486 286.51 383.866C247.552 389.302 225.497 387.656 207.451 386.309C190.869 385.072 177.673 384.087 157.859 389.082C124.757 397.427 92.4945 398.122 80.5009 397.427C83.2639 402.025 85.6453 407.388 87.622 412.737Z" fill="#51C3D6"/>
<path d="M244.785 222.184C231.711 177.955 76.1477 203.755 0 222.184V345.967C34.4025 342.042 59.7592 330.451 83.4003 319.644C95.3615 314.176 106.883 308.909 118.916 304.937C147.567 295.48 242.583 304.01 286.51 309.458C320.585 306.212 393.325 296.453 411.684 283.38C430.043 270.306 482.616 268.892 506.608 269.819C605.635 257.858 593.535 253.477 575.106 252.782C551.23 249.536 497.985 244.228 476.01 248.957C448.541 254.868 419.334 250.348 411.684 248.957C410.807 248.797 409.796 248.578 408.594 248.318C399.316 246.306 378.602 241.815 319.194 243.046C265.509 244.159 247.219 229.601 244.785 222.184Z" fill="#63CEDD"/>
<path d="M0 0V9.04033C5.79511 16.458 32.6844 30.3894 93.8807 26.7733C155.077 23.1572 202.133 23.1803 218.012 23.644C232.384 35.35 270.098 58.484 305.982 57.3714C319.456 56.9535 326.467 55.155 334.046 53.2107C351.695 48.6829 372.425 43.3644 485.05 52.8512C528.282 45.2017 583.868 29.2768 460.363 26.7733C336.858 24.2698 314.79 7.88132 319.194 0H0Z" fill="#63CEDD"/>
<path d="M1074.06 131.085C952.507 87.4131 899.169 116.365 887.694 136.3C891.635 140.357 884.565 147.566 824.759 143.95C782.916 141.42 781.923 152.18 781.172 160.315C780.581 166.715 780.14 171.491 760.086 166.898C714.536 156.467 784.773 213.839 847.36 190.195C897.43 171.28 943.327 178.141 960.017 183.936C1017.88 195.619 1068.97 197.381 1087.28 196.801C1176.01 192.072 1247.39 214.766 1271.99 226.704L1272.1 131.085C1191.31 138.317 1106.41 134.098 1074.06 131.085Z" fill="#63CEDD"/>
<path d="M760.086 400.904C687.207 415.09 633.753 446.665 616.136 460.68C633.612 460.35 651.354 461.643 666.758 463.491C709.573 442.453 807.583 414.283 857.096 469.911C897.201 465.446 939.283 459.349 976.359 453.314C988.877 442.691 1020.45 425.802 1046.6 443.234C1067.41 444.272 1100.47 443.703 1115.79 435.327C1122.31 431.764 1128.59 429.023 1134.22 426.952C1100.14 393.225 978.446 375.869 910.643 400.904C876.686 413.442 861.829 408.974 844.013 403.616C826.256 398.276 805.561 392.052 760.086 400.904Z" fill="#63CEDD"/>
<path d="M695.066 360.106C657.63 367.524 605.219 379.716 695.066 369.146C715.581 369.494 766.764 372.136 807.376 379.925C847.988 387.714 922.582 381.084 954.803 376.796C975.897 371.58 1024 362.401 1047.64 367.408C1077.2 373.666 1065.03 371.58 1134.22 379.577C1189.57 385.975 1097.48 365.321 1044.51 354.195C1037.67 352.225 1014.05 351.135 974.275 362.54C924.553 376.796 857.445 377.143 820.241 367.408C783.036 357.672 709.67 357.118 695.066 360.106Z" fill="#6ED7E8"/>
<path d="M15.9961 271.789C33.9609 262.633 88.319 247.38 162.033 259.619C254.175 274.918 301.811 280.829 376.915 264.835C452.02 248.84 486.443 268.659 548.682 259.619C555.868 257.881 575.734 255.447 597.709 259.619C582.641 261.01 545.9 264.835 519.475 269.007C486.443 274.223 457.583 253.36 416.206 271.441C385.028 277.932 314.328 289.174 280.948 282.22C247.568 275.266 200.28 271.905 180.809 271.093C165.742 265.646 111.685 258.159 15.9961 271.789Z" fill="#6ED7E8"/>
<path d="M141.866 75.6831C75.1062 82.4054 -18.3572 93.8333 141.866 85.7665C342.145 75.6831 230.531 124.362 430.462 105.933C630.393 87.505 851.534 93.2776 502.785 89.2436C463.262 96.1977 373.021 108.02 328.236 99.6747C272.256 89.2436 317.11 75.6831 141.866 75.6831Z" fill="#6ED7E8"/>
<path d="M971.493 23.875C942.749 28.9747 873.37 36.1142 825.804 23.875C766.346 8.57596 899.17 59.6886 974.275 31.1768C1049.38 2.66497 1070.59 55.5162 1206.89 31.1768C1343.19 6.83741 1177.68 33.6107 1123.44 26.3089C1069.2 19.0071 1017.04 11.3576 971.493 23.875Z" fill="#6ED7E8"/>
<ellipse cx="213.141" cy="102.456" rx="10.0835" ry="10.0834" fill="#94E6EF" fill-opacity="0.51"/>
<ellipse cx="199.935" cy="62.47" rx="5.91101" ry="5.56328" fill="#94E6EF" fill-opacity="0.51"/>
<ellipse cx="223.226" cy="164.697" rx="4.17248" ry="4.17246" fill="#94E6EF" fill-opacity="0.51"/>
<ellipse cx="513.217" cy="233.543" rx="4.17248" ry="4.17246" fill="#94E6EF" fill-opacity="0.51"/>
<ellipse cx="500.698" cy="23.5279" rx="4.17248" ry="4.17246" fill="#94E6EF" fill-opacity="0.51"/>
<ellipse cx="527.817" cy="72.9029" rx="4.17248" ry="4.17246" fill="#94E6EF" fill-opacity="0.51"/>
<ellipse cx="757.3" cy="15.1832" rx="4.17248" ry="4.17246" fill="#94E6EF" fill-opacity="0.51"/>
<ellipse cx="971.491" cy="81.2477" rx="4.17248" ry="4.17246" fill="#94E6EF" fill-opacity="0.51"/>
<ellipse cx="967.321" cy="254.404" rx="4.17248" ry="4.17246" fill="#94E6EF" fill-opacity="0.51"/>
<ellipse cx="966.968" cy="182.776" rx="8.69266" ry="8.34492" fill="#94E6EF" fill-opacity="0.51"/>
<ellipse cx="1198.54" cy="148.006" rx="8.69266" ry="8.34492" fill="#94E6EF" fill-opacity="0.51"/>
<ellipse cx="817.455" cy="114.627" rx="8.69266" ry="8.34492" fill="#94E6EF" fill-opacity="0.51"/>
<ellipse cx="938.114" cy="221.025" rx="4.86789" ry="4.86787" fill="#94E6EF" fill-opacity="0.51"/>
<ellipse cx="944.02" cy="134.447" rx="5.91101" ry="5.21558" fill="#94E6EF" fill-opacity="0.51"/>
<ellipse cx="838.316" cy="75.3348" rx="5.91101" ry="5.91099" fill="#94E6EF" fill-opacity="0.51"/>
<ellipse cx="817.455" cy="114.627" rx="8.69266" ry="8.34492" fill="#94E6EF" fill-opacity="0.51"/>
<ellipse cx="732.615" cy="246.754" rx="6.60642" ry="6.25869" fill="#94E6EF" fill-opacity="0.51"/>
<ellipse cx="717.319" cy="383.055" rx="8.69266" ry="7.64951" fill="#94E6EF" fill-opacity="0.51"/>
<ellipse cx="735.398" cy="343.417" rx="6.60642" ry="6.25869" fill="#94E6EF" fill-opacity="0.51"/>
<ellipse cx="712.803" cy="289.175" rx="9.04036" ry="8.34492" fill="#94E6EF" fill-opacity="0.51"/>
<ellipse cx="482.617" cy="118.799" rx="9.04036" ry="8.34492" fill="#94E6EF" fill-opacity="0.51"/>
<ellipse cx="477.743" cy="202.249" rx="9.04036" ry="8.34492" fill="#94E6EF" fill-opacity="0.51"/>
<ellipse cx="712.803" cy="289.175" rx="9.04036" ry="8.34492" fill="#94E6EF" fill-opacity="0.51"/>
<ellipse cx="517.386" cy="160.176" rx="10.4312" ry="10.0834" fill="#94E6EF" fill-opacity="0.51"/>
<ellipse cx="344.925" cy="326.726" rx="4.17248" ry="4.17246" fill="#94E6EF" fill-opacity="0.51"/>
<ellipse cx="311.547" cy="291.956" rx="4.17248" ry="4.17246" fill="#94E6EF" fill-opacity="0.51"/>
<ellipse cx="344.925" cy="156.35" rx="4.17248" ry="4.17246" fill="#94E6EF" fill-opacity="0.51"/>
<ellipse cx="194.369" cy="129.23" rx="5.91101" ry="5.56328" fill="#94E6EF" fill-opacity="0.51"/>
<ellipse cx="340.057" cy="253.361" rx="9.04036" ry="7.99722" fill="#94E6EF" fill-opacity="0.51"/>
<ellipse cx="317.455" cy="207.812" rx="5.91101" ry="5.56328" fill="#94E6EF" fill-opacity="0.51"/>
<ellipse cx="223.226" cy="31.8727" rx="4.17248" ry="4.17246" fill="#94E6EF" fill-opacity="0.51"/>
<path d="M1114.46 566.36C1124.19 573.57 1123.28 588.283 1102.85 603.49C1100.38 605.342 1096.93 613.046 1102.85 629.047C1108.76 645.048 1096.34 649.048 1089.38 649.048C1087.8 649.048 1085.58 651.048 1089.38 659.049C1090.44 661.267 1091.05 663.458 1091.26 665.549C1091.38 666.754 1091.36 667.925 1091.22 669.049C1090.51 674.771 1086.5 679.271 1080.15 680.717C1078.04 681.197 1076.5 682.415 1075.39 684.051C1074.14 685.895 1073.45 688.27 1073.11 690.718C1072.64 694.147 1072.87 697.716 1073.28 700.163C1072.57 693.94 1078.26 688.31 1081.2 686.273C1094.51 690.718 1096.25 679.235 1095.46 672.939C1095.1 664.763 1097.62 650.984 1110.5 661.271C1126.61 674.131 1132.41 636.27 1122.12 629.047C1113.88 623.269 1120.8 599.601 1125.29 588.489C1128.24 567.598 1119.3 565.032 1114.46 566.36Z" fill="url(#paint0_linear_1_6979)"/>
<path d="M1078.03 649.048C1080.31 650.111 1079.44 653.46 1077.84 659.644C1076.09 666.391 1073.47 676.512 1073.11 690.718C1073.45 688.27 1074.14 685.895 1075.39 684.051C1076.5 682.415 1078.04 681.197 1080.15 680.717C1086.5 679.271 1090.51 674.771 1091.22 669.049C1091.18 667.824 1091.19 666.657 1091.26 665.549C1091.05 663.458 1090.44 661.267 1089.38 659.049C1085.58 651.048 1087.8 649.048 1089.38 649.048C1096.34 649.048 1108.76 645.048 1102.85 629.047C1096.93 613.046 1100.38 605.342 1102.85 603.49C1123.28 588.283 1124.19 573.57 1114.46 566.36C1113.88 565.931 1113.27 565.528 1112.61 565.154C1103.32 559.82 1102.23 549.597 1102.85 545.153C1104.78 538.486 1108.07 523.818 1105.75 518.484C1102.85 511.817 1078.03 517.373 1085.69 541.819C1091.81 561.376 1090.7 567.006 1089.38 567.376C1076.29 576.266 1077.77 588.489 1080.15 593.489C1087.96 616.602 1085.69 624.232 1083.58 625.158C1069.85 635.825 1074.16 645.529 1078.03 649.048Z" fill="url(#paint1_linear_1_6979)"/>
<path d="M1077.84 659.644C1079.44 653.46 1080.31 650.111 1078.03 649.048C1055.6 639.048 1074.87 629.603 1071.7 611.824C1068.53 594.045 1047.15 611.824 1063.51 588.489C1079.88 565.154 1064.57 561.82 1051.37 556.264C1038.17 550.709 1047.15 536.819 1047.15 525.151C1047.15 513.484 1023.65 535.152 1035.8 552.931C1045.51 567.154 1044.07 571.451 1042.13 571.821C1036.85 581.874 1029.46 602.283 1042.13 603.49C1054.8 604.697 1047.41 618.438 1042.13 625.158C1038.44 636.084 1037.54 658.16 1063.51 659.049C1067.83 658.493 1074.39 662.049 1066.15 680.717C1065.36 683.68 1064.25 691.051 1066.15 696.829C1067.68 696.4 1069.15 696.816 1070.38 697.529C1071.69 698.292 1072.74 699.396 1073.28 700.163C1072.87 697.716 1072.64 694.147 1073.11 690.718C1073.47 676.512 1076.09 666.391 1077.84 659.644Z" fill="url(#paint2_linear_1_6979)"/>
<path d="M1047.15 676.828C1062.78 666.605 1064.57 684.421 1063.51 694.607L1066.15 696.829C1064.25 691.051 1065.36 683.68 1066.15 680.717C1074.39 662.049 1067.83 658.493 1063.51 659.049C1037.54 658.16 1038.44 636.084 1042.13 625.158C1040.02 625.158 1040.37 621.454 1040.81 619.602C1043.56 609.379 1040.72 607.564 1038.96 607.934C1025.66 607.49 1024.97 600.341 1026.29 596.823C1029.73 570.71 1021.54 569.043 1012.83 593.489C1005.86 613.046 1015.73 622.75 1021.54 625.158C1036.59 624.047 1030.25 649.048 1028.41 652.937C1026.56 656.826 1027.61 689.606 1047.15 676.828Z" fill="url(#paint3_linear_1_6979)"/>
<path d="M1078.03 649.048C1080.31 650.111 1079.44 653.46 1077.84 659.644C1076.09 666.391 1073.47 676.512 1073.11 690.718M1078.03 649.048C1074.16 645.529 1069.85 635.825 1083.58 625.158C1085.69 624.232 1087.96 616.602 1080.15 593.489C1077.77 588.489 1076.29 576.266 1089.38 567.376C1090.7 567.006 1091.81 561.376 1085.69 541.819C1078.03 517.373 1102.85 511.817 1105.75 518.484C1108.07 523.818 1104.78 538.486 1102.85 545.153C1102.23 549.597 1103.32 559.82 1112.61 565.154C1113.27 565.528 1113.88 565.931 1114.46 566.36M1078.03 649.048C1055.6 639.048 1074.87 629.603 1071.7 611.824C1068.53 594.045 1047.15 611.824 1063.51 588.489C1079.88 565.154 1064.57 561.82 1051.37 556.264C1038.17 550.709 1047.15 536.819 1047.15 525.151C1047.15 513.484 1023.65 535.152 1035.8 552.931C1045.51 567.154 1044.07 571.451 1042.13 571.821C1036.85 581.874 1029.46 602.283 1042.13 603.49C1054.8 604.697 1047.41 618.438 1042.13 625.158M1114.46 566.36C1124.19 573.57 1123.28 588.283 1102.85 603.49C1100.38 605.342 1096.93 613.046 1102.85 629.047C1108.76 645.048 1096.34 649.048 1089.38 649.048C1087.8 649.048 1085.58 651.048 1089.38 659.049C1090.44 661.267 1091.05 663.458 1091.26 665.549M1114.46 566.36C1119.3 565.032 1128.24 567.598 1125.29 588.489C1120.8 599.601 1113.88 623.269 1122.12 629.047C1132.41 636.27 1126.61 674.131 1110.5 661.271C1097.62 650.984 1095.1 664.763 1095.46 672.939C1096.25 679.235 1094.51 690.718 1081.2 686.273C1078.26 688.31 1072.57 693.94 1073.28 700.163M1091.26 665.549C1091.19 666.657 1091.18 667.824 1091.22 669.049M1091.26 665.549C1091.83 655.804 1096.25 650.545 1098.62 649.048C1103.9 649.048 1113.67 646.493 1110.5 636.27C1107.34 626.047 1109.18 615.713 1110.5 611.824M1091.26 665.549C1091.38 666.754 1091.36 667.925 1091.22 669.049M1091.22 669.049C1090.51 674.771 1086.5 679.271 1080.15 680.717C1078.04 681.197 1076.5 682.415 1075.39 684.051M1075.39 684.051C1074.14 685.895 1073.45 688.27 1073.11 690.718M1075.39 684.051C1076.71 675.717 1083.58 673.494 1085.69 661.271C1087.8 649.048 1081.2 642.937 1085.69 636.27C1090.18 629.603 1091.76 632.381 1089.38 617.38C1087.48 605.379 1090.18 596.452 1091.76 593.489M1073.11 690.718C1072.64 694.147 1072.87 697.716 1073.28 700.163M1042.13 625.158C1040.02 625.158 1040.37 621.454 1040.81 619.602C1043.56 609.379 1040.72 607.564 1038.96 607.934C1025.66 607.49 1024.97 600.341 1026.29 596.823C1029.73 570.71 1021.54 569.043 1012.83 593.489C1005.86 613.046 1015.73 622.75 1021.54 625.158C1036.59 624.047 1030.25 649.048 1028.41 652.937C1026.56 656.826 1027.61 689.606 1047.15 676.828C1062.78 666.605 1064.57 684.421 1063.51 694.607L1066.15 696.829M1042.13 625.158C1038.44 636.084 1037.54 658.16 1063.51 659.049C1067.83 658.493 1074.39 662.049 1066.15 680.717M1066.15 680.717C1065.36 683.68 1064.25 691.051 1066.15 696.829M1066.15 680.717C1066.15 673.605 1065.1 669.975 1064.57 669.049C1059.03 661.271 1059.55 661.827 1049 666.272C1038.44 670.716 1032.1 659.049 1034.48 642.937C1036.38 630.047 1035.27 622.009 1034.48 619.602M1066.15 696.829C1067.68 696.4 1069.15 696.816 1070.38 697.529M1047.15 576.821C1045.56 579.784 1044.51 587.933 1052.96 596.823C1063.51 607.934 1051.37 616.268 1051.37 622.935C1051.37 629.603 1049 640.91 1064.57 645.715C1080.15 650.519 1075.4 668.494 1070.38 676.828C1066.36 683.495 1068.7 693.406 1070.38 697.529M1073.28 700.163C1072.74 699.396 1071.69 698.292 1070.38 697.529" stroke="#23671E" stroke-width="2" stroke-linecap="round" stroke-linejoin="round"/>
<path d="M1114.46 566.36C1124.19 573.57 1123.28 588.283 1102.85 603.49C1100.38 605.342 1096.93 613.046 1102.85 629.047C1108.76 645.048 1096.34 649.048 1089.38 649.048C1087.8 649.048 1085.58 651.048 1089.38 659.049C1090.44 661.267 1091.05 663.458 1091.26 665.549C1091.38 666.754 1091.36 667.925 1091.22 669.049C1090.51 674.771 1086.5 679.271 1080.15 680.717C1078.04 681.197 1076.5 682.415 1075.39 684.051C1074.14 685.895 1073.45 688.27 1073.11 690.718C1072.64 694.147 1072.87 697.716 1073.28 700.163C1072.57 693.94 1078.26 688.31 1081.2 686.273C1094.51 690.718 1096.25 679.235 1095.46 672.939C1095.1 664.763 1097.62 650.984 1110.5 661.271C1126.61 674.131 1132.41 636.27 1122.12 629.047C1113.88 623.269 1120.8 599.601 1125.29 588.489C1128.24 567.598 1119.3 565.032 1114.46 566.36Z" fill="url(#paint4_linear_1_6979)"/>
<path d="M1078.03 649.048C1080.31 650.111 1079.44 653.46 1077.84 659.644C1076.09 666.391 1073.47 676.512 1073.11 690.718C1073.45 688.27 1074.14 685.895 1075.39 684.051C1076.5 682.415 1078.04 681.197 1080.15 680.717C1086.5 679.271 1090.51 674.771 1091.22 669.049C1091.18 667.824 1091.19 666.657 1091.26 665.549C1091.05 663.458 1090.44 661.267 1089.38 659.049C1085.58 651.048 1087.8 649.048 1089.38 649.048C1096.34 649.048 1108.76 645.048 1102.85 629.047C1096.93 613.046 1100.38 605.342 1102.85 603.49C1123.28 588.283 1124.19 573.57 1114.46 566.36C1113.88 565.931 1113.27 565.528 1112.61 565.154C1103.32 559.82 1102.23 549.597 1102.85 545.153C1104.78 538.486 1108.07 523.818 1105.75 518.484C1102.85 511.817 1078.03 517.373 1085.69 541.819C1091.81 561.376 1090.7 567.006 1089.38 567.376C1076.29 576.266 1077.77 588.489 1080.15 593.489C1087.96 616.602 1085.69 624.232 1083.58 625.158C1069.85 635.825 1074.16 645.529 1078.03 649.048Z" fill="url(#paint5_linear_1_6979)"/>
<path d="M1077.84 659.644C1079.44 653.46 1080.31 650.111 1078.03 649.048C1055.6 639.048 1074.87 629.603 1071.7 611.824C1068.53 594.045 1047.15 611.824 1063.51 588.489C1079.88 565.154 1064.57 561.82 1051.37 556.264C1038.17 550.709 1047.15 536.819 1047.15 525.151C1047.15 513.484 1023.65 535.152 1035.8 552.931C1045.51 567.154 1044.07 571.451 1042.13 571.821C1036.85 581.874 1029.46 602.283 1042.13 603.49C1054.8 604.697 1047.41 618.438 1042.13 625.158C1038.44 636.084 1037.54 658.16 1063.51 659.049C1067.83 658.493 1074.39 662.049 1066.15 680.717C1065.36 683.68 1064.25 691.051 1066.15 696.829C1067.68 696.4 1069.15 696.816 1070.38 697.529C1071.69 698.292 1072.74 699.396 1073.28 700.163C1072.87 697.716 1072.64 694.147 1073.11 690.718C1073.47 676.512 1076.09 666.391 1077.84 659.644Z" fill="url(#paint6_linear_1_6979)"/>
<path d="M1047.15 676.828C1062.78 666.605 1064.57 684.421 1063.51 694.607L1066.15 696.829C1064.25 691.051 1065.36 683.68 1066.15 680.717C1074.39 662.049 1067.83 658.493 1063.51 659.049C1037.54 658.16 1038.44 636.084 1042.13 625.158C1040.02 625.158 1040.37 621.454 1040.81 619.602C1043.56 609.379 1040.72 607.564 1038.96 607.934C1025.66 607.49 1024.97 600.341 1026.29 596.823C1029.73 570.71 1021.54 569.043 1012.83 593.489C1005.86 613.046 1015.73 622.75 1021.54 625.158C1036.59 624.047 1030.25 649.048 1028.41 652.937C1026.56 656.826 1027.61 689.606 1047.15 676.828Z" fill="url(#paint7_linear_1_6979)"/>
<path d="M1078.03 649.048C1080.31 650.111 1079.44 653.46 1077.84 659.644C1076.09 666.391 1073.47 676.512 1073.11 690.718M1078.03 649.048C1074.16 645.529 1069.85 635.825 1083.58 625.158C1085.69 624.232 1087.96 616.602 1080.15 593.489C1077.77 588.489 1076.29 576.266 1089.38 567.376C1090.7 567.006 1091.81 561.376 1085.69 541.819C1078.03 517.373 1102.85 511.817 1105.75 518.484C1108.07 523.818 1104.78 538.486 1102.85 545.153C1102.23 549.597 1103.32 559.82 1112.61 565.154C1113.27 565.528 1113.88 565.931 1114.46 566.36M1078.03 649.048C1055.6 639.048 1074.87 629.603 1071.7 611.824C1068.53 594.045 1047.15 611.824 1063.51 588.489C1079.88 565.154 1064.57 561.82 1051.37 556.264C1038.17 550.709 1047.15 536.819 1047.15 525.151C1047.15 513.484 1023.65 535.152 1035.8 552.931C1045.51 567.154 1044.07 571.451 1042.13 571.821C1036.85 581.874 1029.46 602.283 1042.13 603.49C1054.8 604.697 1047.41 618.438 1042.13 625.158M1114.46 566.36C1124.19 573.57 1123.28 588.283 1102.85 603.49C1100.38 605.342 1096.93 613.046 1102.85 629.047C1108.76 645.048 1096.34 649.048 1089.38 649.048C1087.8 649.048 1085.58 651.048 1089.38 659.049C1090.44 661.267 1091.05 663.458 1091.26 665.549M1114.46 566.36C1119.3 565.032 1128.24 567.598 1125.29 588.489C1120.8 599.601 1113.88 623.269 1122.12 629.047C1132.41 636.27 1126.61 674.131 1110.5 661.271C1097.62 650.984 1095.1 664.763 1095.46 672.939C1096.25 679.235 1094.51 690.718 1081.2 686.273C1078.26 688.31 1072.57 693.94 1073.28 700.163M1091.26 665.549C1091.19 666.657 1091.18 667.824 1091.22 669.049M1091.26 665.549C1091.83 655.804 1096.25 650.545 1098.62 649.048C1103.9 649.048 1113.67 646.493 1110.5 636.27C1107.34 626.047 1109.18 615.713 1110.5 611.824M1091.26 665.549C1091.38 666.754 1091.36 667.925 1091.22 669.049M1091.22 669.049C1090.51 674.771 1086.5 679.271 1080.15 680.717C1078.04 681.197 1076.5 682.415 1075.39 684.051M1075.39 684.051C1074.14 685.895 1073.45 688.27 1073.11 690.718M1075.39 684.051C1076.71 675.717 1083.58 673.494 1085.69 661.271C1087.8 649.048 1081.2 642.937 1085.69 636.27C1090.18 629.603 1091.76 632.381 1089.38 617.38C1087.48 605.379 1090.18 596.452 1091.76 593.489M1073.11 690.718C1072.64 694.147 1072.87 697.716 1073.28 700.163M1042.13 625.158C1040.02 625.158 1040.37 621.454 1040.81 619.602C1043.56 609.379 1040.72 607.564 1038.96 607.934C1025.66 607.49 1024.97 600.341 1026.29 596.823C1029.73 570.71 1021.54 569.043 1012.83 593.489C1005.86 613.046 1015.73 622.75 1021.54 625.158C1036.59 624.047 1030.25 649.048 1028.41 652.937C1026.56 656.826 1027.61 689.606 1047.15 676.828C1062.78 666.605 1064.57 684.421 1063.51 694.607L1066.15 696.829M1042.13 625.158C1038.44 636.084 1037.54 658.16 1063.51 659.049C1067.83 658.493 1074.39 662.049 1066.15 680.717M1066.15 680.717C1065.36 683.68 1064.25 691.051 1066.15 696.829M1066.15 680.717C1066.15 673.605 1065.1 669.975 1064.57 669.049C1059.03 661.271 1059.55 661.827 1049 666.272C1038.44 670.716 1032.1 659.049 1034.48 642.937C1036.38 630.047 1035.27 622.009 1034.48 619.602M1066.15 696.829C1067.68 696.4 1069.15 696.816 1070.38 697.529M1047.15 576.821C1045.56 579.784 1044.51 587.933 1052.96 596.823C1063.51 607.934 1051.37 616.268 1051.37 622.935C1051.37 629.603 1049 640.91 1064.57 645.715C1080.15 650.519 1075.4 668.494 1070.38 676.828C1066.36 683.495 1068.7 693.406 1070.38 697.529M1073.28 700.163C1072.74 699.396 1071.69 698.292 1070.38 697.529" stroke="#23671E" stroke-linecap="round" stroke-linejoin="round"/>
<path d="M179.62 611.182C190.564 616.351 189.538 626.9 166.554 637.803C163.782 639.131 159.901 644.655 166.554 656.127C173.206 667.6 159.228 670.468 151.408 670.468C149.626 670.468 147.131 671.902 151.408 677.638C152.593 679.228 153.282 680.799 153.517 682.298C153.652 683.162 153.636 684.002 153.477 684.808C152.668 688.91 148.16 692.137 141.014 693.174C138.642 693.517 136.909 694.391 135.664 695.564C134.26 696.886 133.476 698.589 133.097 700.344C132.565 702.802 132.828 705.362 133.292 707.116C132.49 702.654 138.897 698.618 142.201 697.157C157.169 700.344 159.129 692.111 158.238 687.597C157.842 681.735 160.673 671.855 175.166 679.231C193.281 688.452 199.815 661.306 188.233 656.127C178.967 651.984 186.748 635.015 191.797 627.048C195.123 612.07 185.065 610.23 179.62 611.182Z" fill="url(#paint8_linear_1_6979)"/>
<path d="M138.638 670.468C141.194 671.23 140.219 673.631 138.419 678.064C136.455 682.902 133.509 690.159 133.097 700.344C133.476 698.589 134.26 696.886 135.664 695.564C136.909 694.391 138.642 693.517 141.014 693.174C148.16 692.137 152.668 688.91 153.477 684.808C153.427 683.929 153.444 683.093 153.517 682.298C153.282 680.799 152.593 679.228 151.408 677.638C147.131 671.902 149.626 670.468 151.408 670.468C159.228 670.468 173.206 667.6 166.554 656.127C159.901 644.655 163.782 639.131 166.554 637.803C189.538 626.9 190.564 616.351 179.62 611.182C178.969 610.874 178.276 610.586 177.542 610.317C167.088 606.493 165.861 599.163 166.554 595.977C168.731 591.196 172.434 580.68 169.82 576.856C166.554 572.076 138.638 576.059 147.25 593.586C154.14 607.608 152.893 611.645 151.408 611.91C136.678 618.284 138.341 627.048 141.014 630.633C149.804 647.204 147.25 652.675 144.874 653.339C129.431 660.987 134.282 667.945 138.638 670.468Z" fill="url(#paint9_linear_1_6979)"/>
<path d="M138.419 678.064C140.219 673.631 141.194 671.23 138.638 670.468C113.395 663.297 135.074 656.525 131.51 643.778C127.947 631.031 103.891 643.778 122.304 627.048C140.717 610.317 123.492 607.927 108.643 603.943C93.7942 599.96 103.891 590.001 103.891 581.636C103.891 573.271 77.4605 588.806 91.1214 601.553C102.05 611.751 100.427 614.832 98.2489 615.097C92.3093 622.305 83.994 636.938 98.2489 637.803C112.504 638.668 104.188 648.521 98.2489 653.339C94.0912 661.173 93.0815 677.001 122.304 677.638C127.155 677.24 134.539 679.789 125.274 693.174C124.383 695.298 123.136 700.583 125.274 704.726C126.994 704.418 128.644 704.717 130.025 705.227C131.506 705.775 132.677 706.566 133.292 707.116C132.828 705.362 132.565 702.802 133.097 700.344C133.509 690.159 136.455 682.902 138.419 678.064Z" fill="url(#paint10_linear_1_6979)"/>
<path d="M103.891 690.385C121.472 683.055 123.492 695.829 122.304 703.132L125.274 704.726C123.136 700.583 124.383 695.298 125.274 693.174C134.539 679.789 127.155 677.24 122.304 677.638C93.0815 677.001 94.0912 661.173 98.2489 653.339C95.8731 653.339 96.269 650.683 96.764 649.355C99.8526 642.026 96.665 640.724 94.6852 640.99C79.7175 640.671 78.9454 635.546 80.4303 633.023C84.291 614.3 75.0847 613.105 65.2845 630.633C57.4443 644.655 68.5512 651.612 75.0847 653.339C92.0124 652.542 84.8849 670.468 82.8061 673.256C80.7273 676.044 81.9152 699.547 103.891 690.385Z" fill="url(#paint11_linear_1_6979)"/>
<path d="M138.638 670.468C141.194 671.23 140.219 673.631 138.419 678.064C136.455 682.902 133.509 690.159 133.097 700.344M138.638 670.468C134.282 667.945 129.431 660.987 144.874 653.339C147.25 652.675 149.804 647.204 141.014 630.633C138.341 627.048 136.678 618.284 151.408 611.91C152.893 611.645 154.14 607.608 147.25 593.586C138.638 576.059 166.554 572.076 169.82 576.856C172.434 580.68 168.731 591.196 166.554 595.977C165.861 599.163 167.088 606.493 177.542 610.317C178.276 610.586 178.969 610.874 179.62 611.182M138.638 670.468C113.395 663.297 135.074 656.525 131.51 643.778C127.947 631.031 103.891 643.778 122.304 627.048C140.717 610.317 123.492 607.927 108.643 603.943C93.7942 599.96 103.891 590.001 103.891 581.636C103.891 573.271 77.4605 588.806 91.1214 601.553C102.05 611.751 100.427 614.832 98.2489 615.097C92.3093 622.305 83.994 636.938 98.2489 637.803C112.504 638.668 104.188 648.521 98.2489 653.339M179.62 611.182C190.564 616.351 189.538 626.9 166.554 637.803C163.782 639.131 159.901 644.655 166.554 656.127C173.206 667.6 159.228 670.468 151.408 670.468C149.626 670.468 147.131 671.902 151.408 677.638C152.593 679.228 153.282 680.799 153.517 682.298M179.62 611.182C185.065 610.23 195.123 612.07 191.797 627.048C186.748 635.015 178.967 651.984 188.233 656.127C199.815 661.306 193.281 688.452 175.166 679.231C160.673 671.855 157.842 681.735 158.238 687.597C159.129 692.111 157.169 700.344 142.201 697.157C138.897 698.618 132.49 702.654 133.292 707.116M153.517 682.298C153.444 683.093 153.427 683.929 153.477 684.808M153.517 682.298C154.155 675.311 159.13 671.541 161.802 670.468C167.741 670.468 178.73 668.635 175.166 661.306C171.602 653.976 173.681 646.567 175.166 643.778M153.517 682.298C153.652 683.162 153.636 684.002 153.477 684.808M153.477 684.808C152.668 688.91 148.16 692.137 141.014 693.174C138.642 693.517 136.909 694.391 135.664 695.564M135.664 695.564C134.26 696.886 133.476 698.589 133.097 700.344M135.664 695.564C137.145 689.588 144.874 687.995 147.25 679.231C149.626 670.468 142.201 666.086 147.25 661.306C152.299 656.526 154.08 658.517 151.408 647.762C149.269 639.158 152.299 632.757 154.08 630.633M133.097 700.344C132.565 702.802 132.828 705.362 133.292 707.116M98.2489 653.339C95.8731 653.339 96.269 650.683 96.764 649.355C99.8526 642.026 96.665 640.724 94.6852 640.99C79.7175 640.671 78.9454 635.546 80.4303 633.023C84.291 614.3 75.0847 613.105 65.2845 630.633C57.4443 644.655 68.5512 651.612 75.0847 653.339C92.0124 652.542 84.8849 670.468 82.8061 673.256C80.7273 676.044 81.9152 699.547 103.891 690.385C121.472 683.055 123.492 695.829 122.304 703.132L125.274 704.726M98.2489 653.339C94.0912 661.173 93.0815 677.001 122.304 677.638C127.155 677.24 134.539 679.789 125.274 693.174M125.274 693.174C124.383 695.298 123.136 700.583 125.274 704.726M125.274 693.174C125.274 688.075 124.086 685.472 123.492 684.808C117.255 679.231 117.849 679.63 105.97 682.816C94.0912 686.003 86.9638 677.638 89.6366 666.086C91.7748 656.844 90.5275 651.081 89.6366 649.355M125.274 704.726C126.994 704.418 128.644 704.717 130.025 705.227M103.891 618.682C102.11 620.807 100.922 626.649 110.425 633.023C122.304 640.99 108.643 646.965 108.643 651.745C108.643 656.525 105.97 664.633 123.492 668.078C141.014 671.523 135.679 684.41 130.025 690.385C125.502 695.165 128.141 702.272 130.025 705.227M133.292 707.116C132.677 706.566 131.506 705.775 130.025 705.227" stroke="#23671E" stroke-linecap="round" stroke-linejoin="round"/>
<path d="M670.446 714.1C670.337 708.306 665.543 697.075 647.239 698.505C624.358 700.292 634.818 673.975 614.225 676.574C593.633 679.173 586.442 673.163 588.73 665.365C591.018 657.568 593.633 670.564 599.843 670.888C606.054 671.213 607.034 672.35 602.131 664.39C597.228 656.43 599.843 655.943 611.284 658.705C622.724 661.466 611.61 666.177 614.225 669.264C616.84 672.351 620.436 677.386 624.685 670.888C628.934 664.39 640.701 661.954 637.106 672.026C633.51 682.098 626.973 672.675 637.106 686.321C647.239 699.967 651.488 685.509 650.181 676.574C648.873 667.639 655.084 666.502 624.685 660.817C620 658.867 609.78 653.214 606.381 646.196C602.131 637.424 616.187 644.409 620.436 651.557C624.685 658.705 627.954 651.07 618.475 643.922C608.995 636.774 614.552 632.55 620.436 635.149C626.319 637.749 627.3 637.911 627.627 644.734C627.954 651.557 632.53 648.633 633.51 651.557C634.491 654.481 630.895 659.03 639.067 660.817C647.239 662.603 654.757 663.416 655.41 669.264C656.064 675.112 661.948 684.697 662.928 669.264C663.909 653.831 663.909 652.207 652.796 647.496C641.682 642.785 633.184 650.42 635.145 626.215C635.799 623.291 638.675 620.171 644.951 631.088C644.733 637.315 645.997 646.034 652.796 631.088C651.052 623.886 650.638 613.284 662.928 628.489C665.325 629.626 667.831 633.785 658.679 641.322C657.154 642.189 656.653 645.611 666.851 652.369C669.248 652.965 673.323 656.398 670.446 665.365C669.357 666.123 667.831 667.964 670.446 669.264C673.715 670.888 671.754 679.986 665.216 681.935C658.679 683.884 655.41 694.606 662.928 696.068C670.446 697.53 671.754 703.866 682.54 690.22C693.327 676.574 696.922 677.386 692.346 670.888C686.572 670.618 675.088 668.224 675.349 660.817C675.676 651.557 681.56 643.759 684.175 657.892C682.976 660.383 683.782 665.365 696.596 665.365L698.23 647.496C698.993 646.467 698.884 643.792 692.346 641.322C684.175 638.236 674.369 628.976 688.097 635.149C701.825 641.322 693.327 634.175 690.712 627.677C688.62 622.478 682.649 620.529 679.925 620.204C677.746 617.713 675.872 613.479 685.809 616.468L692.346 621.828C690.385 616.793 689.928 608.67 703.787 616.468C706.184 617.334 708.951 620.269 700.845 625.077C699.428 625.673 697.707 628.651 702.152 635.799C701.499 638.832 700.91 645.156 703.787 646.196C707.382 647.496 721.111 632.063 721.111 630.276C721.111 628.489 718.169 602.659 727.975 625.077C729.5 629.843 728.105 641.517 710.324 650.095C707.6 650.853 702.479 654.059 703.787 660.817C705.421 669.264 702.152 688.758 698.23 691.032C694.308 693.307 677.31 702.241 685.809 707.115C696.487 704.082 717.842 696.296 717.842 689.408C717.842 680.798 717.842 669.914 715.554 667.152C713.266 664.39 713.593 651.719 722.745 663.091C722.418 667.423 723.006 673.488 727.975 663.091C734.185 650.095 748.894 662.279 735.819 667.152C722.745 672.026 733.205 680.96 744.972 675.112C756.739 669.264 756.085 680.635 741.049 680.635C729.021 680.635 724.924 685.509 724.379 687.946C725.469 691.574 724.902 699.545 713.919 702.404C700.191 705.978 700.518 704.516 692.346 711.501C685.809 717.089 675.022 715.562 670.446 714.1Z" fill="url(#paint12_linear_1_6979)" fill-opacity="0.98" stroke="#B46067" stroke-linecap="round" stroke-linejoin="round"/>
<path d="M949.81 595.64C949.761 591.777 947.617 584.29 939.43 585.243C929.196 586.434 933.875 568.889 924.664 570.622C915.454 572.355 912.238 568.348 913.261 563.15C914.285 557.951 915.454 566.615 918.232 566.832C921.01 567.048 921.448 567.806 919.255 562.5C917.062 557.193 918.232 556.868 923.349 558.709C928.465 560.55 923.495 563.691 924.664 565.749C925.834 567.806 927.442 571.164 929.343 566.832C931.243 562.5 936.506 560.875 934.898 567.59C933.29 574.304 930.366 568.023 934.898 577.12C939.43 586.217 941.33 576.579 940.746 570.622C940.161 564.666 942.939 563.908 929.343 560.117C927.247 558.818 922.676 555.049 921.156 550.37C919.255 544.522 925.542 549.179 927.442 553.944C929.343 558.709 930.805 553.619 926.565 548.854C922.325 544.089 924.811 541.273 927.442 543.006C930.074 544.738 930.512 544.847 930.658 549.395C930.805 553.944 932.851 551.995 933.29 553.944C933.728 555.893 932.12 558.926 935.775 560.117C939.43 561.308 942.792 561.85 943.085 565.749C943.377 569.648 946.009 576.037 946.447 565.749C946.886 555.46 946.886 554.377 941.915 551.236C936.945 548.096 933.144 553.186 934.021 537.049C934.313 535.1 935.6 533.02 938.407 540.298C938.309 544.45 938.874 550.262 941.915 540.298C941.136 535.497 940.95 528.428 946.447 538.565C947.519 539.323 948.64 542.096 944.547 547.121C943.864 547.699 943.64 549.98 948.202 554.485C949.274 554.883 951.096 557.171 949.81 563.15C949.322 563.655 948.64 564.882 949.81 565.749C951.272 566.832 950.394 572.897 947.471 574.196C944.547 575.496 943.085 582.644 946.447 583.618C949.81 584.593 950.394 588.817 955.219 579.719C960.043 570.622 961.651 571.164 959.605 566.832C957.022 566.651 951.886 565.056 952.003 560.117C952.149 553.944 954.78 548.746 955.95 558.168C955.414 559.828 955.774 563.15 961.505 563.15L962.236 551.236C962.577 550.551 962.528 548.767 959.605 547.121C955.95 545.063 951.564 538.89 957.704 543.006C963.844 547.121 960.043 542.356 958.874 538.024C957.938 534.558 955.268 533.259 954.049 533.042C953.075 531.381 952.236 528.558 956.681 530.551L959.605 534.125C958.727 530.768 958.523 525.353 964.721 530.551C965.793 531.129 967.031 533.085 963.406 536.291C962.772 536.688 962.002 538.674 963.99 543.439C963.698 545.46 963.435 549.677 964.721 550.37C966.33 551.236 972.47 540.948 972.47 539.757C972.47 538.565 971.154 521.346 975.54 536.291C976.222 539.468 975.598 547.251 967.645 552.969C966.427 553.475 964.137 555.612 964.721 560.117C965.452 565.749 963.99 578.745 962.236 580.261C960.482 581.777 952.88 587.734 956.681 590.983C961.456 588.961 971.008 583.77 971.008 579.178C971.008 573.438 971.008 566.182 969.984 564.341C968.961 562.5 969.107 554.052 973.201 561.633C973.054 564.521 973.318 568.565 975.54 561.633C978.317 552.969 984.896 561.092 979.048 564.341C973.201 567.59 977.879 573.546 983.142 569.648C988.405 565.749 988.112 573.33 981.387 573.33C976.008 573.33 974.175 576.579 973.932 578.203C974.419 580.622 974.165 585.936 969.253 587.842C963.113 590.225 963.259 589.25 959.605 593.907C956.681 597.632 951.856 596.614 949.81 595.64Z" fill="#017A88"/>
<path d="M410.897 592.002C410.862 589.519 409.324 584.706 403.455 585.319C396.117 586.085 399.472 574.806 392.868 575.92C386.264 577.034 383.958 574.458 384.692 571.116C385.426 567.774 386.264 573.344 388.256 573.483C390.248 573.622 390.562 574.11 388.99 570.698C387.417 567.287 388.256 567.078 391.925 568.261C395.593 569.445 392.029 571.464 392.868 572.787C393.707 574.11 394.86 576.268 396.222 573.483C397.585 570.698 401.358 569.654 400.205 573.97C399.052 578.287 396.956 574.249 400.205 580.097C403.455 585.945 404.817 579.749 404.398 575.92C403.979 572.091 405.97 571.603 396.222 569.167C394.72 568.331 391.442 565.908 390.352 562.901C388.99 559.141 393.497 562.135 394.86 565.198C396.222 568.261 397.27 564.989 394.231 561.926C391.191 558.863 392.973 557.052 394.86 558.166C396.746 559.28 397.061 559.35 397.166 562.274C397.27 565.198 398.738 563.945 399.052 565.198C399.367 566.451 398.214 568.401 400.834 569.167C403.455 569.932 405.865 570.28 406.075 572.787C406.285 575.293 408.171 579.401 408.486 572.787C408.8 566.173 408.8 565.477 405.236 563.458C401.673 561.439 398.947 564.711 399.576 554.337C399.786 553.084 400.708 551.747 402.721 556.426C402.651 559.095 403.056 562.831 405.236 556.426C404.677 553.339 404.545 548.795 408.486 555.312C409.255 555.799 410.058 557.581 407.123 560.812C406.634 561.183 406.473 562.65 409.744 565.546C410.512 565.801 411.819 567.273 410.897 571.116C410.547 571.441 410.058 572.23 410.897 572.787C411.945 573.483 411.316 577.382 409.22 578.217C407.123 579.053 406.075 583.648 408.486 584.274C410.897 584.901 411.316 587.616 414.775 581.768C418.234 575.92 419.387 576.268 417.919 573.483C416.068 573.367 412.385 572.341 412.469 569.167C412.574 565.198 414.46 561.856 415.299 567.913C414.915 568.981 415.173 571.116 419.282 571.116L419.806 563.458C420.051 563.017 420.016 561.87 417.919 560.812C415.299 559.489 412.154 555.521 416.557 558.166C420.959 560.812 418.234 557.749 417.395 554.964C416.725 552.736 414.81 551.9 413.936 551.761C413.238 550.694 412.637 548.879 415.823 550.16L417.919 552.457C417.291 550.299 417.144 546.818 421.588 550.16C422.357 550.531 423.244 551.789 420.645 553.85C420.19 554.105 419.638 555.381 421.064 558.445C420.854 559.744 420.666 562.455 421.588 562.901C422.741 563.458 427.143 556.843 427.143 556.078C427.143 555.312 426.2 544.242 429.345 553.85C429.834 555.892 429.387 560.895 423.684 564.571C422.811 564.896 421.169 566.27 421.588 569.167C422.112 572.787 421.064 581.141 419.806 582.116C418.548 583.091 413.098 586.92 415.823 589.009C419.247 587.709 426.095 584.372 426.095 581.42C426.095 577.73 426.095 573.065 425.362 571.882C424.628 570.698 424.733 565.268 427.667 570.141C427.563 571.998 427.751 574.597 429.345 570.141C431.336 564.571 436.053 569.793 431.86 571.882C427.667 573.97 431.022 577.8 434.795 575.293C438.569 572.787 438.359 577.66 433.537 577.66C429.68 577.66 428.366 579.749 428.192 580.793C428.541 582.348 428.359 585.764 424.837 586.99C420.435 588.521 420.54 587.895 417.919 590.888C415.823 593.283 412.364 592.629 410.897 592.002Z" fill="#01717E"/>
<path d="M256.165 631.672C256.13 627.257 254.572 618.7 248.625 619.79C241.191 621.151 244.59 601.1 237.899 603.08C231.209 605.061 228.872 600.481 229.616 594.54C230.359 588.599 231.209 598.501 233.227 598.748C235.244 598.996 235.563 599.862 233.97 593.797C232.377 587.733 233.227 587.361 236.943 589.465C240.66 591.57 237.05 595.159 237.899 597.511C238.749 599.862 239.917 603.699 241.297 598.748C242.678 593.797 246.501 591.941 245.333 599.615C244.165 607.289 242.041 600.11 245.333 610.507C248.625 620.903 250.006 609.888 249.581 603.08C249.156 596.273 251.174 595.406 241.297 591.074C239.775 589.589 236.455 585.282 235.35 579.935C233.97 573.251 238.536 578.574 239.917 584.02C241.297 589.465 242.359 583.648 239.28 578.202C236.2 572.756 238.005 569.538 239.917 571.519C241.828 573.499 242.147 573.623 242.253 578.821C242.359 584.02 243.846 581.792 244.165 584.02C244.483 586.247 243.315 589.713 245.97 591.074C248.625 592.436 251.068 593.055 251.28 597.511C251.492 601.966 253.404 609.269 253.723 597.511C254.041 585.752 254.041 584.515 250.43 580.925C246.82 577.336 244.059 583.153 244.696 564.711C244.908 562.483 245.843 560.107 247.882 568.424C247.811 573.169 248.222 579.811 250.43 568.424C249.864 562.937 249.73 554.859 253.723 566.444C254.501 567.31 255.315 570.479 252.342 576.222C251.846 576.882 251.684 579.489 254.997 584.638C255.776 585.092 257.1 587.708 256.165 594.54C255.811 595.118 255.315 596.52 256.165 597.511C257.227 598.748 256.59 605.68 254.466 607.165C252.342 608.65 251.28 616.819 253.723 617.933C256.165 619.047 256.59 623.874 260.094 613.477C263.599 603.08 264.767 603.699 263.28 598.748C261.404 598.542 257.673 596.718 257.758 591.074C257.864 584.02 259.776 578.078 260.625 588.847C260.236 590.744 260.498 594.54 264.661 594.54L265.192 580.925C265.44 580.141 265.404 578.103 263.28 576.222C260.625 573.87 257.439 566.815 261.9 571.519C266.36 576.222 263.599 570.776 262.749 565.825C262.07 561.864 260.13 560.379 259.245 560.132C258.537 558.234 257.928 555.007 261.156 557.285L263.28 561.369C262.643 557.532 262.494 551.344 266.997 557.285C267.776 557.945 268.675 560.181 266.041 563.845C265.581 564.299 265.022 566.568 266.466 572.014C266.254 574.324 266.063 579.143 266.997 579.935C268.165 580.925 272.626 569.167 272.626 567.805C272.626 566.444 271.67 546.764 274.856 563.845C275.351 567.475 274.898 576.37 269.121 582.906C268.236 583.483 266.572 585.926 266.997 591.074C267.528 597.511 266.466 612.363 265.192 614.096C263.917 615.829 258.395 622.636 261.156 626.349C264.625 624.039 271.564 618.106 271.564 612.858C271.564 606.298 271.564 598.006 270.82 595.902C270.077 593.797 270.183 584.143 273.157 592.807C273.05 596.108 273.242 600.729 274.856 592.807C276.873 582.906 281.652 592.188 277.404 595.902C273.157 599.615 276.555 606.422 280.378 601.966C284.201 597.511 283.989 606.175 279.104 606.175C275.196 606.175 273.865 609.888 273.688 611.744C274.042 614.509 273.857 620.582 270.289 622.76C265.829 625.483 265.935 624.369 263.28 629.691C261.156 633.949 257.652 632.786 256.165 631.672Z" fill="#025660"/>
<path d="M614.807 489.649C617.934 493.948 617.641 502.72 611.074 511.787C610.282 512.891 609.173 517.484 611.074 527.025C612.974 536.565 608.981 538.95 606.746 538.95C606.237 538.95 605.524 540.142 606.746 544.912C607.085 546.235 607.282 547.541 607.349 548.788C607.387 549.506 607.383 550.205 607.337 550.875C607.106 554.286 605.818 556.97 603.776 557.832C603.099 558.117 602.604 558.844 602.248 559.819C601.847 560.919 601.623 562.335 601.515 563.794C601.363 565.839 601.438 567.967 601.57 569.426C601.341 565.715 603.172 562.359 604.116 561.144C608.392 563.794 608.952 556.948 608.698 553.194C608.585 548.319 609.394 540.104 613.534 546.238C618.71 553.905 620.577 531.331 617.268 527.025C614.62 523.58 616.843 509.468 618.286 502.843C619.236 490.387 616.363 488.857 614.807 489.649Z" fill="#0F808D"/>
<path d="M603.098 538.95C603.828 539.583 603.549 541.581 603.035 545.267C602.474 549.29 601.632 555.324 601.515 563.794C601.623 562.335 601.847 560.919 602.248 559.819C602.604 558.844 603.099 558.117 603.776 557.832C605.818 556.97 607.106 554.286 607.337 550.875C607.323 550.144 607.328 549.449 607.349 548.788C607.282 547.541 607.085 546.235 606.746 544.912C605.524 540.142 606.237 538.95 606.746 538.95C608.981 538.95 612.974 536.565 611.074 527.025C609.173 517.484 610.282 512.891 611.074 511.787C617.641 502.72 617.934 493.948 614.807 489.649C614.621 489.393 614.423 489.153 614.213 488.93C611.226 485.75 610.876 479.655 611.074 477.005C611.696 473.029 612.754 464.284 612.007 461.104C611.074 457.129 603.098 460.442 605.558 475.017C607.527 486.677 607.17 490.034 606.746 490.255C602.538 495.555 603.013 502.843 603.776 505.824C606.288 519.604 605.558 524.154 604.88 524.706C600.467 531.066 601.853 536.852 603.098 538.95Z" fill="#0F808D"/>
<path d="M603.035 545.267C603.549 541.581 603.828 539.583 603.098 538.95C595.885 532.987 602.079 527.356 601.061 516.756C600.043 506.155 593.17 516.756 598.431 502.843C603.692 488.93 598.77 486.942 594.528 483.63C590.285 480.317 593.17 472.036 593.17 465.079C593.17 458.123 585.618 471.042 589.522 481.642C592.644 490.122 592.18 492.684 591.558 492.905C589.861 498.899 587.485 511.067 591.558 511.787C595.631 512.506 593.255 520.699 591.558 524.706C590.37 531.22 590.082 544.382 598.431 544.912C599.817 544.581 601.927 546.701 599.279 557.832C599.025 559.598 598.668 563.993 599.279 567.438C599.771 567.182 600.242 567.43 600.637 567.855C601.06 568.31 601.395 568.969 601.57 569.426C601.438 567.967 601.363 565.839 601.515 563.794C601.632 555.324 602.474 549.29 603.035 545.267Z" fill="#0F808D"/>
<path d="M593.17 555.513C598.193 549.418 598.77 560.04 598.431 566.113L599.279 567.438C598.668 563.993 599.025 559.598 599.279 557.832C601.927 546.701 599.817 544.581 598.431 544.912C590.082 544.382 590.37 531.22 591.558 524.706C590.879 524.706 590.992 522.497 591.134 521.393C592.016 515.298 591.105 514.216 590.54 514.437C586.263 514.172 586.043 509.909 586.467 507.812C587.57 492.242 584.94 491.249 582.14 505.824C579.9 517.484 583.073 523.27 584.94 524.706C589.776 524.043 587.74 538.95 587.146 541.269C586.552 543.587 586.891 563.132 593.17 555.513Z" fill="#0F808D"/>
<path d="M42.4809 507.73C45.6076 512.029 45.3144 520.801 38.7474 529.868C37.9555 530.972 36.8468 535.565 38.7474 545.106C40.6481 554.646 36.6545 557.031 34.4201 557.031C33.911 557.031 33.1982 558.223 34.4201 562.994C34.7588 564.316 34.9557 565.622 35.0226 566.869C35.0612 567.587 35.0566 568.286 35.0112 568.956C34.7803 572.367 33.4921 575.051 31.4503 575.913C30.7728 576.199 30.2776 576.925 29.9219 577.9C29.5207 579 29.2968 580.416 29.1884 581.875C29.0365 583.92 29.1116 586.048 29.2442 587.507C29.015 583.797 30.8457 580.44 31.7897 579.225C36.0662 581.875 36.6262 575.029 36.3716 571.275C36.2585 566.4 37.0674 558.185 41.2081 564.319C46.384 571.986 48.2507 549.412 44.9415 545.106C42.2942 541.661 44.5173 527.549 45.9597 520.924C46.9101 508.468 44.0364 506.938 42.4809 507.73Z" fill="#025660"/>
<path d="M30.7715 557.031C31.5018 557.665 31.2232 559.662 30.709 563.348C30.1478 567.371 29.3061 573.405 29.1884 581.875C29.2968 580.416 29.5207 579 29.9219 577.9C30.2776 576.925 30.7728 576.199 31.4503 575.913C33.4921 575.051 34.7803 572.367 35.0112 568.956C34.9971 568.225 35.0019 567.53 35.0226 566.869C34.9557 565.622 34.7588 564.316 34.4201 562.994C33.1982 558.223 33.911 557.031 34.4201 557.031C36.6545 557.031 40.6481 554.646 38.7474 545.106C36.8468 535.565 37.9555 530.972 38.7474 529.868C45.3144 520.801 45.6076 512.029 42.4809 507.73C42.2948 507.474 42.0966 507.234 41.8869 507.011C38.9002 503.831 38.5494 497.736 38.7474 495.086C39.3697 491.111 40.4275 482.365 39.6808 479.185C38.7474 475.21 30.7715 478.523 33.2322 493.098C35.2007 504.758 34.8443 508.115 34.4201 508.336C30.2115 513.636 30.6866 520.924 31.4503 523.905C33.9619 537.685 33.2322 542.235 32.5533 542.787C28.1411 549.147 29.527 554.933 30.7715 557.031Z" fill="#025660"/>
<path d="M30.709 563.348C31.2232 559.662 31.5018 557.665 30.7715 557.031C23.5592 551.068 29.7533 545.437 28.7351 534.837C27.7169 524.236 20.844 534.837 26.1047 520.924C31.3654 507.011 26.4441 505.023 22.2016 501.711C17.9591 498.398 20.844 490.117 20.844 483.16C20.844 476.204 13.2923 489.123 17.1954 499.723C20.3179 508.203 19.8541 510.765 19.2318 510.986C17.5348 516.98 15.159 529.148 19.2318 529.868C23.3046 530.587 20.9288 538.78 19.2318 542.787C18.0439 549.301 17.7554 562.464 26.1047 562.994C27.4906 562.662 29.6006 564.782 26.9532 575.913C26.6987 577.679 26.3423 582.074 26.9532 585.519C27.4446 585.263 27.9162 585.512 28.3108 585.936C28.7339 586.391 29.0686 587.05 29.2442 587.507C29.1116 586.048 29.0365 583.92 29.1884 581.875C29.3061 573.405 30.1478 567.371 30.709 563.348Z" fill="#025660"/>
<path d="M20.844 573.594C25.8671 567.499 26.4441 578.121 26.1047 584.194L26.9532 585.519C26.3423 582.074 26.6987 577.679 26.9532 575.913C29.6006 564.782 27.4906 562.662 26.1047 562.994C17.7554 562.464 18.0439 549.301 19.2318 542.787C18.553 542.787 18.6662 540.578 18.8076 539.474C19.69 533.379 18.7793 532.297 18.2136 532.518C13.9372 532.253 13.7165 527.991 14.1408 525.893C15.2438 510.323 12.6135 509.33 9.81342 523.905C7.57337 535.565 10.7468 541.351 12.6135 542.787C17.45 542.124 15.4136 557.031 14.8196 559.35C14.2256 561.668 14.565 581.213 20.844 573.594Z" fill="#025660"/>
<path d="M61.922 308.965C67.7123 313.182 67.1693 321.788 55.0083 330.682C53.5417 331.766 51.4885 336.272 55.0083 345.631C58.528 354.99 51.1324 357.33 46.9946 357.33C46.0518 357.33 44.7319 358.5 46.9946 363.179C47.622 364.477 47.9865 365.758 48.1104 366.981C48.1819 367.686 48.1734 368.371 48.0894 369.029C47.6616 372.375 45.2762 375.008 41.495 375.853C40.2404 376.134 39.3234 376.846 38.6646 377.803C37.9218 378.882 37.5071 380.271 37.3064 381.703C37.0251 383.708 37.1641 385.796 37.4096 387.227C36.9852 383.587 40.3754 380.294 42.1236 379.103C50.0429 381.703 51.08 374.987 50.6086 371.304C50.3991 366.522 51.8971 358.462 59.565 364.479C69.15 372.001 72.6069 349.856 66.4788 345.631C61.5763 342.251 65.6931 328.408 68.3644 321.908C70.1242 309.689 64.8027 308.188 61.922 308.965Z" fill="#025660"/>
<path d="M40.238 357.33C41.5905 357.951 41.0746 359.911 40.1223 363.527C39.0831 367.474 37.5242 373.394 37.3064 381.703C37.5071 380.271 37.9218 378.882 38.6646 377.803C39.3234 376.846 40.2404 376.134 41.495 375.853C45.2762 375.008 47.6616 372.375 48.0894 369.029C48.0633 368.312 48.072 367.63 48.1104 366.981C47.9865 365.758 47.622 364.477 46.9946 363.179C44.7319 358.5 46.0518 357.33 46.9946 357.33C51.1324 357.33 58.528 354.99 55.0083 345.631C51.4885 336.272 53.5417 331.766 55.0083 330.682C67.1693 321.788 67.7123 313.182 61.922 308.965C61.5774 308.714 61.2104 308.479 60.8221 308.26C55.2911 305.14 54.6416 299.161 55.0083 296.561C56.1606 292.661 58.1194 284.082 56.7367 280.962C55.0083 277.063 40.238 280.312 44.7948 294.611C48.4402 306.05 47.7803 309.343 46.9946 309.56C39.2009 314.759 40.0809 321.908 41.495 324.833C46.1461 338.352 44.7948 342.815 43.5377 343.356C35.3669 349.596 37.9334 355.272 40.238 357.33Z" fill="#025660"/>
<path d="M40.1223 363.527C41.0746 359.911 41.5905 357.951 40.238 357.33C26.8819 351.48 38.3524 345.956 36.4669 335.557C34.5813 325.158 21.8537 335.557 31.5958 321.908C41.3379 308.26 32.2243 306.31 24.3678 303.06C16.5113 299.81 21.8537 291.686 21.8537 284.862C21.8537 278.038 7.86911 290.711 15.0971 301.11C20.8795 309.43 20.0205 311.943 18.8682 312.159C15.7256 318.04 11.326 329.977 18.8682 330.682C26.4105 331.388 22.0109 339.426 18.8682 343.356C16.6684 349.747 16.1342 362.659 31.5958 363.179C34.1623 362.854 38.0696 364.934 33.1671 375.853C32.6957 377.586 32.0358 381.897 33.1671 385.277C34.0771 385.026 34.9504 385.27 35.6812 385.686C36.4648 386.133 37.0844 386.779 37.4096 387.227C37.1641 385.796 37.0251 383.708 37.3064 381.703C37.5242 373.394 39.0831 367.474 40.1223 363.527Z" fill="#025660"/>
<path d="M21.8537 373.578C31.1559 367.599 32.2243 378.019 31.5958 383.977L33.1671 385.277C32.0358 381.897 32.6957 377.586 33.1671 375.853C38.0696 364.934 34.1623 362.854 31.5958 363.179C16.1342 362.659 16.6684 349.747 18.8682 343.356C17.6112 343.356 17.8207 341.19 18.0826 340.107C19.7167 334.127 18.0302 333.066 16.9827 333.282C9.0633 333.022 8.65476 328.841 9.44041 326.783C11.4831 311.509 6.61207 310.534 1.42677 324.833C-2.72148 336.272 3.1552 341.948 6.61207 343.356C15.5685 342.706 11.7974 357.33 10.6975 359.605C9.59755 361.879 10.2261 381.053 21.8537 373.578Z" fill="#025660"/>
<g filter="url(#filter0_dg_1_6979)">
<ellipse cx="132.827" cy="710.942" rx="21.5578" ry="11.4743" fill="url(#paint13_radial_1_6979)"/>
</g>
<g filter="url(#filter1_dg_1_6979)">
<path d="M445.046 728.977C443.612 733.155 434.94 733.963 425.677 730.783C416.414 727.602 410.068 721.638 411.502 717.46C412.937 713.283 427.111 711.584 436.374 714.764C445.637 717.945 446.481 724.8 445.046 728.977Z" fill="url(#paint14_radial_1_6979)"/>
</g>
<g filter="url(#filter2_dg_1_6979)">
<ellipse cx="87.9648" cy="699.814" rx="13.5605" ry="7.30181" fill="url(#paint15_radial_1_6979)"/>
</g>
<g filter="url(#filter3_dg_1_6979)">
<path d="M634.915 718.938C634.915 723.931 626.665 727.978 616.487 727.978C606.309 727.978 599.797 732.971 599.797 727.978C599.797 722.985 606.309 709.897 616.487 709.897C626.665 709.897 634.915 713.945 634.915 718.938Z" fill="url(#paint16_radial_1_6979)"/>
</g>
<g filter="url(#filter4_dg_1_6979)">
<path d="M1080.78 699.176C1081.26 703.101 1073.95 707.236 1064.45 708.411C1054.95 709.586 1046.85 707.357 1046.37 703.431C1045.88 699.506 1057.67 692.444 1067.17 691.269C1076.68 690.094 1080.29 695.25 1080.78 699.176Z" fill="url(#paint17_radial_1_6979)"/>
</g>
<g filter="url(#filter5_dg_1_6979)">
<path d="M1000.7 701.902C998.873 707.229 984.365 712.804 975.085 709.618C965.805 706.431 954.715 705.143 956.544 699.816C958.372 694.489 972.646 681.678 981.926 684.864C991.206 688.051 1002.53 696.575 1000.7 701.902Z" fill="url(#paint18_radial_1_6979)"/>
</g>
</g>
</g>
<defs>
<filter id="filter0_dg_1_6979" x="107.27" y="695.468" width="51.1152" height="34.9485" filterUnits="userSpaceOnUse" color-interpolation-filters="sRGB">
<feFlood flood-opacity="0" result="BackgroundImageFix"/>
<feColorMatrix in="SourceAlpha" type="matrix" values="0 0 0 0 0 0 0 0 0 0 0 0 0 0 0 0 0 0 127 0" result="hardAlpha"/>
<feOffset dy="4"/>
<feGaussianBlur stdDeviation="2"/>
<feComposite in2="hardAlpha" operator="out"/>
<feColorMatrix type="matrix" values="0 0 0 0 0 0 0 0 0 0 0 0 0 0 0 0 0 0 0.25 0"/>
<feBlend mode="normal" in2="BackgroundImageFix" result="effect1_dropShadow_1_6979"/>
<feBlend mode="normal" in="SourceGraphic" in2="effect1_dropShadow_1_6979" result="shape"/>
<feTurbulence type="fractalNoise" baseFrequency="2 2" numOctaves="3" seed="1083" />
<feDisplacementMap in="shape" scale="8" xChannelSelector="R" yChannelSelector="G" result="displacedImage" width="100%" height="100%" />
<feMerge result="effect2_texture_1_6979">
<feMergeNode in="displacedImage"/>
</feMerge>
</filter>
<filter id="filter1_dg_1_6979" x="407.3" y="709.115" width="42.3008" height="31.6111" filterUnits="userSpaceOnUse" color-interpolation-filters="sRGB">
<feFlood flood-opacity="0" result="BackgroundImageFix"/>
<feColorMatrix in="SourceAlpha" type="matrix" values="0 0 0 0 0 0 0 0 0 0 0 0 0 0 0 0 0 0 127 0" result="hardAlpha"/>
<feOffset dy="4"/>
<feGaussianBlur stdDeviation="2"/>
<feComposite in2="hardAlpha" operator="out"/>
<feColorMatrix type="matrix" values="0 0 0 0 0 0 0 0 0 0 0 0 0 0 0 0 0 0 0.25 0"/>
<feBlend mode="normal" in2="BackgroundImageFix" result="effect1_dropShadow_1_6979"/>
<feBlend mode="normal" in="SourceGraphic" in2="effect1_dropShadow_1_6979" result="shape"/>
<feTurbulence type="fractalNoise" baseFrequency="2 2" numOctaves="3" seed="1083" />
<feDisplacementMap in="shape" scale="8" xChannelSelector="R" yChannelSelector="G" result="displacedImage" width="100%" height="100%" />
<feMerge result="effect2_texture_1_6979">
<feMergeNode in="displacedImage"/>
</feMerge>
</filter>
<filter id="filter2_dg_1_6979" x="70.4043" y="688.512" width="35.1211" height="26.6036" filterUnits="userSpaceOnUse" color-interpolation-filters="sRGB">
<feFlood flood-opacity="0" result="BackgroundImageFix"/>
<feColorMatrix in="SourceAlpha" type="matrix" values="0 0 0 0 0 0 0 0 0 0 0 0 0 0 0 0 0 0 127 0" result="hardAlpha"/>
<feOffset dy="4"/>
<feGaussianBlur stdDeviation="2"/>
<feComposite in2="hardAlpha" operator="out"/>
<feColorMatrix type="matrix" values="0 0 0 0 0 0 0 0 0 0 0 0 0 0 0 0 0 0 0.25 0"/>
<feBlend mode="normal" in2="BackgroundImageFix" result="effect1_dropShadow_1_6979"/>
<feBlend mode="normal" in="SourceGraphic" in2="effect1_dropShadow_1_6979" result="shape"/>
<feTurbulence type="fractalNoise" baseFrequency="2 2" numOctaves="3" seed="1083" />
<feDisplacementMap in="shape" scale="8" xChannelSelector="R" yChannelSelector="G" result="displacedImage" width="100%" height="100%" />
<feMerge result="effect2_texture_1_6979">
<feMergeNode in="displacedImage"/>
</feMerge>
</filter>
<filter id="filter3_dg_1_6979" x="595.797" y="705.897" width="43.1182" height="32.2997" filterUnits="userSpaceOnUse" color-interpolation-filters="sRGB">
<feFlood flood-opacity="0" result="BackgroundImageFix"/>
<feColorMatrix in="SourceAlpha" type="matrix" values="0 0 0 0 0 0 0 0 0 0 0 0 0 0 0 0 0 0 127 0" result="hardAlpha"/>
<feOffset dy="4"/>
<feGaussianBlur stdDeviation="2"/>
<feComposite in2="hardAlpha" operator="out"/>
<feColorMatrix type="matrix" values="0 0 0 0 0 0 0 0 0 0 0 0 0 0 0 0 0 0 0.25 0"/>
<feBlend mode="normal" in2="BackgroundImageFix" result="effect1_dropShadow_1_6979"/>
<feBlend mode="normal" in="SourceGraphic" in2="effect1_dropShadow_1_6979" result="shape"/>
<feTurbulence type="fractalNoise" baseFrequency="2 2" numOctaves="3" seed="1083" />
<feDisplacementMap in="shape" scale="8" xChannelSelector="R" yChannelSelector="G" result="displacedImage" width="100%" height="100%" />
<feMerge result="effect2_texture_1_6979">
<feMergeNode in="displacedImage"/>
</feMerge>
</filter>
<filter id="filter4_dg_1_6979" x="1042.35" y="687.099" width="42.4482" height="29.6256" filterUnits="userSpaceOnUse" color-interpolation-filters="sRGB">
<feFlood flood-opacity="0" result="BackgroundImageFix"/>
<feColorMatrix in="SourceAlpha" type="matrix" values="0 0 0 0 0 0 0 0 0 0 0 0 0 0 0 0 0 0 127 0" result="hardAlpha"/>
<feOffset dy="4"/>
<feGaussianBlur stdDeviation="2"/>
<feComposite in2="hardAlpha" operator="out"/>
<feColorMatrix type="matrix" values="0 0 0 0 0 0 0 0 0 0 0 0 0 0 0 0 0 0 0.25 0"/>
<feBlend mode="normal" in2="BackgroundImageFix" result="effect1_dropShadow_1_6979"/>
<feBlend mode="normal" in="SourceGraphic" in2="effect1_dropShadow_1_6979" result="shape"/>
<feTurbulence type="fractalNoise" baseFrequency="2 2" numOctaves="3" seed="1083" />
<feDisplacementMap in="shape" scale="8" xChannelSelector="R" yChannelSelector="G" result="displacedImage" width="100%" height="100%" />
<feMerge result="effect2_texture_1_6979">
<feMergeNode in="displacedImage"/>
</feMerge>
</filter>
<filter id="filter5_dg_1_6979" x="952.344" y="680.362" width="52.5547" height="38.1881" filterUnits="userSpaceOnUse" color-interpolation-filters="sRGB">
<feFlood flood-opacity="0" result="BackgroundImageFix"/>
<feColorMatrix in="SourceAlpha" type="matrix" values="0 0 0 0 0 0 0 0 0 0 0 0 0 0 0 0 0 0 127 0" result="hardAlpha"/>
<feOffset dy="4"/>
<feGaussianBlur stdDeviation="2"/>
<feComposite in2="hardAlpha" operator="out"/>
<feColorMatrix type="matrix" values="0 0 0 0 0 0 0 0 0 0 0 0 0 0 0 0 0 0 0.25 0"/>
<feBlend mode="normal" in2="BackgroundImageFix" result="effect1_dropShadow_1_6979"/>
<feBlend mode="normal" in="SourceGraphic" in2="effect1_dropShadow_1_6979" result="shape"/>
<feTurbulence type="fractalNoise" baseFrequency="2 2" numOctaves="3" seed="1083" />
<feDisplacementMap in="shape" scale="8" xChannelSelector="R" yChannelSelector="G" result="displacedImage" width="100%" height="100%" />
<feMerge result="effect2_texture_1_6979">
<feMergeNode in="displacedImage"/>
</feMerge>
</filter>
<linearGradient id="paint0_linear_1_6979" x1="1068.85" y1="515.879" x2="1068.85" y2="700.163" gradientUnits="userSpaceOnUse">
<stop offset="0.466346" stop-color="#46CD3C"/>
<stop offset="0.754808" stop-color="#23671E"/>
</linearGradient>
<linearGradient id="paint1_linear_1_6979" x1="1068.85" y1="515.879" x2="1068.85" y2="700.163" gradientUnits="userSpaceOnUse">
<stop offset="0.317308" stop-color="#46CD3C"/>
<stop offset="0.567308" stop-color="#23671E"/>
</linearGradient>
<linearGradient id="paint2_linear_1_6979" x1="1068.85" y1="515.879" x2="1068.85" y2="700.163" gradientUnits="userSpaceOnUse">
<stop offset="0.341346" stop-color="#46CD3C"/>
<stop offset="0.711538" stop-color="#23671E"/>
</linearGradient>
<linearGradient id="paint3_linear_1_6979" x1="1068.85" y1="515.879" x2="1068.85" y2="700.163" gradientUnits="userSpaceOnUse">
<stop offset="0.461538" stop-color="#46CD3C"/>
<stop offset="0.836538" stop-color="#23671E"/>
</linearGradient>
<linearGradient id="paint4_linear_1_6979" x1="1068.85" y1="515.879" x2="1068.85" y2="700.163" gradientUnits="userSpaceOnUse">
<stop offset="0.466346" stop-color="#46CD3C"/>
<stop offset="0.754808" stop-color="#23671E"/>
</linearGradient>
<linearGradient id="paint5_linear_1_6979" x1="1068.85" y1="515.879" x2="1068.85" y2="700.163" gradientUnits="userSpaceOnUse">
<stop offset="0.317308" stop-color="#46CD3C"/>
<stop offset="0.567308" stop-color="#23671E"/>
</linearGradient>
<linearGradient id="paint6_linear_1_6979" x1="1068.85" y1="515.879" x2="1068.85" y2="700.163" gradientUnits="userSpaceOnUse">
<stop offset="0.341346" stop-color="#46CD3C"/>
<stop offset="0.711538" stop-color="#23671E"/>
</linearGradient>
<linearGradient id="paint7_linear_1_6979" x1="1068.85" y1="515.879" x2="1068.85" y2="700.163" gradientUnits="userSpaceOnUse">
<stop offset="0.461538" stop-color="#46CD3C"/>
<stop offset="0.836538" stop-color="#23671E"/>
</linearGradient>
<linearGradient id="paint8_linear_1_6979" x1="128.304" y1="574.988" x2="128.304" y2="707.116" gradientUnits="userSpaceOnUse">
<stop offset="0.466346" stop-color="#46CD3C"/>
<stop offset="0.754808" stop-color="#23671E"/>
</linearGradient>
<linearGradient id="paint9_linear_1_6979" x1="128.304" y1="574.988" x2="128.304" y2="707.116" gradientUnits="userSpaceOnUse">
<stop offset="0.317308" stop-color="#46CD3C"/>
<stop offset="0.567308" stop-color="#23671E"/>
</linearGradient>
<linearGradient id="paint10_linear_1_6979" x1="128.304" y1="574.988" x2="128.304" y2="707.116" gradientUnits="userSpaceOnUse">
<stop offset="0.341346" stop-color="#46CD3C"/>
<stop offset="0.711538" stop-color="#23671E"/>
</linearGradient>
<linearGradient id="paint11_linear_1_6979" x1="128.304" y1="574.988" x2="128.304" y2="707.116" gradientUnits="userSpaceOnUse">
<stop offset="0.461538" stop-color="#46CD3C"/>
<stop offset="0.836538" stop-color="#23671E"/>
</linearGradient>
<linearGradient id="paint12_linear_1_6979" x1="670.729" y1="613.235" x2="670.729" y2="715.46" gradientUnits="userSpaceOnUse">
<stop offset="0.567308" stop-color="#EF747F"/>
<stop offset="1" stop-color="#AE5E65"/>
</linearGradient>
<radialGradient id="paint13_radial_1_6979" cx="0" cy="0" r="1" gradientTransform="matrix(3.82477 17.733 -33.3166 7.18591 129.003 704.683)" gradientUnits="userSpaceOnUse">
<stop offset="0.447115" stop-color="#A8A8A0"/>
<stop offset="0.975962" stop-color="#42423F"/>
</radialGradient>
<radialGradient id="paint14_radial_1_6979" cx="0" cy="0" r="1" gradientTransform="matrix(-1.03789 12.7112 -27.5467 -4.16268 426.715 718.072)" gradientUnits="userSpaceOnUse">
<stop offset="0.447115" stop-color="#A8A8A0"/>
<stop offset="0.975962" stop-color="#42423F"/>
</radialGradient>
<radialGradient id="paint15_radial_1_6979" cx="0" cy="0" r="1" gradientTransform="matrix(2.4059 11.2846 -20.9572 4.57285 85.5589 695.831)" gradientUnits="userSpaceOnUse">
<stop offset="0.447115" stop-color="#A8A8A0"/>
<stop offset="0.975962" stop-color="#42423F"/>
</radialGradient>
<radialGradient id="paint16_radial_1_6979" cx="0" cy="0" r="1" gradientTransform="matrix(3.26956 13.9714 -28.4803 5.66162 613.217 714.007)" gradientUnits="userSpaceOnUse">
<stop offset="0.447115" stop-color="#A8A8A0"/>
<stop offset="0.975962" stop-color="#42423F"/>
</radialGradient>
<radialGradient id="paint17_radial_1_6979" cx="0" cy="0" r="1" gradientTransform="matrix(4.41101 10.607 -26.0395 7.73963 1060.04 697.804)" gradientUnits="userSpaceOnUse">
<stop offset="0.447115" stop-color="#A8A8A0"/>
<stop offset="0.975962" stop-color="#42423F"/>
</radialGradient>
<radialGradient id="paint18_radial_1_6979" cx="0" cy="0" r="1" gradientTransform="matrix(-2.13667 15.9294 -28.0424 -2.87588 977.222 693.688)" gradientUnits="userSpaceOnUse">
<stop offset="0.447115" stop-color="#A8A8A0"/>
<stop offset="0.975962" stop-color="#42423F"/>
</radialGradient>
<clipPath id="clip0_1_6979">
<rect width="1200" height="750" fill="white"/>
</clipPath>
<clipPath id="clip1_1_6979">
<rect width="1200" height="750" fill="white"/>
</clipPath>
</defs>
</svg>
