<svg width="1920" height="1080" viewBox="0 0 1920 1080" fill="none" xmlns="http://www.w3.org/2000/svg">
<g clip-path="url(#clip0_649_59207)">
<rect width="1920" height="1080" fill="#EDC79B"/>
<path d="M1543.23 699.126C1704.64 715.856 1920 817.855 1920 817.855V81.0268C1920 81.0268 1852.32 67.6484 1807.39 63.5678C1740.6 57.5032 1633.27 70.2478 1566.86 81.0257C1432.22 102.88 1393.04 99.3158 1258.22 119.439C1184.79 130.398 1151.41 151.108 1077.48 149.121C1013.76 147.409 1006.35 136.295 942.621 135.155C872.448 133.901 776.296 154.984 706.271 149.121C581.144 138.645 461.524 122.294 304.475 108.962C162.006 96.8685 0 94.9966 0 94.9966V865C0 865 82.4636 859.561 140.42 854.522C301.371 840.528 265.547 721.823 508.849 721.823C650.89 721.823 777.176 699.126 909.254 679.92C1047.99 659.745 1126.92 695.854 1266.56 699.126C1374.59 701.658 1435.55 687.966 1543.23 699.126Z" fill="#E6C29A"/>
<path d="M211.455 232.74C128.638 230.987 0 216.042 0 216.042V605.747C0 605.747 1498.27 640.587 1284.03 575.058C1032.96 498.262 641.322 431.73 641.322 388.593C641.322 345.455 1503.23 329.919 1261.78 298.142C1114.31 278.736 794.349 232.741 500.815 216.042C387.808 209.613 324.62 235.135 211.455 232.74Z" fill="#EDC79B"/>
<path d="M1040.37 489.348C983.534 492.688 990.966 489.342 895.599 506.551C839.851 516.611 983.836 512.123 1040.37 515.726C1117.1 520.615 1160.07 524.217 1236.85 528.341C1356.57 534.772 1423.75 541.196 1543.63 539.809C1662.75 538.431 1729.41 531.477 1848.11 521.46C2011.27 507.691 1559.37 525.17 1374.73 515.726C1243.92 509.035 1171.13 481.665 1040.37 489.348Z" fill="#E6B379"/>
<path d="M480.934 24.277C470.317 -2.95577 453.572 10.4671 445.63 -20.7705C441.283 -37.8643 483.193 -21.2428 506.973 -25.1585C538.426 -30.3377 555.143 -42.3256 586.528 -48.2538C654.879 -61.1644 827.412 -65.4846 764.315 -43.5665C740.023 -35.1281 609.467 -40.8654 635.793 2.7574C662.119 46.3802 677.281 15.4431 703.508 59.4097C729.734 103.376 628.429 64.7801 580.322 68.2213C546.433 70.6454 502.102 81.9392 483.741 63.5273C474.774 54.5351 487.574 41.3101 480.934 24.277Z" fill="#E6C29A"/>
<path d="M807.79 947.11C802.669 1005.29 687.049 955.698 663.344 1009.66C645.922 1049.32 802.054 1021.62 887.316 1038.64C994.058 1059.95 1039.31 1104.4 1146.99 1121.02C1374.21 1156.1 1875.71 1134.91 1775.09 1099.66C1713.72 1078.17 1648.29 1111.73 1612.79 1060C1563.37 987.991 1814.65 1069.15 1818.91 1038.64C1823.17 1008.13 1677.61 940.678 1583.58 928.804C1474.84 915.073 1365.71 945.643 1211.91 937.954C1041.86 929.453 742.871 831.167 785.068 883.038C802.113 903.99 810.104 920.825 807.79 947.11Z" fill="#E6C29A"/>
<path d="M349.42 236.768C177.76 229.204 -149.785 280.016 -88.4533 280.014C-23.8471 280.012 73.9372 292.963 177.144 292.029C271.049 291.179 320.23 275.352 414.024 280.014C508.286 284.699 556.557 306.558 650.906 308.847C758.106 311.448 971.539 280.014 883.005 280.014C794.471 280.014 741.831 289.625 617.41 265.601C492.989 241.577 468.239 242.003 349.42 236.768Z" fill="#E6B379"/>
<path d="M518.42 1021.77C346.76 1014.2 19.2153 1065.02 80.5467 1065.01C145.153 1065.01 242.937 1077.96 346.144 1077.03C440.049 1076.18 489.23 1060.35 583.024 1065.01C677.286 1069.7 725.557 1091.56 819.906 1093.85C927.106 1096.45 1140.54 1065.01 1052.01 1065.01C963.471 1065.01 910.831 1074.62 786.41 1050.6C661.989 1026.58 637.239 1027 518.42 1021.77Z" fill="#E6B379"/>
<path d="M906.01 -9.53414C901.202 23.8629 796.396 -14.3393 823.365 4.44296C865.508 33.7926 970.303 18.7299 1029 31.5971C1087.7 44.4643 1084.45 49.9849 1160.1 59.9743C1193.76 64.4189 1230.34 54.3984 1210.35 40.0602C1167.83 9.55476 999.272 -43.1243 898.986 -41.4363C886.589 -41.2276 907.836 -22.2111 906.01 -9.53414Z" fill="#E6C29A"/>
<path d="M1581.58 -25.2323C1753.24 -32.7957 2080.78 18.0159 2019.45 18.0142C1954.85 18.0124 1857.06 30.9626 1753.86 30.029C1659.95 29.1795 1610.77 13.3523 1516.98 18.0142C1422.71 22.6993 1374.44 44.5577 1280.09 46.847C1172.89 49.4482 959.461 18.0142 1047.99 18.0142C1136.53 18.0142 1189.17 27.6245 1313.59 3.60056C1438.01 -20.4234 1462.76 -19.9971 1581.58 -25.2323Z" fill="#E6B379"/>
<g filter="url(#filter0_ii_649_59207)">
<path d="M658.563 901.823C658.159 899.959 654.984 886.975 660.001 886.362C675.631 884.454 681.383 874.182 693.099 881.74C699.976 886.175 698.304 895.387 698.304 899.423C698.304 903.459 688.835 907.47 681.383 907.546C672.195 907.64 659.517 906.226 658.563 901.823Z" fill="#C1C1C1"/>
</g>
<g filter="url(#filter1_ii_649_59207)">
<path d="M608.627 911.066C606.305 907.838 602.475 893.674 607.38 888.466C612.149 883.404 615.493 879.294 625.283 879.294C636.29 879.294 645.069 881.108 650.499 886.171C655.929 891.233 655.123 900.438 651.526 909.431C648.592 916.768 611.635 915.249 608.627 911.066Z" fill="#C1C1C1"/>
</g>
<g filter="url(#filter2_dii_649_59207)">
<path d="M635.212 913.759C634.808 911.895 633.483 903.313 638.473 902.505C646.766 901.164 656.564 888.004 669.845 895.562C676.957 899.609 679.791 913.345 676.669 915.373C673.547 917.401 665.484 919.406 658.032 919.482C648.844 919.576 636.166 918.162 635.212 913.759Z" fill="#C1C1C1"/>
</g>
<g filter="url(#filter3_ii_649_59207)">
<path d="M1144.56 823.823C1144.16 821.959 1140.98 808.975 1146 808.362C1161.63 806.454 1167.38 796.182 1179.1 803.74C1185.98 808.175 1184.3 817.387 1184.3 821.423C1184.3 825.459 1174.84 829.47 1167.38 829.546C1158.2 829.64 1145.52 828.226 1144.56 823.823Z" fill="#C1C1C1"/>
</g>
<g filter="url(#filter4_ii_649_59207)">
<path d="M1094.63 833.066C1092.3 829.838 1088.47 815.674 1093.38 810.466C1098.15 805.404 1101.49 801.294 1111.28 801.294C1122.29 801.294 1131.07 803.108 1136.5 808.171C1141.93 813.233 1141.12 822.438 1137.53 831.431C1134.59 838.768 1097.64 837.249 1094.63 833.066Z" fill="#C1C1C1"/>
</g>
<g filter="url(#filter5_dii_649_59207)">
<path d="M1121.21 835.759C1120.81 833.895 1119.48 825.313 1124.47 824.505C1132.77 823.164 1142.56 810.004 1155.85 817.562C1162.96 821.609 1165.79 835.345 1162.67 837.373C1159.55 839.401 1151.48 841.406 1144.03 841.482C1134.84 841.576 1122.17 840.162 1121.21 835.759Z" fill="#C1C1C1"/>
</g>
<g filter="url(#filter6_ii_649_59207)">
<path d="M1910.56 458.823C1910.16 456.959 1906.98 443.975 1912 443.362C1927.63 441.454 1933.38 431.182 1945.1 438.74C1951.98 443.175 1950.3 452.387 1950.3 456.423C1950.3 460.459 1940.84 464.47 1933.38 464.546C1924.2 464.64 1911.52 463.226 1910.56 458.823Z" fill="#C1C1C1"/>
</g>
<g filter="url(#filter7_ii_649_59207)">
<path d="M1860.63 468.066C1858.3 464.838 1854.47 450.674 1859.38 445.466C1864.15 440.404 1867.49 436.294 1877.28 436.294C1888.29 436.294 1897.07 438.108 1902.5 443.171C1907.93 448.233 1907.12 457.438 1903.53 466.431C1900.59 473.768 1863.64 472.249 1860.63 468.066Z" fill="#C1C1C1"/>
</g>
<g filter="url(#filter8_dii_649_59207)">
<path d="M1887.21 470.759C1886.81 468.895 1885.48 460.313 1890.47 459.505C1898.77 458.164 1908.56 445.004 1921.85 452.562C1928.96 456.609 1931.79 470.345 1928.67 472.373C1925.55 474.401 1917.48 476.406 1910.03 476.482C1900.84 476.576 1888.17 475.162 1887.21 470.759Z" fill="#C1C1C1"/>
</g>
<g filter="url(#filter9_ii_649_59207)">
<path d="M1276.56 210.823C1276.16 208.959 1272.98 195.975 1278 195.362C1293.63 193.454 1299.38 183.182 1311.1 190.74C1317.98 195.175 1316.3 204.387 1316.3 208.423C1316.3 212.459 1306.84 216.47 1299.38 216.546C1290.2 216.64 1277.52 215.226 1276.56 210.823Z" fill="#C1C1C1"/>
</g>
<g filter="url(#filter10_ii_649_59207)">
<path d="M1226.63 220.066C1224.3 216.838 1220.47 202.674 1225.38 197.466C1230.15 192.404 1233.49 188.294 1243.28 188.294C1254.29 188.294 1263.07 190.108 1268.5 195.171C1273.93 200.233 1273.12 209.438 1269.53 218.431C1266.59 225.768 1229.64 224.249 1226.63 220.066Z" fill="#C1C1C1"/>
</g>
<g filter="url(#filter11_dii_649_59207)">
<path d="M1253.21 222.759C1252.81 220.895 1251.48 212.313 1256.47 211.505C1264.77 210.164 1274.56 197.004 1287.85 204.562C1294.96 208.609 1297.79 222.345 1294.67 224.373C1291.55 226.401 1283.48 228.406 1276.03 228.482C1266.84 228.576 1254.17 227.162 1253.21 222.759Z" fill="#C1C1C1"/>
</g>
<g filter="url(#filter12_dii_649_59207)">
<path d="M677.573 819.269C685.083 835.327 725.16 835.327 736.425 819.269C747.689 803.212 719.406 759.784 701.712 765.518C686.838 770.338 670.064 803.212 677.573 819.269Z" fill="#8F8477"/>
</g>
<g filter="url(#filter13_ii_649_59207)">
<path d="M639 826.239C639 837.481 650.466 840.844 662.647 842.194C674.048 843.458 685.549 841.635 689.896 835.601C699.211 822.673 670.469 798.365 662.647 798.365C647.605 798.365 639 814.382 639 826.239Z" fill="#8F8477"/>
</g>
<g filter="url(#filter14_dii_649_59207)">
<path d="M1159.57 167.269C1167.08 183.327 1207.16 183.327 1218.42 167.269C1229.69 151.212 1201.41 107.784 1183.71 113.518C1168.84 118.338 1152.06 151.212 1159.57 167.269Z" fill="#8F8477"/>
</g>
<g filter="url(#filter15_ii_649_59207)">
<path d="M1121 174.239C1121 185.481 1132.47 188.844 1144.65 190.194C1156.05 191.458 1167.55 189.635 1171.9 183.601C1181.21 170.673 1152.47 146.365 1144.65 146.365C1129.61 146.365 1121 162.382 1121 174.239Z" fill="#8F8477"/>
</g>
</g>
<defs>
<filter id="filter0_ii_649_59207" x="649.201" y="871" width="49.2819" height="36.5508" filterUnits="userSpaceOnUse" color-interpolation-filters="sRGB">
<feFlood flood-opacity="0" result="BackgroundImageFix"/>
<feBlend mode="normal" in="SourceGraphic" in2="BackgroundImageFix" result="shape"/>
<feColorMatrix in="SourceAlpha" type="matrix" values="0 0 0 0 0 0 0 0 0 0 0 0 0 0 0 0 0 0 127 0" result="hardAlpha"/>
<feOffset dx="-20" dy="-30"/>
<feGaussianBlur stdDeviation="4"/>
<feComposite in2="hardAlpha" operator="arithmetic" k2="-1" k3="1"/>
<feColorMatrix type="matrix" values="0 0 0 0 0 0 0 0 0 0 0 0 0 0 0 0 0 0 0.1 0"/>
<feBlend mode="normal" in2="shape" result="effect1_innerShadow_649_59207"/>
<feColorMatrix in="SourceAlpha" type="matrix" values="0 0 0 0 0 0 0 0 0 0 0 0 0 0 0 0 0 0 127 0" result="hardAlpha"/>
<feOffset dx="-10" dy="-5"/>
<feGaussianBlur stdDeviation="2"/>
<feComposite in2="hardAlpha" operator="arithmetic" k2="-1" k3="1"/>
<feColorMatrix type="matrix" values="0 0 0 0 0 0 0 0 0 0 0 0 0 0 0 0 0 0 0.25 0"/>
<feBlend mode="normal" in2="effect1_innerShadow_649_59207" result="effect2_innerShadow_649_59207"/>
</filter>
<filter id="filter1_ii_649_59207" x="600" y="871.294" width="54.3982" height="43.2744" filterUnits="userSpaceOnUse" color-interpolation-filters="sRGB">
<feFlood flood-opacity="0" result="BackgroundImageFix"/>
<feBlend mode="normal" in="SourceGraphic" in2="BackgroundImageFix" result="shape"/>
<feColorMatrix in="SourceAlpha" type="matrix" values="0 0 0 0 0 0 0 0 0 0 0 0 0 0 0 0 0 0 127 0" result="hardAlpha"/>
<feOffset dx="-5" dy="-10"/>
<feGaussianBlur stdDeviation="4"/>
<feComposite in2="hardAlpha" operator="arithmetic" k2="-1" k3="1"/>
<feColorMatrix type="matrix" values="0 0 0 0 0 0 0 0 0 0 0 0 0 0 0 0 0 0 0.25 0"/>
<feBlend mode="normal" in2="shape" result="effect1_innerShadow_649_59207"/>
<feColorMatrix in="SourceAlpha" type="matrix" values="0 0 0 0 0 0 0 0 0 0 0 0 0 0 0 0 0 0 127 0" result="hardAlpha"/>
<feOffset dx="-15" dy="-10"/>
<feGaussianBlur stdDeviation="2"/>
<feComposite in2="hardAlpha" operator="arithmetic" k2="-1" k3="1"/>
<feColorMatrix type="matrix" values="0 0 0 0 0 0 0 0 0 0 0 0 0 0 0 0 0 0 0.1 0"/>
<feBlend mode="normal" in2="effect1_innerShadow_649_59207" result="effect2_innerShadow_649_59207"/>
</filter>
<filter id="filter2_dii_649_59207" x="589.748" y="838.235" width="143.181" height="126.251" filterUnits="userSpaceOnUse" color-interpolation-filters="sRGB">
<feFlood flood-opacity="0" result="BackgroundImageFix"/>
<feColorMatrix in="SourceAlpha" type="matrix" values="0 0 0 0 0 0 0 0 0 0 0 0 0 0 0 0 0 0 127 0" result="hardAlpha"/>
<feOffset dx="5" dy="-5"/>
<feGaussianBlur stdDeviation="25"/>
<feComposite in2="hardAlpha" operator="out"/>
<feColorMatrix type="matrix" values="0 0 0 0 0 0 0 0 0 0 0 0 0 0 0 0 0 0 0.25 0"/>
<feBlend mode="normal" in2="BackgroundImageFix" result="effect1_dropShadow_649_59207"/>
<feBlend mode="normal" in="SourceGraphic" in2="effect1_dropShadow_649_59207" result="shape"/>
<feColorMatrix in="SourceAlpha" type="matrix" values="0 0 0 0 0 0 0 0 0 0 0 0 0 0 0 0 0 0 127 0" result="hardAlpha"/>
<feOffset dx="-25" dy="-10"/>
<feGaussianBlur stdDeviation="2"/>
<feComposite in2="hardAlpha" operator="arithmetic" k2="-1" k3="1"/>
<feColorMatrix type="matrix" values="0 0 0 0 0 0 0 0 0 0 0 0 0 0 0 0 0 0 0.1 0"/>
<feBlend mode="normal" in2="shape" result="effect2_innerShadow_649_59207"/>
<feColorMatrix in="SourceAlpha" type="matrix" values="0 0 0 0 0 0 0 0 0 0 0 0 0 0 0 0 0 0 127 0" result="hardAlpha"/>
<feOffset dx="-15" dy="-10"/>
<feGaussianBlur stdDeviation="2"/>
<feComposite in2="hardAlpha" operator="arithmetic" k2="-1" k3="1"/>
<feColorMatrix type="matrix" values="0 0 0 0 0 0 0 0 0 0 0 0 0 0 0 0 0 0 0.25 0"/>
<feBlend mode="normal" in2="effect2_innerShadow_649_59207" result="effect3_innerShadow_649_59207"/>
</filter>
<filter id="filter3_ii_649_59207" x="1135.2" y="793" width="49.2819" height="36.5508" filterUnits="userSpaceOnUse" color-interpolation-filters="sRGB">
<feFlood flood-opacity="0" result="BackgroundImageFix"/>
<feBlend mode="normal" in="SourceGraphic" in2="BackgroundImageFix" result="shape"/>
<feColorMatrix in="SourceAlpha" type="matrix" values="0 0 0 0 0 0 0 0 0 0 0 0 0 0 0 0 0 0 127 0" result="hardAlpha"/>
<feOffset dx="-20" dy="-30"/>
<feGaussianBlur stdDeviation="4"/>
<feComposite in2="hardAlpha" operator="arithmetic" k2="-1" k3="1"/>
<feColorMatrix type="matrix" values="0 0 0 0 0 0 0 0 0 0 0 0 0 0 0 0 0 0 0.1 0"/>
<feBlend mode="normal" in2="shape" result="effect1_innerShadow_649_59207"/>
<feColorMatrix in="SourceAlpha" type="matrix" values="0 0 0 0 0 0 0 0 0 0 0 0 0 0 0 0 0 0 127 0" result="hardAlpha"/>
<feOffset dx="-10" dy="-5"/>
<feGaussianBlur stdDeviation="2"/>
<feComposite in2="hardAlpha" operator="arithmetic" k2="-1" k3="1"/>
<feColorMatrix type="matrix" values="0 0 0 0 0 0 0 0 0 0 0 0 0 0 0 0 0 0 0.25 0"/>
<feBlend mode="normal" in2="effect1_innerShadow_649_59207" result="effect2_innerShadow_649_59207"/>
</filter>
<filter id="filter4_ii_649_59207" x="1086" y="793.294" width="54.3982" height="43.2744" filterUnits="userSpaceOnUse" color-interpolation-filters="sRGB">
<feFlood flood-opacity="0" result="BackgroundImageFix"/>
<feBlend mode="normal" in="SourceGraphic" in2="BackgroundImageFix" result="shape"/>
<feColorMatrix in="SourceAlpha" type="matrix" values="0 0 0 0 0 0 0 0 0 0 0 0 0 0 0 0 0 0 127 0" result="hardAlpha"/>
<feOffset dx="-5" dy="-10"/>
<feGaussianBlur stdDeviation="4"/>
<feComposite in2="hardAlpha" operator="arithmetic" k2="-1" k3="1"/>
<feColorMatrix type="matrix" values="0 0 0 0 0 0 0 0 0 0 0 0 0 0 0 0 0 0 0.25 0"/>
<feBlend mode="normal" in2="shape" result="effect1_innerShadow_649_59207"/>
<feColorMatrix in="SourceAlpha" type="matrix" values="0 0 0 0 0 0 0 0 0 0 0 0 0 0 0 0 0 0 127 0" result="hardAlpha"/>
<feOffset dx="-15" dy="-10"/>
<feGaussianBlur stdDeviation="2"/>
<feComposite in2="hardAlpha" operator="arithmetic" k2="-1" k3="1"/>
<feColorMatrix type="matrix" values="0 0 0 0 0 0 0 0 0 0 0 0 0 0 0 0 0 0 0.1 0"/>
<feBlend mode="normal" in2="effect1_innerShadow_649_59207" result="effect2_innerShadow_649_59207"/>
</filter>
<filter id="filter5_dii_649_59207" x="1075.75" y="760.235" width="143.181" height="126.251" filterUnits="userSpaceOnUse" color-interpolation-filters="sRGB">
<feFlood flood-opacity="0" result="BackgroundImageFix"/>
<feColorMatrix in="SourceAlpha" type="matrix" values="0 0 0 0 0 0 0 0 0 0 0 0 0 0 0 0 0 0 127 0" result="hardAlpha"/>
<feOffset dx="5" dy="-5"/>
<feGaussianBlur stdDeviation="25"/>
<feComposite in2="hardAlpha" operator="out"/>
<feColorMatrix type="matrix" values="0 0 0 0 0 0 0 0 0 0 0 0 0 0 0 0 0 0 0.25 0"/>
<feBlend mode="normal" in2="BackgroundImageFix" result="effect1_dropShadow_649_59207"/>
<feBlend mode="normal" in="SourceGraphic" in2="effect1_dropShadow_649_59207" result="shape"/>
<feColorMatrix in="SourceAlpha" type="matrix" values="0 0 0 0 0 0 0 0 0 0 0 0 0 0 0 0 0 0 127 0" result="hardAlpha"/>
<feOffset dx="-25" dy="-10"/>
<feGaussianBlur stdDeviation="2"/>
<feComposite in2="hardAlpha" operator="arithmetic" k2="-1" k3="1"/>
<feColorMatrix type="matrix" values="0 0 0 0 0 0 0 0 0 0 0 0 0 0 0 0 0 0 0.1 0"/>
<feBlend mode="normal" in2="shape" result="effect2_innerShadow_649_59207"/>
<feColorMatrix in="SourceAlpha" type="matrix" values="0 0 0 0 0 0 0 0 0 0 0 0 0 0 0 0 0 0 127 0" result="hardAlpha"/>
<feOffset dx="-15" dy="-10"/>
<feGaussianBlur stdDeviation="2"/>
<feComposite in2="hardAlpha" operator="arithmetic" k2="-1" k3="1"/>
<feColorMatrix type="matrix" values="0 0 0 0 0 0 0 0 0 0 0 0 0 0 0 0 0 0 0.25 0"/>
<feBlend mode="normal" in2="effect2_innerShadow_649_59207" result="effect3_innerShadow_649_59207"/>
</filter>
<filter id="filter6_ii_649_59207" x="1901.2" y="428" width="49.2819" height="36.5508" filterUnits="userSpaceOnUse" color-interpolation-filters="sRGB">
<feFlood flood-opacity="0" result="BackgroundImageFix"/>
<feBlend mode="normal" in="SourceGraphic" in2="BackgroundImageFix" result="shape"/>
<feColorMatrix in="SourceAlpha" type="matrix" values="0 0 0 0 0 0 0 0 0 0 0 0 0 0 0 0 0 0 127 0" result="hardAlpha"/>
<feOffset dx="-20" dy="-30"/>
<feGaussianBlur stdDeviation="4"/>
<feComposite in2="hardAlpha" operator="arithmetic" k2="-1" k3="1"/>
<feColorMatrix type="matrix" values="0 0 0 0 0 0 0 0 0 0 0 0 0 0 0 0 0 0 0.1 0"/>
<feBlend mode="normal" in2="shape" result="effect1_innerShadow_649_59207"/>
<feColorMatrix in="SourceAlpha" type="matrix" values="0 0 0 0 0 0 0 0 0 0 0 0 0 0 0 0 0 0 127 0" result="hardAlpha"/>
<feOffset dx="-10" dy="-5"/>
<feGaussianBlur stdDeviation="2"/>
<feComposite in2="hardAlpha" operator="arithmetic" k2="-1" k3="1"/>
<feColorMatrix type="matrix" values="0 0 0 0 0 0 0 0 0 0 0 0 0 0 0 0 0 0 0.25 0"/>
<feBlend mode="normal" in2="effect1_innerShadow_649_59207" result="effect2_innerShadow_649_59207"/>
</filter>
<filter id="filter7_ii_649_59207" x="1852" y="428.294" width="54.3982" height="43.2744" filterUnits="userSpaceOnUse" color-interpolation-filters="sRGB">
<feFlood flood-opacity="0" result="BackgroundImageFix"/>
<feBlend mode="normal" in="SourceGraphic" in2="BackgroundImageFix" result="shape"/>
<feColorMatrix in="SourceAlpha" type="matrix" values="0 0 0 0 0 0 0 0 0 0 0 0 0 0 0 0 0 0 127 0" result="hardAlpha"/>
<feOffset dx="-5" dy="-10"/>
<feGaussianBlur stdDeviation="4"/>
<feComposite in2="hardAlpha" operator="arithmetic" k2="-1" k3="1"/>
<feColorMatrix type="matrix" values="0 0 0 0 0 0 0 0 0 0 0 0 0 0 0 0 0 0 0.25 0"/>
<feBlend mode="normal" in2="shape" result="effect1_innerShadow_649_59207"/>
<feColorMatrix in="SourceAlpha" type="matrix" values="0 0 0 0 0 0 0 0 0 0 0 0 0 0 0 0 0 0 127 0" result="hardAlpha"/>
<feOffset dx="-15" dy="-10"/>
<feGaussianBlur stdDeviation="2"/>
<feComposite in2="hardAlpha" operator="arithmetic" k2="-1" k3="1"/>
<feColorMatrix type="matrix" values="0 0 0 0 0 0 0 0 0 0 0 0 0 0 0 0 0 0 0.1 0"/>
<feBlend mode="normal" in2="effect1_innerShadow_649_59207" result="effect2_innerShadow_649_59207"/>
</filter>
<filter id="filter8_dii_649_59207" x="1841.75" y="395.235" width="143.181" height="126.251" filterUnits="userSpaceOnUse" color-interpolation-filters="sRGB">
<feFlood flood-opacity="0" result="BackgroundImageFix"/>
<feColorMatrix in="SourceAlpha" type="matrix" values="0 0 0 0 0 0 0 0 0 0 0 0 0 0 0 0 0 0 127 0" result="hardAlpha"/>
<feOffset dx="5" dy="-5"/>
<feGaussianBlur stdDeviation="25"/>
<feComposite in2="hardAlpha" operator="out"/>
<feColorMatrix type="matrix" values="0 0 0 0 0 0 0 0 0 0 0 0 0 0 0 0 0 0 0.25 0"/>
<feBlend mode="normal" in2="BackgroundImageFix" result="effect1_dropShadow_649_59207"/>
<feBlend mode="normal" in="SourceGraphic" in2="effect1_dropShadow_649_59207" result="shape"/>
<feColorMatrix in="SourceAlpha" type="matrix" values="0 0 0 0 0 0 0 0 0 0 0 0 0 0 0 0 0 0 127 0" result="hardAlpha"/>
<feOffset dx="-25" dy="-10"/>
<feGaussianBlur stdDeviation="2"/>
<feComposite in2="hardAlpha" operator="arithmetic" k2="-1" k3="1"/>
<feColorMatrix type="matrix" values="0 0 0 0 0 0 0 0 0 0 0 0 0 0 0 0 0 0 0.1 0"/>
<feBlend mode="normal" in2="shape" result="effect2_innerShadow_649_59207"/>
<feColorMatrix in="SourceAlpha" type="matrix" values="0 0 0 0 0 0 0 0 0 0 0 0 0 0 0 0 0 0 127 0" result="hardAlpha"/>
<feOffset dx="-15" dy="-10"/>
<feGaussianBlur stdDeviation="2"/>
<feComposite in2="hardAlpha" operator="arithmetic" k2="-1" k3="1"/>
<feColorMatrix type="matrix" values="0 0 0 0 0 0 0 0 0 0 0 0 0 0 0 0 0 0 0.25 0"/>
<feBlend mode="normal" in2="effect2_innerShadow_649_59207" result="effect3_innerShadow_649_59207"/>
</filter>
<filter id="filter9_ii_649_59207" x="1267.2" y="180" width="49.2819" height="36.5505" filterUnits="userSpaceOnUse" color-interpolation-filters="sRGB">
<feFlood flood-opacity="0" result="BackgroundImageFix"/>
<feBlend mode="normal" in="SourceGraphic" in2="BackgroundImageFix" result="shape"/>
<feColorMatrix in="SourceAlpha" type="matrix" values="0 0 0 0 0 0 0 0 0 0 0 0 0 0 0 0 0 0 127 0" result="hardAlpha"/>
<feOffset dx="-20" dy="-30"/>
<feGaussianBlur stdDeviation="4"/>
<feComposite in2="hardAlpha" operator="arithmetic" k2="-1" k3="1"/>
<feColorMatrix type="matrix" values="0 0 0 0 0 0 0 0 0 0 0 0 0 0 0 0 0 0 0.1 0"/>
<feBlend mode="normal" in2="shape" result="effect1_innerShadow_649_59207"/>
<feColorMatrix in="SourceAlpha" type="matrix" values="0 0 0 0 0 0 0 0 0 0 0 0 0 0 0 0 0 0 127 0" result="hardAlpha"/>
<feOffset dx="-10" dy="-5"/>
<feGaussianBlur stdDeviation="2"/>
<feComposite in2="hardAlpha" operator="arithmetic" k2="-1" k3="1"/>
<feColorMatrix type="matrix" values="0 0 0 0 0 0 0 0 0 0 0 0 0 0 0 0 0 0 0.25 0"/>
<feBlend mode="normal" in2="effect1_innerShadow_649_59207" result="effect2_innerShadow_649_59207"/>
</filter>
<filter id="filter10_ii_649_59207" x="1218" y="180.294" width="54.3982" height="43.2742" filterUnits="userSpaceOnUse" color-interpolation-filters="sRGB">
<feFlood flood-opacity="0" result="BackgroundImageFix"/>
<feBlend mode="normal" in="SourceGraphic" in2="BackgroundImageFix" result="shape"/>
<feColorMatrix in="SourceAlpha" type="matrix" values="0 0 0 0 0 0 0 0 0 0 0 0 0 0 0 0 0 0 127 0" result="hardAlpha"/>
<feOffset dx="-5" dy="-10"/>
<feGaussianBlur stdDeviation="4"/>
<feComposite in2="hardAlpha" operator="arithmetic" k2="-1" k3="1"/>
<feColorMatrix type="matrix" values="0 0 0 0 0 0 0 0 0 0 0 0 0 0 0 0 0 0 0.25 0"/>
<feBlend mode="normal" in2="shape" result="effect1_innerShadow_649_59207"/>
<feColorMatrix in="SourceAlpha" type="matrix" values="0 0 0 0 0 0 0 0 0 0 0 0 0 0 0 0 0 0 127 0" result="hardAlpha"/>
<feOffset dx="-15" dy="-10"/>
<feGaussianBlur stdDeviation="2"/>
<feComposite in2="hardAlpha" operator="arithmetic" k2="-1" k3="1"/>
<feColorMatrix type="matrix" values="0 0 0 0 0 0 0 0 0 0 0 0 0 0 0 0 0 0 0.1 0"/>
<feBlend mode="normal" in2="effect1_innerShadow_649_59207" result="effect2_innerShadow_649_59207"/>
</filter>
<filter id="filter11_dii_649_59207" x="1207.75" y="147.235" width="143.181" height="126.251" filterUnits="userSpaceOnUse" color-interpolation-filters="sRGB">
<feFlood flood-opacity="0" result="BackgroundImageFix"/>
<feColorMatrix in="SourceAlpha" type="matrix" values="0 0 0 0 0 0 0 0 0 0 0 0 0 0 0 0 0 0 127 0" result="hardAlpha"/>
<feOffset dx="5" dy="-5"/>
<feGaussianBlur stdDeviation="25"/>
<feComposite in2="hardAlpha" operator="out"/>
<feColorMatrix type="matrix" values="0 0 0 0 0 0 0 0 0 0 0 0 0 0 0 0 0 0 0.25 0"/>
<feBlend mode="normal" in2="BackgroundImageFix" result="effect1_dropShadow_649_59207"/>
<feBlend mode="normal" in="SourceGraphic" in2="effect1_dropShadow_649_59207" result="shape"/>
<feColorMatrix in="SourceAlpha" type="matrix" values="0 0 0 0 0 0 0 0 0 0 0 0 0 0 0 0 0 0 127 0" result="hardAlpha"/>
<feOffset dx="-25" dy="-10"/>
<feGaussianBlur stdDeviation="2"/>
<feComposite in2="hardAlpha" operator="arithmetic" k2="-1" k3="1"/>
<feColorMatrix type="matrix" values="0 0 0 0 0 0 0 0 0 0 0 0 0 0 0 0 0 0 0.1 0"/>
<feBlend mode="normal" in2="shape" result="effect2_innerShadow_649_59207"/>
<feColorMatrix in="SourceAlpha" type="matrix" values="0 0 0 0 0 0 0 0 0 0 0 0 0 0 0 0 0 0 127 0" result="hardAlpha"/>
<feOffset dx="-15" dy="-10"/>
<feGaussianBlur stdDeviation="2"/>
<feComposite in2="hardAlpha" operator="arithmetic" k2="-1" k3="1"/>
<feColorMatrix type="matrix" values="0 0 0 0 0 0 0 0 0 0 0 0 0 0 0 0 0 0 0.25 0"/>
<feBlend mode="normal" in2="effect2_innerShadow_649_59207" result="effect3_innerShadow_649_59207"/>
</filter>
<filter id="filter12_dii_649_59207" x="673.72" y="763" width="68.7799" height="70.8125" filterUnits="userSpaceOnUse" color-interpolation-filters="sRGB">
<feFlood flood-opacity="0" result="BackgroundImageFix"/>
<feColorMatrix in="SourceAlpha" type="matrix" values="0 0 0 0 0 0 0 0 0 0 0 0 0 0 0 0 0 0 127 0" result="hardAlpha"/>
<feOffset dx="1.5" dy="0.5"/>
<feGaussianBlur stdDeviation="1"/>
<feComposite in2="hardAlpha" operator="out"/>
<feColorMatrix type="matrix" values="0 0 0 0 0 0 0 0 0 0 0 0 0 0 0 0 0 0 0.25 0"/>
<feBlend mode="normal" in2="BackgroundImageFix" result="effect1_dropShadow_649_59207"/>
<feBlend mode="normal" in="SourceGraphic" in2="effect1_dropShadow_649_59207" result="shape"/>
<feColorMatrix in="SourceAlpha" type="matrix" values="0 0 0 0 0 0 0 0 0 0 0 0 0 0 0 0 0 0 127 0" result="hardAlpha"/>
<feOffset dx="-5" dy="-15"/>
<feGaussianBlur stdDeviation="1"/>
<feComposite in2="hardAlpha" operator="arithmetic" k2="-1" k3="1"/>
<feColorMatrix type="matrix" values="0 0 0 0 0 0 0 0 0 0 0 0 0 0 0 0 0 0 0.15 0"/>
<feBlend mode="normal" in2="shape" result="effect2_innerShadow_649_59207"/>
<feColorMatrix in="SourceAlpha" type="matrix" values="0 0 0 0 0 0 0 0 0 0 0 0 0 0 0 0 0 0 127 0" result="hardAlpha"/>
<feOffset dx="-3" dy="-8"/>
<feGaussianBlur stdDeviation="1"/>
<feComposite in2="hardAlpha" operator="arithmetic" k2="-1" k3="1"/>
<feColorMatrix type="matrix" values="0 0 0 0 0 0 0 0 0 0 0 0 0 0 0 0 0 0 0.25 0"/>
<feBlend mode="normal" in2="effect2_innerShadow_649_59207" result="effect3_innerShadow_649_59207"/>
</filter>
<filter id="filter13_ii_649_59207" x="637" y="796.365" width="54.7334" height="46.2085" filterUnits="userSpaceOnUse" color-interpolation-filters="sRGB">
<feFlood flood-opacity="0" result="BackgroundImageFix"/>
<feBlend mode="normal" in="SourceGraphic" in2="BackgroundImageFix" result="shape"/>
<feColorMatrix in="SourceAlpha" type="matrix" values="0 0 0 0 0 0 0 0 0 0 0 0 0 0 0 0 0 0 127 0" result="hardAlpha"/>
<feOffset dx="-3" dy="-15"/>
<feGaussianBlur stdDeviation="1"/>
<feComposite in2="hardAlpha" operator="arithmetic" k2="-1" k3="1"/>
<feColorMatrix type="matrix" values="0 0 0 0 0 0 0 0 0 0 0 0 0 0 0 0 0 0 0.15 0"/>
<feBlend mode="normal" in2="shape" result="effect1_innerShadow_649_59207"/>
<feColorMatrix in="SourceAlpha" type="matrix" values="0 0 0 0 0 0 0 0 0 0 0 0 0 0 0 0 0 0 127 0" result="hardAlpha"/>
<feOffset dx="-3" dy="-8"/>
<feGaussianBlur stdDeviation="1"/>
<feComposite in2="hardAlpha" operator="arithmetic" k2="-1" k3="1"/>
<feColorMatrix type="matrix" values="0 0 0 0 0 0 0 0 0 0 0 0 0 0 0 0 0 0 0.2 0"/>
<feBlend mode="normal" in2="effect1_innerShadow_649_59207" result="effect2_innerShadow_649_59207"/>
</filter>
<filter id="filter14_dii_649_59207" x="1155.72" y="111" width="68.7799" height="70.8127" filterUnits="userSpaceOnUse" color-interpolation-filters="sRGB">
<feFlood flood-opacity="0" result="BackgroundImageFix"/>
<feColorMatrix in="SourceAlpha" type="matrix" values="0 0 0 0 0 0 0 0 0 0 0 0 0 0 0 0 0 0 127 0" result="hardAlpha"/>
<feOffset dx="1.5" dy="0.5"/>
<feGaussianBlur stdDeviation="1"/>
<feComposite in2="hardAlpha" operator="out"/>
<feColorMatrix type="matrix" values="0 0 0 0 0 0 0 0 0 0 0 0 0 0 0 0 0 0 0.25 0"/>
<feBlend mode="normal" in2="BackgroundImageFix" result="effect1_dropShadow_649_59207"/>
<feBlend mode="normal" in="SourceGraphic" in2="effect1_dropShadow_649_59207" result="shape"/>
<feColorMatrix in="SourceAlpha" type="matrix" values="0 0 0 0 0 0 0 0 0 0 0 0 0 0 0 0 0 0 127 0" result="hardAlpha"/>
<feOffset dx="-5" dy="-15"/>
<feGaussianBlur stdDeviation="1"/>
<feComposite in2="hardAlpha" operator="arithmetic" k2="-1" k3="1"/>
<feColorMatrix type="matrix" values="0 0 0 0 0 0 0 0 0 0 0 0 0 0 0 0 0 0 0.15 0"/>
<feBlend mode="normal" in2="shape" result="effect2_innerShadow_649_59207"/>
<feColorMatrix in="SourceAlpha" type="matrix" values="0 0 0 0 0 0 0 0 0 0 0 0 0 0 0 0 0 0 127 0" result="hardAlpha"/>
<feOffset dx="-3" dy="-8"/>
<feGaussianBlur stdDeviation="1"/>
<feComposite in2="hardAlpha" operator="arithmetic" k2="-1" k3="1"/>
<feColorMatrix type="matrix" values="0 0 0 0 0 0 0 0 0 0 0 0 0 0 0 0 0 0 0.25 0"/>
<feBlend mode="normal" in2="effect2_innerShadow_649_59207" result="effect3_innerShadow_649_59207"/>
</filter>
<filter id="filter15_ii_649_59207" x="1119" y="144.365" width="54.7333" height="46.2085" filterUnits="userSpaceOnUse" color-interpolation-filters="sRGB">
<feFlood flood-opacity="0" result="BackgroundImageFix"/>
<feBlend mode="normal" in="SourceGraphic" in2="BackgroundImageFix" result="shape"/>
<feColorMatrix in="SourceAlpha" type="matrix" values="0 0 0 0 0 0 0 0 0 0 0 0 0 0 0 0 0 0 127 0" result="hardAlpha"/>
<feOffset dx="-3" dy="-15"/>
<feGaussianBlur stdDeviation="1"/>
<feComposite in2="hardAlpha" operator="arithmetic" k2="-1" k3="1"/>
<feColorMatrix type="matrix" values="0 0 0 0 0 0 0 0 0 0 0 0 0 0 0 0 0 0 0.15 0"/>
<feBlend mode="normal" in2="shape" result="effect1_innerShadow_649_59207"/>
<feColorMatrix in="SourceAlpha" type="matrix" values="0 0 0 0 0 0 0 0 0 0 0 0 0 0 0 0 0 0 127 0" result="hardAlpha"/>
<feOffset dx="-3" dy="-8"/>
<feGaussianBlur stdDeviation="1"/>
<feComposite in2="hardAlpha" operator="arithmetic" k2="-1" k3="1"/>
<feColorMatrix type="matrix" values="0 0 0 0 0 0 0 0 0 0 0 0 0 0 0 0 0 0 0.2 0"/>
<feBlend mode="normal" in2="effect1_innerShadow_649_59207" result="effect2_innerShadow_649_59207"/>
</filter>
<clipPath id="clip0_649_59207">
<rect width="1920" height="1080" fill="white"/>
</clipPath>
</defs>
</svg>
