<svg width="1920" height="1080" viewBox="0 0 1920 1080" fill="none" xmlns="http://www.w3.org/2000/svg">
<g clip-path="url(#clip0_360_8304)">
<rect width="1920" height="1080" fill="#EDC79B"/>
<path d="M1543.23 699.126C1704.64 715.856 1920 817.855 1920 817.855V81.0268C1920 81.0268 1852.32 67.6484 1807.39 63.5678C1740.6 57.5032 1633.27 70.2478 1566.86 81.0257C1432.22 102.88 1393.04 99.3158 1258.22 119.439C1184.79 130.398 1151.41 151.108 1077.48 149.121C1013.76 147.409 1006.35 136.295 942.621 135.155C872.448 133.901 776.296 154.984 706.271 149.121C581.144 138.645 461.524 122.294 304.475 108.962C162.006 96.8685 0 94.9966 0 94.9966V865C0 865 82.4636 859.561 140.42 854.522C301.371 840.528 265.547 721.823 508.849 721.823C650.89 721.823 777.176 699.126 909.254 679.92C1047.99 659.745 1126.92 695.854 1266.56 699.126C1374.59 701.658 1435.55 687.966 1543.23 699.126Z" fill="#E6C29A"/>
<path d="M211.455 232.74C128.638 230.987 0 216.042 0 216.042V605.747C0 605.747 1498.27 640.587 1284.03 575.058C1032.96 498.262 641.322 431.73 641.322 388.593C641.322 345.455 1503.23 329.919 1261.78 298.142C1114.31 278.736 794.349 232.741 500.815 216.042C387.808 209.613 324.62 235.135 211.455 232.74Z" fill="#EDC79B"/>
<path d="M1040.37 489.348C983.534 492.688 990.966 489.342 895.599 506.551C839.851 516.611 983.836 512.123 1040.37 515.726C1117.1 520.615 1160.07 524.217 1236.85 528.341C1356.57 534.772 1423.75 541.196 1543.63 539.809C1662.75 538.431 1729.41 531.477 1848.11 521.46C2011.27 507.691 1559.37 525.17 1374.73 515.726C1243.92 509.035 1171.13 481.665 1040.37 489.348Z" fill="#E6B379"/>
<path d="M480.934 24.277C470.317 -2.95577 453.572 10.4671 445.63 -20.7705C441.283 -37.8643 483.193 -21.2428 506.973 -25.1585C538.426 -30.3377 555.143 -42.3256 586.528 -48.2538C654.879 -61.1644 827.412 -65.4846 764.315 -43.5665C740.023 -35.1281 609.467 -40.8654 635.793 2.7574C662.119 46.3802 677.281 15.4431 703.508 59.4097C729.734 103.376 628.429 64.7801 580.322 68.2213C546.433 70.6454 502.102 81.9392 483.741 63.5273C474.774 54.5351 487.574 41.3101 480.934 24.277Z" fill="#E6C29A"/>
<path d="M807.79 947.11C802.669 1005.29 687.049 955.698 663.344 1009.66C645.922 1049.32 802.054 1021.62 887.316 1038.64C994.058 1059.95 1039.31 1104.4 1146.99 1121.02C1374.21 1156.1 1875.71 1134.91 1775.09 1099.66C1713.72 1078.17 1648.29 1111.73 1612.79 1060C1563.37 987.991 1814.65 1069.15 1818.91 1038.64C1823.17 1008.13 1677.61 940.678 1583.58 928.804C1474.84 915.073 1365.71 945.643 1211.91 937.954C1041.86 929.453 742.871 831.167 785.068 883.038C802.113 903.99 810.104 920.825 807.79 947.11Z" fill="#E6C29A"/>
<path d="M349.42 236.768C177.76 229.204 -149.785 280.016 -88.4533 280.014C-23.8471 280.012 73.9372 292.963 177.144 292.029C271.049 291.179 320.23 275.352 414.024 280.014C508.286 284.699 556.557 306.558 650.906 308.847C758.106 311.448 971.539 280.014 883.005 280.014C794.471 280.014 741.831 289.625 617.41 265.601C492.989 241.577 468.239 242.003 349.42 236.768Z" fill="#E6B379"/>
<path d="M518.42 1021.77C346.76 1014.2 19.2153 1065.02 80.5467 1065.01C145.153 1065.01 242.937 1077.96 346.144 1077.03C440.049 1076.18 489.23 1060.35 583.024 1065.01C677.286 1069.7 725.557 1091.56 819.906 1093.85C927.106 1096.45 1140.54 1065.01 1052.01 1065.01C963.471 1065.01 910.831 1074.62 786.41 1050.6C661.989 1026.58 637.239 1027 518.42 1021.77Z" fill="#E6B379"/>
<path d="M906.01 -9.53414C901.202 23.8629 796.396 -14.3393 823.365 4.44296C865.508 33.7926 970.303 18.7299 1029 31.5971C1087.7 44.4643 1084.45 49.9849 1160.1 59.9743C1193.76 64.4189 1230.34 54.3984 1210.35 40.0602C1167.83 9.55476 999.272 -43.1243 898.986 -41.4363C886.589 -41.2276 907.836 -22.2111 906.01 -9.53414Z" fill="#E6C29A"/>
<path d="M1581.58 -25.2323C1753.24 -32.7957 2080.78 18.0159 2019.45 18.0142C1954.85 18.0124 1857.06 30.9626 1753.86 30.029C1659.95 29.1795 1610.77 13.3523 1516.98 18.0142C1422.71 22.6993 1374.44 44.5577 1280.09 46.847C1172.89 49.4482 959.461 18.0142 1047.99 18.0142C1136.53 18.0142 1189.17 27.6245 1313.59 3.60056C1438.01 -20.4234 1462.76 -19.9971 1581.58 -25.2323Z" fill="#E6B379"/>
</g>
<defs>
<clipPath id="clip0_360_8304">
<rect width="1920" height="1080" fill="white"/>
</clipPath>
</defs>
</svg>
