<svg width="752" height="455" viewBox="0 0 752 455" fill="none" xmlns="http://www.w3.org/2000/svg">
<path d="M138.087 30.3564C173.851 1.86102 228.555 19.5131 248.427 40.3145L248.729 40.6318C261.073 53.5557 285.182 78.7964 317.024 78.376C356.567 77.8538 375.574 42.644 415.683 48.8662C438.427 52.3946 462.026 67.8528 484.288 87.5088C513.169 113.008 556.795 153.933 544.292 197.258C539.866 212.595 522.314 219.886 507.95 223.326C445.178 183.228 354.883 113.826 232.625 113.826C192.047 113.826 151.518 126.415 115.579 146.948C110.693 124.908 100.353 60.4214 138.087 30.3564Z" fill="#F7F7F7"/>
<path d="M138.087 30.3564L137.775 29.9654L137.775 29.9654L138.087 30.3564ZM248.427 40.3145L248.789 39.9699L248.788 39.9691L248.427 40.3145ZM248.729 40.6318L248.366 40.9764L248.367 40.9772L248.729 40.6318ZM317.024 78.376L317.031 78.8759L317.031 78.8759L317.024 78.376ZM415.683 48.8662L415.759 48.3721L415.759 48.3721L415.683 48.8662ZM484.288 87.5088L484.619 87.134L484.619 87.134L484.288 87.5088ZM544.292 197.258L544.772 197.396L544.772 197.396L544.292 197.258ZM507.95 223.326L507.681 223.748L507.86 223.862L508.067 223.812L507.95 223.326ZM232.625 113.826L232.625 113.326L232.625 113.326L232.625 113.826ZM115.579 146.948L115.091 147.056L115.238 147.719L115.827 147.382L115.579 146.948ZM138.087 30.3564L138.398 30.7475C156.137 16.6145 178.596 13.9064 199.134 17.3423C219.682 20.7798 238.219 30.3534 248.065 40.6598L248.427 40.3145L248.788 39.9691C238.762 29.4742 220.012 19.821 199.299 16.356C178.577 12.8894 155.802 15.603 137.775 29.9654L138.087 30.3564ZM248.427 40.3145L248.064 40.659L248.366 40.9764L248.729 40.6318L249.091 40.2873L248.789 39.9699L248.427 40.3145ZM248.729 40.6318L248.367 40.9772C254.538 47.4376 263.684 57.0148 275.283 64.9212C286.884 72.8287 300.972 79.088 317.031 78.8759L317.024 78.376L317.018 77.876C301.234 78.0844 287.346 71.9335 275.846 64.0949C264.344 56.255 255.264 46.75 249.09 40.2865L248.729 40.6318ZM317.024 78.376L317.031 78.8759C336.951 78.6129 351.702 69.6043 366.382 61.53C381.08 53.4457 395.729 46.2767 415.606 49.3603L415.683 48.8662L415.759 48.3721C395.527 45.2335 380.618 52.5582 365.9 60.6538C351.163 68.7594 336.64 77.6169 317.018 77.876L317.024 78.376ZM415.683 48.8662L415.606 49.3603C438.202 52.8658 461.711 68.2419 483.957 87.8836L484.288 87.5088L484.619 87.134C462.34 67.4636 438.651 51.9234 415.759 48.3721L415.683 48.8662ZM484.288 87.5088L483.957 87.8836C498.398 100.634 516.482 117.204 529.397 135.982C542.313 154.762 550.003 175.665 543.812 197.119L544.292 197.258L544.772 197.396C551.084 175.526 543.212 154.304 530.221 135.416C517.228 116.525 499.059 99.8831 484.619 87.134L484.288 87.5088ZM544.292 197.258L543.812 197.119C541.644 204.629 536.257 210.198 529.585 214.328C522.911 218.459 514.989 221.126 507.834 222.84L507.95 223.326L508.067 223.812C515.276 222.086 523.311 219.387 530.111 215.178C536.912 210.969 542.514 205.223 544.772 197.396L544.292 197.258ZM507.95 223.326L508.219 222.905C445.495 182.838 355.062 113.326 232.625 113.326L232.625 113.826L232.625 114.326C354.705 114.326 444.86 183.619 507.681 223.748L507.95 223.326ZM232.625 113.826L232.625 113.326C191.945 113.326 151.331 125.945 115.331 146.514L115.579 146.948L115.827 147.382C151.705 126.884 192.149 114.326 232.625 114.326L232.625 113.826ZM115.579 146.948L116.067 146.84C113.629 135.841 109.833 114.262 111.349 91.6952C112.866 69.1189 119.692 45.6519 138.398 30.7475L138.087 30.3564L137.775 29.9654C118.748 45.126 111.876 68.9348 110.351 91.6282C108.826 114.331 112.643 136.016 115.091 147.056L115.579 146.948Z" fill="#666666"/>
<path d="M292.686 449.771C196.125 464.048 41.3274 443.006 8.60401 360.916C-34.7124 252.252 103.256 105.5 241.801 105.5C413.722 105.5 522.432 242.743 580.295 242.743C621.931 242.743 701.628 171.902 728.879 202.326C771.331 249.722 745.704 344.803 700.053 375.334C669.647 395.669 639.573 360.916 580.295 360.916C453.5 360.916 442.141 427.672 292.686 449.771Z" fill="#F7F7F7" stroke="#666666"/>
<path d="M331.395 117.712C362.104 126.411 390.208 138.765 415.818 152.341C423.048 174.143 429.723 202.345 428.433 229.763C426.126 278.769 413.698 295.844 413.322 344.905C413.181 363.425 418.385 386.424 424.323 406.53C401.804 417.997 376.577 429.591 342.658 438.686C339.667 416.885 333.832 389.881 322.576 361.906C290.479 282.138 320.32 157.714 331.395 117.712Z" fill="#F7F7F7"/>
<path d="M331.395 117.712L331.531 117.231L331.047 117.094L330.913 117.579L331.395 117.712ZM415.818 152.341L416.293 152.183L416.23 151.993L416.053 151.899L415.818 152.341ZM428.433 229.763L428.932 229.786L428.932 229.786L428.433 229.763ZM413.322 344.905L412.822 344.901L412.822 344.901L413.322 344.905ZM424.323 406.53L424.55 406.976L424.92 406.787L424.803 406.389L424.323 406.53ZM342.658 438.686L342.163 438.754L342.24 439.315L342.788 439.168L342.658 438.686ZM322.576 361.906L323.04 361.72L323.04 361.72L322.576 361.906ZM331.395 117.712L331.258 118.193C361.925 126.88 389.996 139.219 415.584 152.783L415.818 152.341L416.053 151.899C390.42 138.311 362.282 125.942 331.531 117.231L331.395 117.712ZM415.818 152.341L415.344 152.498C422.565 174.273 429.219 202.409 427.933 229.739L428.433 229.763L428.932 229.786C430.227 202.281 423.532 174.012 416.293 152.183L415.818 152.341ZM428.433 229.763L427.933 229.739C426.782 254.198 423.106 270.683 419.664 287.211C416.219 303.75 413.01 320.322 412.822 344.901L413.322 344.905L413.822 344.909C414.01 320.428 417.203 303.931 420.643 287.415C424.085 270.889 427.777 254.333 428.932 229.786L428.433 229.763ZM413.322 344.905L412.822 344.901C412.68 363.498 417.903 386.556 423.844 406.672L424.323 406.53L424.803 406.389C418.868 386.292 413.681 363.352 413.822 344.909L413.322 344.905ZM424.323 406.53L424.096 406.085C401.594 417.543 376.401 429.121 342.529 438.203L342.658 438.686L342.788 439.168C376.753 430.062 402.014 418.451 424.55 406.976L424.323 406.53ZM342.658 438.686L343.154 438.618C340.158 416.787 334.315 389.741 323.04 361.72L322.576 361.906L322.112 362.093C333.35 390.021 339.176 416.984 342.163 438.754L342.658 438.686ZM322.576 361.906L323.04 361.72C307.038 321.951 306.463 271.003 311.293 224.949C316.122 178.91 326.343 137.833 331.876 117.845L331.395 117.712L330.913 117.579C325.371 137.594 315.135 178.73 310.299 224.845C305.464 270.945 306.017 322.093 322.112 362.093L322.576 361.906Z" fill="#666666"/>
<path d="M618.307 231.845C659.291 213.217 708.35 180.086 728.561 202.649C771.013 250.045 745.385 345.127 699.734 375.657C675.532 391.844 651.539 373.127 612.861 364.816C617.315 341.77 621.638 312.788 621.638 287.081C621.638 270.223 620.139 250.138 618.307 231.845Z" fill="#F7F7F7"/>
<path d="M618.307 231.845L618.1 231.39L617.773 231.538L617.809 231.895L618.307 231.845ZM728.561 202.649L728.933 202.316L728.933 202.316L728.561 202.649ZM699.734 375.657L700.012 376.073L700.012 376.073L699.734 375.657ZM612.861 364.816L612.37 364.722L612.277 365.202L612.756 365.305L612.861 364.816ZM621.638 287.081L622.138 287.081L622.138 287.081L621.638 287.081ZM618.307 231.845L618.514 232.3C628.771 227.638 639.536 222.067 650.207 216.698C660.885 211.325 671.473 206.152 681.406 202.266C691.344 198.378 700.589 195.794 708.584 195.572C716.565 195.351 723.26 197.481 728.188 202.983L728.561 202.649L728.933 202.316C723.755 196.535 716.74 194.346 708.557 194.573C700.389 194.799 691.017 197.432 681.042 201.335C671.061 205.239 660.436 210.432 649.757 215.805C639.071 221.182 628.334 226.738 618.1 231.39L618.307 231.845ZM728.561 202.649L728.188 202.983C749.268 226.518 753.486 261.951 746.696 295.378C739.906 328.807 722.138 360.072 699.456 375.242L699.734 375.657L700.012 376.073C722.981 360.711 740.852 329.171 747.676 295.577C754.5 261.982 750.305 226.176 728.933 202.316L728.561 202.649ZM699.734 375.657L699.456 375.242C687.53 383.218 675.654 382.619 661.855 378.94C654.945 377.098 647.587 374.493 639.506 371.818C631.434 369.146 622.662 366.411 612.966 364.328L612.861 364.816L612.756 365.305C622.399 367.377 631.131 370.099 639.192 372.767C647.244 375.433 654.649 378.054 661.597 379.906C675.514 383.617 687.737 384.283 700.012 376.073L699.734 375.657ZM612.861 364.816L613.352 364.911C617.808 341.854 622.138 312.835 622.138 287.081L621.638 287.081L621.138 287.081C621.138 312.741 616.822 341.686 612.37 364.722L612.861 364.816ZM621.638 287.081L622.138 287.081C622.138 270.198 620.638 250.094 618.804 231.795L618.307 231.845L617.809 231.895C619.641 250.182 621.138 270.247 621.138 287.081L621.638 287.081Z" fill="#666666"/>
<path d="M618.585 231.691C620.437 249.982 621.956 270.117 621.956 286.998C621.956 312.685 617.588 341.663 613.108 364.628C603.214 362.506 592.359 361.066 580.295 361.066C567.206 361.066 555.346 361.78 544.438 363.08C537.002 341.198 531.906 313.672 538.707 286.998C543.447 268.406 547.078 249.725 549.725 234.045C561.164 239.604 571.338 242.894 580.295 242.894C591.042 242.893 604.323 238.171 618.585 231.691Z" fill="#F7F7F7"/>
<path d="M618.585 231.691L619.082 231.641L619.012 230.948L618.378 231.236L618.585 231.691ZM621.956 286.998L622.456 286.998V286.998H621.956ZM613.108 364.628L613.004 365.117L613.502 365.224L613.599 364.724L613.108 364.628ZM580.295 361.066L580.295 360.566H580.295V361.066ZM544.438 363.08L543.965 363.241L544.095 363.625L544.498 363.577L544.438 363.08ZM538.707 286.998L538.223 286.875L538.223 286.875L538.707 286.998ZM549.725 234.045L549.943 233.595L549.343 233.303L549.232 233.962L549.725 234.045ZM580.295 242.894L580.295 243.394L580.295 243.394L580.295 242.894ZM618.585 231.691L618.088 231.742C619.938 250.026 621.456 270.142 621.456 286.998H621.956H622.456C622.456 270.092 620.935 249.937 619.082 231.641L618.585 231.691ZM621.956 286.998L621.456 286.998C621.456 312.638 617.095 341.579 612.618 364.532L613.108 364.628L613.599 364.724C618.081 341.748 622.456 312.733 622.456 286.998L621.956 286.998ZM613.108 364.628L613.213 364.139C603.29 362.011 592.4 360.566 580.295 360.566L580.295 361.066L580.295 361.566C592.319 361.566 603.138 363.001 613.004 365.117L613.108 364.628ZM580.295 361.066V360.566C567.187 360.566 555.308 361.281 544.379 362.584L544.438 363.08L544.498 363.577C555.384 362.279 567.224 361.566 580.295 361.566V361.066ZM544.438 363.08L544.912 362.919C537.49 341.081 532.425 313.662 539.192 287.122L538.707 286.998L538.223 286.875C531.388 313.681 536.513 341.314 543.965 363.241L544.438 363.08ZM538.707 286.998L539.192 287.122C543.936 268.512 547.569 249.817 550.218 234.128L549.725 234.045L549.232 233.962C546.586 249.633 542.958 268.3 538.223 286.875L538.707 286.998ZM549.725 234.045L549.506 234.495C560.969 240.065 571.225 243.394 580.295 243.394V242.894V242.394C571.451 242.394 561.359 239.142 549.943 233.595L549.725 234.045ZM580.295 242.894L580.295 243.394C591.16 243.393 604.529 238.627 618.792 232.147L618.585 231.691L618.378 231.236C604.117 237.716 590.923 242.393 580.295 242.394L580.295 242.894Z" fill="#666666"/>
<mask id="path-10-inside-1_409_53340" fill="white">
<path d="M137.769 131.669C170.299 177.01 194.785 245.654 202.548 324.065C207.095 369.992 205.357 413.758 198.516 452.354C116.881 446.343 32.3767 418.83 9.18555 360.652C-22.8866 280.196 44.4248 178.858 137.769 131.669Z"/>
</mask>
<path d="M137.769 131.669L138.581 131.086L138.082 130.39L137.317 130.777L137.769 131.669ZM202.548 324.065L203.543 323.967L203.543 323.967L202.548 324.065ZM198.516 452.354L198.442 453.352L199.343 453.418L199.5 452.529L198.516 452.354ZM9.18555 360.652L8.25663 361.023L8.25663 361.023L9.18555 360.652ZM137.769 131.669L136.956 132.252C169.36 177.418 193.802 245.882 201.553 324.164L202.548 324.065L203.543 323.967C195.767 245.426 171.237 176.603 138.581 131.086L137.769 131.669ZM202.548 324.065L201.553 324.164C206.091 370.006 204.355 413.68 197.531 452.18L198.516 452.354L199.5 452.529C206.358 413.836 208.098 369.978 203.543 323.967L202.548 324.065ZM198.516 452.354L198.589 451.357C157.846 448.357 116.429 439.992 82.3334 425.149C48.223 410.298 21.572 389.025 10.1145 360.282L9.18555 360.652L8.25663 361.023C19.9902 390.457 47.1869 412.029 81.5351 426.982C115.898 441.942 157.551 450.34 198.442 453.352L198.516 452.354ZM9.18555 360.652L10.1145 360.282C-5.77 320.434 2.91907 275.318 27.3062 234.196C51.6897 193.08 91.7067 156.076 138.22 132.561L137.769 131.669L137.317 130.777C90.4867 154.452 50.176 191.711 25.586 233.175C0.999464 274.634 -7.93109 320.414 8.25663 361.023L9.18555 360.652Z" fill="#666666" mask="url(#path-10-inside-1_409_53340)"/>
<path d="M321.24 369.078C289.335 377.199 255.064 335.058 252.621 315.868C249.178 288.826 321.53 230.381 352.643 253.061C374.045 268.663 373.906 297.154 367.472 322.846C360.16 352.047 337.232 365.007 321.24 369.078Z" fill="#F7F7F7" stroke="#666666"/>
<circle cx="162.363" cy="294.177" r="46.0231" fill="#F7F7F7" stroke="#666666"/>
<circle cx="162.363" cy="294.177" r="32.0662" fill="#F7F7F7" stroke="#666666"/>
<mask id="path-15-inside-2_409_53340" fill="white">
<path d="M698.411 196.175C711.558 193.045 722.674 193.911 729.999 202.134C772.451 249.787 746.823 345.385 701.173 376.082C688.303 384.736 675.493 383.466 660.502 379.124C665.257 378.273 669.913 376.452 674.577 373.333C720.228 342.802 745.855 247.721 703.402 200.325C701.894 198.641 700.225 197.267 698.411 196.175Z"/>
</mask>
<path d="M698.411 196.175C711.558 193.045 722.674 193.911 729.999 202.134C772.451 249.787 746.823 345.385 701.173 376.082C688.303 384.736 675.493 383.466 660.502 379.124C665.257 378.273 669.913 376.452 674.577 373.333C720.228 342.802 745.855 247.721 703.402 200.325C701.894 198.641 700.225 197.267 698.411 196.175Z" fill="#F7F7F7"/>
<path d="M698.411 196.175L698.18 195.202L695.799 195.769L697.895 197.031L698.411 196.175ZM729.999 202.134L730.746 201.469L730.746 201.469L729.999 202.134ZM701.173 376.082L701.731 376.912L701.731 376.912L701.173 376.082ZM660.502 379.124L660.326 378.14L660.224 380.085L660.502 379.124ZM674.577 373.333L675.133 374.164L675.133 374.164L674.577 373.333ZM703.402 200.325L704.147 199.658L704.147 199.658L703.402 200.325ZM698.411 196.175L698.643 197.148C711.679 194.044 722.304 194.999 729.252 202.799L729.999 202.134L730.746 201.469C723.044 192.823 711.438 192.046 698.18 195.202L698.411 196.175ZM729.999 202.134L729.252 202.799C750.188 226.3 754.417 261.742 747.644 295.269C740.871 328.798 723.153 360.097 700.615 375.252L701.173 376.082L701.731 376.912C724.843 361.371 742.765 329.522 749.605 295.665C756.445 261.805 752.261 225.62 730.746 201.469L729.999 202.134ZM701.173 376.082L700.615 375.252C688.12 383.654 675.681 382.48 660.78 378.164L660.502 379.124L660.224 380.085C675.304 384.453 688.486 385.818 701.731 376.912L701.173 376.082ZM660.502 379.124L660.678 380.108C665.572 379.232 670.358 377.358 675.133 374.164L674.577 373.333L674.021 372.502C669.469 375.546 664.941 377.313 660.326 378.14L660.502 379.124ZM674.577 373.333L675.133 374.164C698.246 358.707 716.168 327.028 723.008 293.352C729.849 259.673 725.665 223.681 704.147 199.658L703.402 200.325L702.657 200.992C723.592 224.365 727.821 259.611 721.048 292.954C714.275 326.3 696.559 357.429 674.021 372.502L674.577 373.333ZM703.402 200.325L704.147 199.658C702.574 197.901 700.828 196.463 698.927 195.318L698.411 196.175L697.895 197.031C699.623 198.072 701.215 199.381 702.657 200.992L703.402 200.325Z" fill="#666666" mask="url(#path-15-inside-2_409_53340)"/>
<path d="M148.15 15.3564C183.915 -13.139 238.617 4.51311 258.489 25.3145L258.791 25.6309C271.135 38.5547 295.244 63.7964 327.087 63.376C366.629 62.8539 385.636 27.6441 425.745 33.8662C448.489 37.3945 472.088 52.852 494.351 72.5078C523.231 98.0072 566.858 138.933 554.354 182.258C552.681 188.057 549.13 192.705 544.585 196.431C556.302 153.412 513.048 112.845 484.351 87.5078C462.088 67.852 438.489 52.3945 415.745 48.8662C375.636 42.6441 356.629 77.8539 317.087 78.376C285.244 78.7964 261.135 53.5547 248.791 40.6309L248.489 40.3145C228.617 19.5131 173.915 1.86104 138.15 30.3564C135.341 32.5945 132.8 35.0245 130.502 37.6123C134.662 29.1833 140.388 21.5412 148.15 15.3564Z" fill="#F7F7F7"/>
<path d="M148.15 15.3564L147.839 14.9654L147.839 14.9654L148.15 15.3564ZM258.489 25.3145L258.851 24.9694L258.851 24.9691L258.489 25.3145ZM258.791 25.6309L258.429 25.9759L258.429 25.9762L258.791 25.6309ZM327.087 63.376L327.094 63.8759L327.094 63.8759L327.087 63.376ZM425.745 33.8662L425.822 33.3721L425.822 33.3721L425.745 33.8662ZM494.351 72.5078L494.682 72.133L494.682 72.133L494.351 72.5078ZM554.354 182.258L554.835 182.396L554.835 182.396L554.354 182.258ZM544.585 196.431L544.103 196.299L543.691 197.81L544.902 196.817L544.585 196.431ZM484.351 87.5078L484.682 87.133L484.682 87.133L484.351 87.5078ZM415.745 48.8662L415.822 48.3721L415.822 48.3721L415.745 48.8662ZM317.087 78.376L317.094 78.8759L317.094 78.8759L317.087 78.376ZM248.791 40.6309L248.429 40.9759L248.429 40.9762L248.791 40.6309ZM248.489 40.3145L248.851 39.9694L248.851 39.9691L248.489 40.3145ZM138.15 30.3564L137.839 29.9654L137.839 29.9654L138.15 30.3564ZM130.502 37.6123L130.054 37.391L130.876 37.9443L130.502 37.6123ZM148.15 15.3564L148.462 15.7475C166.2 1.61448 188.659 -1.09355 209.197 2.34231C229.745 5.77982 248.282 15.3534 258.128 25.6598L258.489 25.3145L258.851 24.9691C248.825 14.4742 230.075 4.82104 209.362 1.35602C188.64 -2.11063 165.865 0.603002 147.839 14.9654L148.15 15.3564ZM258.489 25.3145L258.127 25.6595L258.429 25.9759L258.791 25.6309L259.153 25.2858L258.851 24.9694L258.489 25.3145ZM258.791 25.6309L258.429 25.9762C264.6 32.4366 273.746 42.0141 285.345 49.9206C296.946 57.8284 311.034 64.088 327.094 63.8759L327.087 63.376L327.08 62.876C311.297 63.0844 297.409 56.9333 285.909 49.0944C274.407 41.2542 265.326 31.749 259.153 25.2855L258.791 25.6309ZM327.087 63.376L327.094 63.8759C347.013 63.6129 361.765 54.6044 376.444 46.5301C391.142 38.4458 405.792 31.2768 425.668 34.3603L425.745 33.8662L425.822 33.3721C405.59 30.2335 390.681 37.5583 375.963 45.6539C361.226 53.7595 346.703 62.6169 327.08 62.876L327.087 63.376ZM425.745 33.8662L425.668 34.3603C448.265 37.8657 471.774 53.2411 494.02 72.8826L494.351 72.5078L494.682 72.133C472.403 52.4628 448.713 36.9233 425.822 33.3721L425.745 33.8662ZM494.351 72.5078L494.02 72.8826C508.461 85.6329 526.544 102.203 539.459 120.982C552.376 139.762 560.065 160.665 553.874 182.119L554.354 182.258L554.835 182.396C561.147 160.526 553.275 139.304 540.283 120.415C527.291 101.524 509.121 84.8821 494.682 72.133L494.351 72.5078ZM554.354 182.258L553.874 182.119C552.235 187.8 548.753 192.367 544.268 196.044L544.585 196.431L544.902 196.817C549.506 193.043 553.127 188.314 554.835 182.396L554.354 182.258ZM544.585 196.431L545.067 196.562C550.982 174.846 543.007 153.794 530.034 135.054C517.06 116.313 499.029 99.8011 484.682 87.133L484.351 87.5078L484.02 87.8826C498.369 100.552 516.314 116.992 529.212 135.623C542.111 154.257 549.905 174.997 544.103 196.299L544.585 196.431ZM484.351 87.5078L484.682 87.133C462.403 67.4628 438.713 51.9233 415.822 48.3721L415.745 48.8662L415.668 49.3603C438.265 52.8657 461.774 68.2411 484.02 87.8826L484.351 87.5078ZM415.745 48.8662L415.822 48.3721C395.59 45.2335 380.681 52.5583 365.963 60.6539C351.226 68.7595 336.703 77.6169 317.08 77.876L317.087 78.376L317.094 78.8759C337.013 78.6129 351.765 69.6044 366.444 61.5301C381.142 53.4458 395.792 46.2768 415.668 49.3603L415.745 48.8662ZM317.087 78.376L317.08 77.876C301.297 78.0844 287.409 71.9333 275.909 64.0944C264.407 56.2542 255.326 46.749 249.153 40.2855L248.791 40.6309L248.429 40.9762C254.6 47.4366 263.746 57.0141 275.345 64.9206C286.946 72.8284 301.034 79.088 317.094 78.8759L317.087 78.376ZM248.791 40.6309L249.153 40.2858L248.851 39.9694L248.489 40.3145L248.127 40.6595L248.429 40.9759L248.791 40.6309ZM248.489 40.3145L248.851 39.9691C238.825 29.4742 220.075 19.821 199.362 16.356C178.64 12.8894 155.865 15.603 137.839 29.9654L138.15 30.3564L138.462 30.7475C156.2 16.6145 178.659 13.9064 199.197 17.3423C219.745 20.7798 238.282 30.3534 248.128 40.6598L248.489 40.3145ZM138.15 30.3564L137.839 29.9654C135.007 32.2219 132.445 34.6717 130.128 37.2803L130.502 37.6123L130.876 37.9443C133.156 35.3772 135.676 32.9671 138.462 30.7475L138.15 30.3564ZM130.502 37.6123L130.95 37.8336C135.082 29.4613 140.765 21.8804 148.462 15.7475L148.15 15.3564L147.839 14.9654C140.011 21.202 134.241 28.9054 130.054 37.391L130.502 37.6123Z" fill="#666666"/>
<g opacity="0.55" filter="url(#filter0_f_409_53340)">
<path d="M195.285 70.868C193.749 82.5253 196.62 101.319 201.355 97.4092C205.49 93.9952 207.538 86.3706 208.939 80.0666C210.181 74.4769 208.49 63.7543 208.875 58.0272C209.74 45.1428 216.388 35.8385 213.068 34.1618C211.004 33.1197 197.172 56.5356 195.285 70.868Z" fill="#F7F7F7"/>
</g>
<defs>
<filter id="filter0_f_409_53340" x="192.869" y="32.1279" width="23.1211" height="67.8066" filterUnits="userSpaceOnUse" color-interpolation-filters="sRGB">
<feFlood flood-opacity="0" result="BackgroundImageFix"/>
<feBlend mode="normal" in="SourceGraphic" in2="BackgroundImageFix" result="shape"/>
<feGaussianBlur stdDeviation="1" result="effect1_foregroundBlur_409_53340"/>
</filter>
</defs>
</svg>
