<svg width="200" height="200" viewBox="0 0 200 200" fill="none" xmlns="http://www.w3.org/2000/svg">
<path d="M41.6665 106.33C41.6665 95.0154 41.6665 89.3581 43.9537 84.3853C46.2409 79.4124 50.5362 75.7307 59.1269 68.3672L67.4603 61.2244C82.9879 47.915 90.7517 41.2603 99.9998 41.2603C109.248 41.2603 117.012 47.915 132.539 61.2244L140.873 68.3672C149.463 75.7307 153.759 79.4124 156.046 84.3853C158.333 89.3581 158.333 95.0154 158.333 106.33V141.667C158.333 157.38 158.333 165.237 153.452 170.118C148.57 175 140.713 175 125 175H74.9998C59.2864 175 51.4296 175 46.5481 170.118C41.6665 165.237 41.6665 157.38 41.6665 141.667V106.33Z" stroke="#F7F7F7" stroke-width="10"/>
<path d="M120.833 175V126C120.833 125.448 120.385 125 119.833 125H80.1665C79.6142 125 79.1665 125.448 79.1665 126V175" stroke="#F7F7F7" stroke-width="10" stroke-linecap="round" stroke-linejoin="round"/>
</svg>
