<svg width="321" height="345" viewBox="0 0 321 345" fill="none" xmlns="http://www.w3.org/2000/svg">
<g filter="url(#filter0_d_664_59321)">
<g filter="url(#filter1_i_664_59321)">
<path d="M210.923 27.7023C205.195 32.9713 197.897 45.8187 202.806 47.0152C212.433 49.3623 214.425 51.6739 223.762 51.11C226.382 50.9518 227.401 47.1765 228.89 43.9465C232.369 36.4034 228.106 33.9832 228.58 25.6902C228.731 23.0467 231.923 14.1812 229.426 15.0612C223.299 17.2198 216.992 22.1206 210.923 27.7023Z" fill="#F65FB1"/>
</g>
<g filter="url(#filter2_i_664_59321)">
<path d="M185.939 47.8281C181.962 52.5117 177.442 59.2395 182.189 62.1584C190.494 67.2664 221.495 78.8569 232.104 77.859C236.548 77.441 238.218 61.5479 236.899 57.8039C234.732 51.654 222.383 48.7627 212.062 47.0415C201.507 45.2815 188.913 44.3257 185.939 47.8281Z" fill="#F65FB1"/>
</g>
<g filter="url(#filter3_i_664_59321)">
<path d="M236.83 111.197C205.722 105.739 191.492 103.067 161.973 92.041C156.717 90.0779 159.518 81.8075 161.941 76.7472C164.807 70.7635 169.045 64.3304 174.02 62.1608C181.619 58.8465 191.205 65.454 201.861 68.421C214.787 72.02 226.139 73.2587 232.944 77.3656C241.06 82.2646 242.827 88.04 244.263 98.6301C244.988 103.977 243.354 112.342 236.83 111.197Z" fill="#F65FB1"/>
</g>
<g filter="url(#filter4_i_664_59321)">
<path d="M130.495 138.949C125.517 136.015 122.529 129.834 124.293 124.331C128.51 111.173 153.105 94.3076 158.76 92.8491C165.826 91.0265 226.733 99.6794 236.51 108.859C246.27 118.024 250.378 128.359 250.466 141.747C250.541 153.322 248.856 176.612 238.034 172.504C226.819 168.246 201.726 160.393 176.644 153.472C158.33 148.418 149.835 150.343 130.495 138.949Z" fill="#F65FB1"/>
</g>
<path d="M138.948 127.988C137.338 125.2 134.753 123.888 134.884 120.671C135.028 117.12 160.671 93.6774 166.465 92.622C173.052 91.4224 185.641 97.3266 181.178 102.317C176.336 107.73 159.817 118.938 146.507 132.367C142.189 136.725 139.864 129.575 138.948 127.988Z" fill="#D9D9D9" fill-opacity="0.25"/>
<path d="M178.808 90.0818C176.438 92.5348 172.883 91.1478 171.243 88.156C169.909 85.7216 170.856 83.4077 172.148 80.9502C175.354 74.8463 177.577 71.3848 181.642 68.8044C186.113 65.9663 195 68.7208 195.374 70.8532C195.753 73.0153 184.977 83.6996 178.808 90.0818Z" fill="#D9D9D9" fill-opacity="0.25"/>
<path d="M195.881 63.6706C192.856 63.7223 190.076 64.5682 188.215 62.5456C187.238 61.4831 189.667 56.0027 193.205 53.9005C196.369 52.0203 211.46 53.5876 210.238 55.5511C208.149 58.9103 204.391 57.7837 201.068 59.9299C198.934 61.3082 198.164 63.6316 195.881 63.6706Z" fill="#D9D9D9" fill-opacity="0.25"/>
<g filter="url(#filter5_i_664_59321)">
<path d="M66.2822 254.728C70.8187 290.194 98.3199 331.872 107.959 329.576C121.373 326.38 125.993 296.056 156.307 280.018C169.208 273.193 197.489 272.012 225.603 254.072C242.306 243.412 250.325 231.959 255.03 212.711C259.011 196.425 260.291 188.347 252.99 173.255C241.761 150.045 206.955 150.198 178.841 141.988C158.536 136.058 147.526 130.507 126.659 133.973C104.249 137.696 89.6948 155.032 78.4143 176.225C67.1338 197.418 62.5448 225.508 66.2822 254.728Z" fill="#F65FB1"/>
</g>
<path d="M127.97 263.068C106.26 268.253 74.0088 283.705 74.0088 283.705L69.0722 268.609C69.0722 268.609 96.4069 258.693 115.99 253.232C137.886 247.126 151.984 245.06 173.64 238.147C192.34 232.177 203.461 230.951 219.867 220.172C234.953 210.261 258.383 192.341 258.383 192.341L256.875 204.351C256.875 204.351 241.9 216.746 228.671 225.933C211.307 237.991 196.535 245.567 176.526 252.387C158.568 258.507 145.94 258.777 127.97 263.068Z" fill="#AD2368" fill-opacity="0.5"/>
<path d="M108.546 235.774C90.9992 240.524 65.8393 249.548 65.8393 249.548L65.0477 233.296C65.0477 233.296 80.3531 228.777 90.3318 226.7C114.791 221.61 127.417 219.499 151.435 214.362C175.738 209.164 187.918 207.04 211.213 198.263C229.828 191.25 251.145 169.638 251.145 169.638L252.685 172.922C252.685 172.922 231.994 195.278 214.847 206.125C199.908 215.576 189.74 218.806 172.937 224.302C148.994 232.133 132.849 229.194 108.546 235.774Z" fill="#AD2368" fill-opacity="0.5"/>
<path d="M79.5 225.732C73.5864 259.526 100.364 306.543 92.5178 298.228C84.3984 289.623 79.7691 280.122 74.6765 269.313C69.5838 258.505 68.5054 241.98 70.696 223.101C74.3786 191.364 84.9682 162.055 108.931 149.345C121.826 142.506 149.632 139.979 120.841 157.647C103.382 168.362 85.549 191.164 79.5 225.732Z" fill="#D9D9D9" fill-opacity="0.25"/>
<path d="M71.9804 191.06L67.5641 206.774C67.5641 206.774 75.54 203.513 85.2976 201.333C98.6154 198.357 106.441 199.249 119.959 197.594C139.047 195.257 150.005 195.196 168.727 190.619C185.404 186.542 195.719 185.405 210.404 176.505C221.208 169.958 234.482 155.996 234.482 155.996L225.323 153.04C225.323 153.04 203.348 169.941 186.937 175.901C168.633 182.548 156.967 180.523 137.684 182.691C121.632 184.495 112.538 184.347 96.5156 186.452C84.8589 187.983 71.9804 191.06 71.9804 191.06Z" fill="#AD2368" fill-opacity="0.5"/>
<path d="M89.5691 158.463L80.554 171.97C80.554 171.97 113.833 170.177 138.688 167.557C155.456 165.79 167.855 164.55 181.729 161.575C193.874 158.97 213.143 149.741 213.143 149.741L192.527 145.526C192.527 145.526 175.168 151.643 162.516 152.657C146.364 153.952 135.85 155.286 119.657 155.897C106.252 156.403 89.5691 158.463 89.5691 158.463Z" fill="#AD2368" fill-opacity="0.5"/>
<path d="M74.517 269.466C80.0923 282.362 83.061 288.948 93.0911 298.785C99.9191 305.482 96.9114 208.509 111.151 197.797C133.535 180.958 142.36 162.678 165.618 145.545C173.372 139.834 168.654 131.651 179.288 123.514C190.588 114.868 210.604 125.517 217.363 116.094C221.042 110.965 226.163 97.3491 223.871 92.0493C221.58 86.7494 205.193 90.91 204.222 82.0667C203.475 75.2656 210.611 74.6027 212.28 67.9673C214.131 60.6072 208.055 50.9223 209.846 47.7891C211.756 44.4464 222.916 41.6881 224.348 34.0482C225.28 29.0751 222.913 27.9547 223.883 22.0609C224.859 16.1347 203.848 39.3737 205.199 47.0458C206.295 53.2628 195.936 49.2392 192.845 51.208C186.678 55.1369 187.044 59.6139 183.695 64.6004C179.939 70.1929 174.611 70.301 170.32 75.4947C165.102 81.8115 167.685 88.0868 162.326 94.2847C154.725 103.075 139.647 110.032 135.351 120.102C132.863 125.935 133.9 129.998 131.564 135.894C127.616 145.857 107.097 146.627 95.8618 158.801C81.1886 174.701 77.8163 187.967 73.1848 209.102C68.1459 232.095 68.3591 255.222 74.517 269.466Z" fill="#D9D9D9" fill-opacity="0.2"/>
</g>
<g filter="url(#filter6_dii_664_59321)">
<path d="M129.48 311.43C135.414 323.538 167.081 323.538 175.981 311.43C184.882 299.323 162.534 266.578 148.553 270.901C136.801 274.535 123.547 299.323 129.48 311.43Z" fill="#8F8477"/>
</g>
<g filter="url(#filter7_ii_664_59321)">
<path d="M103.016 323.535C103.016 330.401 110.844 332.455 119.159 333.279C126.943 334.051 134.794 332.938 137.762 329.253C144.121 321.357 124.499 306.511 119.159 306.511C108.891 306.511 103.016 316.293 103.016 323.535Z" fill="#8F8477"/>
</g>
<g filter="url(#filter8_dii_664_59321)">
<path d="M249.573 255.088C257.083 271.145 297.16 271.145 308.425 255.088C319.689 239.03 291.406 195.602 273.712 201.336C258.838 206.156 242.064 239.03 249.573 255.088Z" fill="#8F8477"/>
</g>
<g filter="url(#filter9_ii_664_59321)">
<path d="M211 262.057C211 273.3 222.466 276.662 234.647 278.012C246.048 279.276 257.549 277.454 261.896 271.42C271.211 258.492 242.469 234.183 234.647 234.183C219.605 234.183 211 250.2 211 262.057Z" fill="#8F8477"/>
</g>
<defs>
<filter id="filter0_d_664_59321" x="65.0049" y="0" width="223.378" height="344.666" filterUnits="userSpaceOnUse" color-interpolation-filters="sRGB">
<feFlood flood-opacity="0" result="BackgroundImageFix"/>
<feColorMatrix in="SourceAlpha" type="matrix" values="0 0 0 0 0 0 0 0 0 0 0 0 0 0 0 0 0 0 127 0" result="hardAlpha"/>
<feOffset dx="15"/>
<feGaussianBlur stdDeviation="7.5"/>
<feComposite in2="hardAlpha" operator="out"/>
<feColorMatrix type="matrix" values="0 0 0 0 0 0 0 0 0 0 0 0 0 0 0 0 0 0 0.25 0"/>
<feBlend mode="normal" in2="BackgroundImageFix" result="effect1_dropShadow_664_59321"/>
<feBlend mode="normal" in="SourceGraphic" in2="effect1_dropShadow_664_59321" result="shape"/>
</filter>
<filter id="filter1_i_664_59321" x="201.188" y="13" width="29.1888" height="38.1959" filterUnits="userSpaceOnUse" color-interpolation-filters="sRGB">
<feFlood flood-opacity="0" result="BackgroundImageFix"/>
<feBlend mode="normal" in="SourceGraphic" in2="BackgroundImageFix" result="shape"/>
<feColorMatrix in="SourceAlpha" type="matrix" values="0 0 0 0 0 0 0 0 0 0 0 0 0 0 0 0 0 0 127 0" result="hardAlpha"/>
<feOffset dy="-8"/>
<feGaussianBlur stdDeviation="1"/>
<feComposite in2="hardAlpha" operator="arithmetic" k2="-1" k3="1"/>
<feColorMatrix type="matrix" values="0 0 0 0 0.678431 0 0 0 0 0.137255 0 0 0 0 0.407843 0 0 0 1 0"/>
<feBlend mode="normal" in2="shape" result="effect1_innerShadow_664_59321"/>
</filter>
<filter id="filter2_i_664_59321" x="178.153" y="43.4609" width="59.1842" height="34.4586" filterUnits="userSpaceOnUse" color-interpolation-filters="sRGB">
<feFlood flood-opacity="0" result="BackgroundImageFix"/>
<feBlend mode="normal" in="SourceGraphic" in2="BackgroundImageFix" result="shape"/>
<feColorMatrix in="SourceAlpha" type="matrix" values="0 0 0 0 0 0 0 0 0 0 0 0 0 0 0 0 0 0 127 0" result="hardAlpha"/>
<feOffset dx="-5" dy="-15"/>
<feGaussianBlur stdDeviation="1"/>
<feComposite in2="hardAlpha" operator="arithmetic" k2="-1" k3="1"/>
<feColorMatrix type="matrix" values="0 0 0 0 0.678431 0 0 0 0 0.137255 0 0 0 0 0.407843 0 0 0 1 0"/>
<feBlend mode="normal" in2="shape" result="effect1_innerShadow_664_59321"/>
</filter>
<filter id="filter3_i_664_59321" x="156.989" y="59.2531" width="87.4329" height="52.0505" filterUnits="userSpaceOnUse" color-interpolation-filters="sRGB">
<feFlood flood-opacity="0" result="BackgroundImageFix"/>
<feBlend mode="normal" in="SourceGraphic" in2="BackgroundImageFix" result="shape"/>
<feColorMatrix in="SourceAlpha" type="matrix" values="0 0 0 0 0 0 0 0 0 0 0 0 0 0 0 0 0 0 127 0" result="hardAlpha"/>
<feOffset dx="-10" dy="-20"/>
<feGaussianBlur stdDeviation="1"/>
<feComposite in2="hardAlpha" operator="arithmetic" k2="-1" k3="1"/>
<feColorMatrix type="matrix" values="0 0 0 0 0.678431 0 0 0 0 0.137255 0 0 0 0 0.407843 0 0 0 1 0"/>
<feBlend mode="normal" in2="shape" result="effect1_innerShadow_664_59321"/>
</filter>
<filter id="filter4_i_664_59321" x="121.782" y="90.6042" width="128.686" height="82.3793" filterUnits="userSpaceOnUse" color-interpolation-filters="sRGB">
<feFlood flood-opacity="0" result="BackgroundImageFix"/>
<feBlend mode="normal" in="SourceGraphic" in2="BackgroundImageFix" result="shape"/>
<feColorMatrix in="SourceAlpha" type="matrix" values="0 0 0 0 0 0 0 0 0 0 0 0 0 0 0 0 0 0 127 0" result="hardAlpha"/>
<feOffset dx="-5" dy="-40"/>
<feGaussianBlur stdDeviation="1"/>
<feComposite in2="hardAlpha" operator="arithmetic" k2="-1" k3="1"/>
<feColorMatrix type="matrix" values="0 0 0 0 0.678431 0 0 0 0 0.137255 0 0 0 0 0.407843 0 0 0 1 0"/>
<feBlend mode="normal" in2="shape" result="effect1_innerShadow_664_59321"/>
</filter>
<filter id="filter5_i_664_59321" x="63.0049" y="130.902" width="195.241" height="198.764" filterUnits="userSpaceOnUse" color-interpolation-filters="sRGB">
<feFlood flood-opacity="0" result="BackgroundImageFix"/>
<feBlend mode="normal" in="SourceGraphic" in2="BackgroundImageFix" result="shape"/>
<feColorMatrix in="SourceAlpha" type="matrix" values="0 0 0 0 0 0 0 0 0 0 0 0 0 0 0 0 0 0 127 0" result="hardAlpha"/>
<feOffset dx="-15" dy="-20"/>
<feGaussianBlur stdDeviation="1"/>
<feComposite in2="hardAlpha" operator="arithmetic" k2="-1" k3="1"/>
<feColorMatrix type="matrix" values="0 0 0 0 0.678431 0 0 0 0 0.137255 0 0 0 0 0.407843 0 0 0 1 0"/>
<feBlend mode="normal" in2="shape" result="effect1_innerShadow_664_59321"/>
</filter>
<filter id="filter6_dii_664_59321" x="126.016" y="268.511" width="55.5" height="54.5" filterUnits="userSpaceOnUse" color-interpolation-filters="sRGB">
<feFlood flood-opacity="0" result="BackgroundImageFix"/>
<feColorMatrix in="SourceAlpha" type="matrix" values="0 0 0 0 0 0 0 0 0 0 0 0 0 0 0 0 0 0 127 0" result="hardAlpha"/>
<feOffset dx="1.5" dy="0.5"/>
<feGaussianBlur stdDeviation="1"/>
<feComposite in2="hardAlpha" operator="out"/>
<feColorMatrix type="matrix" values="0 0 0 0 0 0 0 0 0 0 0 0 0 0 0 0 0 0 0.25 0"/>
<feBlend mode="normal" in2="BackgroundImageFix" result="effect1_dropShadow_664_59321"/>
<feBlend mode="normal" in="SourceGraphic" in2="effect1_dropShadow_664_59321" result="shape"/>
<feColorMatrix in="SourceAlpha" type="matrix" values="0 0 0 0 0 0 0 0 0 0 0 0 0 0 0 0 0 0 127 0" result="hardAlpha"/>
<feOffset dx="-5" dy="-15"/>
<feGaussianBlur stdDeviation="1"/>
<feComposite in2="hardAlpha" operator="arithmetic" k2="-1" k3="1"/>
<feColorMatrix type="matrix" values="0 0 0 0 0 0 0 0 0 0 0 0 0 0 0 0 0 0 0.15 0"/>
<feBlend mode="normal" in2="shape" result="effect2_innerShadow_664_59321"/>
<feColorMatrix in="SourceAlpha" type="matrix" values="0 0 0 0 0 0 0 0 0 0 0 0 0 0 0 0 0 0 127 0" result="hardAlpha"/>
<feOffset dx="-3" dy="-8"/>
<feGaussianBlur stdDeviation="1"/>
<feComposite in2="hardAlpha" operator="arithmetic" k2="-1" k3="1"/>
<feColorMatrix type="matrix" values="0 0 0 0 0 0 0 0 0 0 0 0 0 0 0 0 0 0 0.25 0"/>
<feBlend mode="normal" in2="effect2_innerShadow_664_59321" result="effect3_innerShadow_664_59321"/>
</filter>
<filter id="filter7_ii_664_59321" x="101.016" y="304.511" width="38" height="29" filterUnits="userSpaceOnUse" color-interpolation-filters="sRGB">
<feFlood flood-opacity="0" result="BackgroundImageFix"/>
<feBlend mode="normal" in="SourceGraphic" in2="BackgroundImageFix" result="shape"/>
<feColorMatrix in="SourceAlpha" type="matrix" values="0 0 0 0 0 0 0 0 0 0 0 0 0 0 0 0 0 0 127 0" result="hardAlpha"/>
<feOffset dx="-3" dy="-15"/>
<feGaussianBlur stdDeviation="1"/>
<feComposite in2="hardAlpha" operator="arithmetic" k2="-1" k3="1"/>
<feColorMatrix type="matrix" values="0 0 0 0 0 0 0 0 0 0 0 0 0 0 0 0 0 0 0.15 0"/>
<feBlend mode="normal" in2="shape" result="effect1_innerShadow_664_59321"/>
<feColorMatrix in="SourceAlpha" type="matrix" values="0 0 0 0 0 0 0 0 0 0 0 0 0 0 0 0 0 0 127 0" result="hardAlpha"/>
<feOffset dx="-3" dy="-8"/>
<feGaussianBlur stdDeviation="1"/>
<feComposite in2="hardAlpha" operator="arithmetic" k2="-1" k3="1"/>
<feColorMatrix type="matrix" values="0 0 0 0 0 0 0 0 0 0 0 0 0 0 0 0 0 0 0.2 0"/>
<feBlend mode="normal" in2="effect1_innerShadow_664_59321" result="effect2_innerShadow_664_59321"/>
</filter>
<filter id="filter8_dii_664_59321" x="245.72" y="198.818" width="68.7799" height="70.8127" filterUnits="userSpaceOnUse" color-interpolation-filters="sRGB">
<feFlood flood-opacity="0" result="BackgroundImageFix"/>
<feColorMatrix in="SourceAlpha" type="matrix" values="0 0 0 0 0 0 0 0 0 0 0 0 0 0 0 0 0 0 127 0" result="hardAlpha"/>
<feOffset dx="1.5" dy="0.5"/>
<feGaussianBlur stdDeviation="1"/>
<feComposite in2="hardAlpha" operator="out"/>
<feColorMatrix type="matrix" values="0 0 0 0 0 0 0 0 0 0 0 0 0 0 0 0 0 0 0.25 0"/>
<feBlend mode="normal" in2="BackgroundImageFix" result="effect1_dropShadow_664_59321"/>
<feBlend mode="normal" in="SourceGraphic" in2="effect1_dropShadow_664_59321" result="shape"/>
<feColorMatrix in="SourceAlpha" type="matrix" values="0 0 0 0 0 0 0 0 0 0 0 0 0 0 0 0 0 0 127 0" result="hardAlpha"/>
<feOffset dx="-5" dy="-15"/>
<feGaussianBlur stdDeviation="1"/>
<feComposite in2="hardAlpha" operator="arithmetic" k2="-1" k3="1"/>
<feColorMatrix type="matrix" values="0 0 0 0 0 0 0 0 0 0 0 0 0 0 0 0 0 0 0.15 0"/>
<feBlend mode="normal" in2="shape" result="effect2_innerShadow_664_59321"/>
<feColorMatrix in="SourceAlpha" type="matrix" values="0 0 0 0 0 0 0 0 0 0 0 0 0 0 0 0 0 0 127 0" result="hardAlpha"/>
<feOffset dx="-3" dy="-8"/>
<feGaussianBlur stdDeviation="1"/>
<feComposite in2="hardAlpha" operator="arithmetic" k2="-1" k3="1"/>
<feColorMatrix type="matrix" values="0 0 0 0 0 0 0 0 0 0 0 0 0 0 0 0 0 0 0.25 0"/>
<feBlend mode="normal" in2="effect2_innerShadow_664_59321" result="effect3_innerShadow_664_59321"/>
</filter>
<filter id="filter9_ii_664_59321" x="209" y="232.183" width="54.7333" height="46.2085" filterUnits="userSpaceOnUse" color-interpolation-filters="sRGB">
<feFlood flood-opacity="0" result="BackgroundImageFix"/>
<feBlend mode="normal" in="SourceGraphic" in2="BackgroundImageFix" result="shape"/>
<feColorMatrix in="SourceAlpha" type="matrix" values="0 0 0 0 0 0 0 0 0 0 0 0 0 0 0 0 0 0 127 0" result="hardAlpha"/>
<feOffset dx="-3" dy="-15"/>
<feGaussianBlur stdDeviation="1"/>
<feComposite in2="hardAlpha" operator="arithmetic" k2="-1" k3="1"/>
<feColorMatrix type="matrix" values="0 0 0 0 0 0 0 0 0 0 0 0 0 0 0 0 0 0 0.15 0"/>
<feBlend mode="normal" in2="shape" result="effect1_innerShadow_664_59321"/>
<feColorMatrix in="SourceAlpha" type="matrix" values="0 0 0 0 0 0 0 0 0 0 0 0 0 0 0 0 0 0 127 0" result="hardAlpha"/>
<feOffset dx="-3" dy="-8"/>
<feGaussianBlur stdDeviation="1"/>
<feComposite in2="hardAlpha" operator="arithmetic" k2="-1" k3="1"/>
<feColorMatrix type="matrix" values="0 0 0 0 0 0 0 0 0 0 0 0 0 0 0 0 0 0 0.2 0"/>
<feBlend mode="normal" in2="effect1_innerShadow_664_59321" result="effect2_innerShadow_664_59321"/>
</filter>
</defs>
</svg>
