<svg width="600" height="400" viewBox="0 0 600 400" fill="none" xmlns="http://www.w3.org/2000/svg">
<path d="M538.65 132.325C531.618 127.638 522.081 125.005 512.137 125.005C502.194 125.005 492.657 127.638 485.625 132.325L300 256.075L114.375 132.325C107.302 127.771 97.8298 125.251 87.9974 125.308C78.165 125.365 68.7595 127.994 61.8067 132.63C54.8539 137.265 50.9101 143.535 50.8247 150.09C50.7392 156.645 54.519 162.96 61.35 167.675L273.487 309.1C280.52 313.787 290.056 316.42 300 316.42C309.944 316.42 319.48 313.787 326.512 309.1L538.65 167.675C545.68 162.987 549.629 156.629 549.629 150C549.629 143.371 545.68 137.013 538.65 132.325Z" fill="#94E6EF" fill-opacity="0.5"/>
</svg>
