<svg width="600" height="400" viewBox="0 0 600 400" fill="none" xmlns="http://www.w3.org/2000/svg">
<path d="M61.3501 267.675C68.3824 272.362 77.9189 274.995 87.8626 274.995C97.8062 274.995 107.343 272.362 114.375 267.675L300 143.925L485.625 267.675C492.698 272.229 502.17 274.749 512.003 274.692C521.835 274.635 531.24 272.006 538.193 267.37C545.146 262.735 549.09 256.465 549.175 249.91C549.261 243.355 545.481 237.04 538.65 232.325L326.513 90.9C319.48 86.2132 309.944 83.5803 300 83.5803C290.056 83.5803 280.52 86.2132 273.488 90.9L61.3501 232.325C54.3199 237.013 50.3706 243.371 50.3706 250C50.3706 256.629 54.3199 262.987 61.3501 267.675Z" fill="#94E6EF" fill-opacity="0.5"/>
</svg>
