<svg width="1238" height="1038" viewBox="0 0 1238 1038" fill="none" xmlns="http://www.w3.org/2000/svg">
<g filter="url(#filter0_ii_601_57290)">
<path d="M245.563 955.49C245.159 953.625 241.984 940.641 247.001 940.029C262.631 938.121 268.383 927.849 280.099 935.406C286.976 939.842 285.304 949.054 285.304 953.09C285.304 957.125 275.835 961.137 268.383 961.213C259.195 961.306 246.517 959.892 245.563 955.49Z" fill="#C1C1C1"/>
</g>
<g filter="url(#filter1_ii_601_57290)">
<path d="M195.627 964.733C193.305 961.504 189.475 947.34 194.38 942.133C199.149 937.07 202.493 932.961 212.283 932.961C223.29 932.961 232.069 934.774 237.499 939.837C242.929 944.9 242.123 954.104 238.526 963.097C235.592 970.435 198.635 968.915 195.627 964.733Z" fill="#C1C1C1"/>
</g>
<g filter="url(#filter2_dii_601_57290)">
<path d="M222.212 967.425C221.808 965.561 220.483 956.979 225.473 956.172C233.766 954.831 243.564 941.671 256.845 949.228C263.957 953.275 266.791 967.012 263.669 969.04C260.547 971.067 252.484 973.073 245.032 973.149C235.844 973.242 223.166 971.828 222.212 967.425Z" fill="#C1C1C1"/>
</g>
<g filter="url(#filter3_ii_601_57290)">
<path d="M374.563 873.49C374.159 871.625 370.984 858.641 376.001 858.029C391.631 856.121 397.383 845.849 409.099 853.406C415.976 857.842 414.304 867.054 414.304 871.09C414.304 875.125 404.835 879.137 397.383 879.213C388.195 879.306 375.517 877.892 374.563 873.49Z" fill="#C1C1C1"/>
</g>
<g filter="url(#filter4_ii_601_57290)">
<path d="M324.627 882.733C322.305 879.504 318.475 865.34 323.38 860.133C328.149 855.07 331.493 850.961 341.283 850.961C352.29 850.961 361.069 852.774 366.499 857.837C371.929 862.9 371.123 872.104 367.526 881.097C364.592 888.435 327.635 886.915 324.627 882.733Z" fill="#C1C1C1"/>
</g>
<g filter="url(#filter5_ii_601_57290)">
<path d="M36.7105 769.121C13.2053 736.354 -25.5624 592.603 24.0865 539.754C72.3595 488.37 106.205 446.667 205.303 446.667C316.708 446.666 405.575 465.068 460.535 516.452C515.494 567.836 507.337 661.252 470.931 752.521C441.227 826.991 67.162 811.57 36.7105 769.121Z" fill="#C1C1C1"/>
</g>
<g filter="url(#filter6_dii_601_57290)">
<path d="M351.212 885.425C350.808 883.561 349.483 874.979 354.473 874.172C362.766 872.831 372.564 859.671 385.845 867.228C392.957 871.275 395.791 885.012 392.669 887.04C389.547 889.067 381.484 891.073 374.032 891.149C364.844 891.242 352.166 889.828 351.212 885.425Z" fill="#C1C1C1"/>
</g>
<g filter="url(#filter7_i_601_57290)">
<path d="M1201.5 778.725C1201.5 778.725 1079.01 649.356 947.683 572.115C831.683 503.89 704.183 454.39 544.183 407.39C417.275 370.111 246 383.828 246 383.828C246 383.828 398.03 511.327 523.576 572.115C655.414 635.949 747.365 671.48 886.929 715.955C1001.48 752.458 1201.5 778.725 1201.5 778.725Z" fill="#A78864"/>
</g>
<g filter="url(#filter8_f_601_57290)">
<path d="M295.076 460.29C291.898 459.907 388.857 469.912 467.418 488.056C546.632 506.351 589.034 524.903 664.442 555.287C760.395 593.949 812.909 619.678 902.738 670.985C995.25 723.824 1098.03 804.308 1098.03 804.308" stroke="#503333" stroke-opacity="0.8" stroke-width="2" stroke-linecap="round"/>
</g>
<g filter="url(#filter9_f_601_57290)">
<path d="M321.155 515.88C317.977 515.489 364.019 518.781 442.529 537.149C521.69 555.669 565.545 571.541 640.866 602.14C736.708 641.075 789.149 666.953 878.832 718.516C971.194 771.619 1010.24 811.672 1010.24 811.672" stroke="#503333" stroke-opacity="0.8" stroke-width="2" stroke-linecap="round"/>
</g>
<g filter="url(#filter10_f_601_57290)">
<path d="M272.057 413.699C268.876 413.339 399.488 425.177 478.18 442.749C557.524 460.466 600.061 478.709 675.688 508.543C771.92 546.505 824.62 571.85 914.821 622.502C1007.72 674.666 1153.46 778.525 1153.46 778.525" stroke="#503333" stroke-opacity="0.8" stroke-width="2" stroke-linecap="round"/>
</g>
<g filter="url(#filter11_d_601_57290)">
<path d="M491.884 8.56152C492.679 3.09658 497.754 -0.689404 503.219 0.105469L508.167 0.826172C513.633 1.62135 517.418 6.69595 516.623 12.1611L493.818 168.899L558.161 146.018C563.365 144.167 569.084 146.885 570.935 152.089L572.61 156.8C574.46 162.003 571.742 167.722 566.538 169.572L489.746 196.881L431.673 596.014L406.934 592.414L463.105 206.354L383.798 234.559C378.595 236.409 372.876 233.691 371.026 228.487L369.35 223.776C367.5 218.573 370.218 212.854 375.421 211.004L467.176 178.373L491.884 8.56152Z" fill="#806647"/>
</g>
<g filter="url(#filter12_dd_601_57290)">
<path d="M246.62 383.828C246.62 383.828 257.506 549.305 324.105 619.841C406.754 707.376 462.157 736.145 577.343 784.528C692.412 832.862 800.997 881.182 925.803 880.391C1044.71 879.637 1202.12 778.725 1202.12 778.725C1202.12 778.725 1002.1 752.458 887.548 715.954C747.985 671.48 656.033 635.949 524.196 572.115C398.65 511.327 246.62 383.828 246.62 383.828Z" fill="#806647"/>
</g>
<g filter="url(#filter13_f_601_57290)">
<path d="M256.499 447.166C253.999 445.166 354.562 529.349 422.546 572.701C491.093 616.412 534.037 633.674 608.546 666.201C703.355 707.589 758.503 727.041 858.046 755.201C960.561 784.202 1137 814.167 1137 814.167" stroke="#503333" stroke-width="2" stroke-linecap="round"/>
</g>
<g filter="url(#filter14_f_601_57290)">
<path d="M270 510.166C267.5 508.166 342.564 570.349 410.547 613.7C479.095 657.412 522.038 674.674 596.547 707.2C691.356 748.589 746.504 768.04 846.047 796.2C948.563 825.202 1078 842.167 1078 842.167" stroke="#503333" stroke-width="2" stroke-linecap="round"/>
</g>
<g filter="url(#filter15_f_601_57290)">
<path d="M299.5 583.667C297 581.667 331.516 612.315 399.5 655.667C468.048 699.378 510.039 719.674 584.548 752.2C679.357 793.589 734.505 813.04 834.048 841.2C936.564 870.202 992.501 870.167 992.501 870.167" stroke="#503333" stroke-width="2" stroke-linecap="round"/>
</g>
<g filter="url(#filter16_dd_601_57290)">
<path d="M407 243.667C395.14 240.9 384 234.167 384 234.167L386 337.167L426.5 303.667L458 322.167L477.5 283.667L510 291.167L530.5 264.667L565.5 272.167L569 167.667C569 167.667 563.136 183.667 557 186.667C545.927 192.081 536 180.167 536 180.167C536 180.167 532.084 203.418 513 205.667C497.486 207.495 485 197.5 485 197.5C485 197.5 478.549 222.666 461 222.667C448.424 222.667 434.5 216.167 434.5 216.167C434.5 216.167 426.149 248.133 407 243.667Z" fill="#D9D9D9"/>
</g>
<defs>
<filter id="filter0_ii_601_57290" x="236.201" y="924.667" width="49.2819" height="36.5505" filterUnits="userSpaceOnUse" color-interpolation-filters="sRGB">
<feFlood flood-opacity="0" result="BackgroundImageFix"/>
<feBlend mode="normal" in="SourceGraphic" in2="BackgroundImageFix" result="shape"/>
<feColorMatrix in="SourceAlpha" type="matrix" values="0 0 0 0 0 0 0 0 0 0 0 0 0 0 0 0 0 0 127 0" result="hardAlpha"/>
<feOffset dx="-20" dy="-30"/>
<feGaussianBlur stdDeviation="4"/>
<feComposite in2="hardAlpha" operator="arithmetic" k2="-1" k3="1"/>
<feColorMatrix type="matrix" values="0 0 0 0 0 0 0 0 0 0 0 0 0 0 0 0 0 0 0.1 0"/>
<feBlend mode="normal" in2="shape" result="effect1_innerShadow_601_57290"/>
<feColorMatrix in="SourceAlpha" type="matrix" values="0 0 0 0 0 0 0 0 0 0 0 0 0 0 0 0 0 0 127 0" result="hardAlpha"/>
<feOffset dx="-10" dy="-5"/>
<feGaussianBlur stdDeviation="2"/>
<feComposite in2="hardAlpha" operator="arithmetic" k2="-1" k3="1"/>
<feColorMatrix type="matrix" values="0 0 0 0 0 0 0 0 0 0 0 0 0 0 0 0 0 0 0.25 0"/>
<feBlend mode="normal" in2="effect1_innerShadow_601_57290" result="effect2_innerShadow_601_57290"/>
</filter>
<filter id="filter1_ii_601_57290" x="187" y="924.961" width="54.3982" height="43.2742" filterUnits="userSpaceOnUse" color-interpolation-filters="sRGB">
<feFlood flood-opacity="0" result="BackgroundImageFix"/>
<feBlend mode="normal" in="SourceGraphic" in2="BackgroundImageFix" result="shape"/>
<feColorMatrix in="SourceAlpha" type="matrix" values="0 0 0 0 0 0 0 0 0 0 0 0 0 0 0 0 0 0 127 0" result="hardAlpha"/>
<feOffset dx="-5" dy="-10"/>
<feGaussianBlur stdDeviation="4"/>
<feComposite in2="hardAlpha" operator="arithmetic" k2="-1" k3="1"/>
<feColorMatrix type="matrix" values="0 0 0 0 0 0 0 0 0 0 0 0 0 0 0 0 0 0 0.25 0"/>
<feBlend mode="normal" in2="shape" result="effect1_innerShadow_601_57290"/>
<feColorMatrix in="SourceAlpha" type="matrix" values="0 0 0 0 0 0 0 0 0 0 0 0 0 0 0 0 0 0 127 0" result="hardAlpha"/>
<feOffset dx="-15" dy="-10"/>
<feGaussianBlur stdDeviation="2"/>
<feComposite in2="hardAlpha" operator="arithmetic" k2="-1" k3="1"/>
<feColorMatrix type="matrix" values="0 0 0 0 0 0 0 0 0 0 0 0 0 0 0 0 0 0 0.1 0"/>
<feBlend mode="normal" in2="effect1_innerShadow_601_57290" result="effect2_innerShadow_601_57290"/>
</filter>
<filter id="filter2_dii_601_57290" x="176.748" y="891.902" width="143.181" height="126.251" filterUnits="userSpaceOnUse" color-interpolation-filters="sRGB">
<feFlood flood-opacity="0" result="BackgroundImageFix"/>
<feColorMatrix in="SourceAlpha" type="matrix" values="0 0 0 0 0 0 0 0 0 0 0 0 0 0 0 0 0 0 127 0" result="hardAlpha"/>
<feOffset dx="5" dy="-5"/>
<feGaussianBlur stdDeviation="25"/>
<feComposite in2="hardAlpha" operator="out"/>
<feColorMatrix type="matrix" values="0 0 0 0 0 0 0 0 0 0 0 0 0 0 0 0 0 0 0.25 0"/>
<feBlend mode="normal" in2="BackgroundImageFix" result="effect1_dropShadow_601_57290"/>
<feBlend mode="normal" in="SourceGraphic" in2="effect1_dropShadow_601_57290" result="shape"/>
<feColorMatrix in="SourceAlpha" type="matrix" values="0 0 0 0 0 0 0 0 0 0 0 0 0 0 0 0 0 0 127 0" result="hardAlpha"/>
<feOffset dx="-25" dy="-10"/>
<feGaussianBlur stdDeviation="2"/>
<feComposite in2="hardAlpha" operator="arithmetic" k2="-1" k3="1"/>
<feColorMatrix type="matrix" values="0 0 0 0 0 0 0 0 0 0 0 0 0 0 0 0 0 0 0.1 0"/>
<feBlend mode="normal" in2="shape" result="effect2_innerShadow_601_57290"/>
<feColorMatrix in="SourceAlpha" type="matrix" values="0 0 0 0 0 0 0 0 0 0 0 0 0 0 0 0 0 0 127 0" result="hardAlpha"/>
<feOffset dx="-15" dy="-10"/>
<feGaussianBlur stdDeviation="2"/>
<feComposite in2="hardAlpha" operator="arithmetic" k2="-1" k3="1"/>
<feColorMatrix type="matrix" values="0 0 0 0 0 0 0 0 0 0 0 0 0 0 0 0 0 0 0.25 0"/>
<feBlend mode="normal" in2="effect2_innerShadow_601_57290" result="effect3_innerShadow_601_57290"/>
</filter>
<filter id="filter3_ii_601_57290" x="365.201" y="842.667" width="49.2819" height="36.5505" filterUnits="userSpaceOnUse" color-interpolation-filters="sRGB">
<feFlood flood-opacity="0" result="BackgroundImageFix"/>
<feBlend mode="normal" in="SourceGraphic" in2="BackgroundImageFix" result="shape"/>
<feColorMatrix in="SourceAlpha" type="matrix" values="0 0 0 0 0 0 0 0 0 0 0 0 0 0 0 0 0 0 127 0" result="hardAlpha"/>
<feOffset dx="-20" dy="-30"/>
<feGaussianBlur stdDeviation="4"/>
<feComposite in2="hardAlpha" operator="arithmetic" k2="-1" k3="1"/>
<feColorMatrix type="matrix" values="0 0 0 0 0 0 0 0 0 0 0 0 0 0 0 0 0 0 0.1 0"/>
<feBlend mode="normal" in2="shape" result="effect1_innerShadow_601_57290"/>
<feColorMatrix in="SourceAlpha" type="matrix" values="0 0 0 0 0 0 0 0 0 0 0 0 0 0 0 0 0 0 127 0" result="hardAlpha"/>
<feOffset dx="-10" dy="-5"/>
<feGaussianBlur stdDeviation="2"/>
<feComposite in2="hardAlpha" operator="arithmetic" k2="-1" k3="1"/>
<feColorMatrix type="matrix" values="0 0 0 0 0 0 0 0 0 0 0 0 0 0 0 0 0 0 0.25 0"/>
<feBlend mode="normal" in2="effect1_innerShadow_601_57290" result="effect2_innerShadow_601_57290"/>
</filter>
<filter id="filter4_ii_601_57290" x="316" y="842.961" width="54.3982" height="43.2742" filterUnits="userSpaceOnUse" color-interpolation-filters="sRGB">
<feFlood flood-opacity="0" result="BackgroundImageFix"/>
<feBlend mode="normal" in="SourceGraphic" in2="BackgroundImageFix" result="shape"/>
<feColorMatrix in="SourceAlpha" type="matrix" values="0 0 0 0 0 0 0 0 0 0 0 0 0 0 0 0 0 0 127 0" result="hardAlpha"/>
<feOffset dx="-5" dy="-10"/>
<feGaussianBlur stdDeviation="4"/>
<feComposite in2="hardAlpha" operator="arithmetic" k2="-1" k3="1"/>
<feColorMatrix type="matrix" values="0 0 0 0 0 0 0 0 0 0 0 0 0 0 0 0 0 0 0.25 0"/>
<feBlend mode="normal" in2="shape" result="effect1_innerShadow_601_57290"/>
<feColorMatrix in="SourceAlpha" type="matrix" values="0 0 0 0 0 0 0 0 0 0 0 0 0 0 0 0 0 0 127 0" result="hardAlpha"/>
<feOffset dx="-15" dy="-10"/>
<feGaussianBlur stdDeviation="2"/>
<feComposite in2="hardAlpha" operator="arithmetic" k2="-1" k3="1"/>
<feColorMatrix type="matrix" values="0 0 0 0 0 0 0 0 0 0 0 0 0 0 0 0 0 0 0.1 0"/>
<feBlend mode="normal" in2="effect1_innerShadow_601_57290" result="effect2_innerShadow_601_57290"/>
</filter>
<filter id="filter5_ii_601_57290" x="-40" y="406.667" width="540" height="398" filterUnits="userSpaceOnUse" color-interpolation-filters="sRGB">
<feFlood flood-opacity="0" result="BackgroundImageFix"/>
<feBlend mode="normal" in="SourceGraphic" in2="BackgroundImageFix" result="shape"/>
<feColorMatrix in="SourceAlpha" type="matrix" values="0 0 0 0 0 0 0 0 0 0 0 0 0 0 0 0 0 0 127 0" result="hardAlpha"/>
<feOffset dx="-100" dy="-60"/>
<feGaussianBlur stdDeviation="20"/>
<feComposite in2="hardAlpha" operator="arithmetic" k2="-1" k3="1"/>
<feColorMatrix type="matrix" values="0 0 0 0 0 0 0 0 0 0 0 0 0 0 0 0 0 0 0.25 0"/>
<feBlend mode="normal" in2="shape" result="effect1_innerShadow_601_57290"/>
<feColorMatrix in="SourceAlpha" type="matrix" values="0 0 0 0 0 0 0 0 0 0 0 0 0 0 0 0 0 0 127 0" result="hardAlpha"/>
<feOffset dx="-150" dy="-100"/>
<feGaussianBlur stdDeviation="20"/>
<feComposite in2="hardAlpha" operator="arithmetic" k2="-1" k3="1"/>
<feColorMatrix type="matrix" values="0 0 0 0 0 0 0 0 0 0 0 0 0 0 0 0 0 0 0.15 0"/>
<feBlend mode="normal" in2="effect1_innerShadow_601_57290" result="effect2_innerShadow_601_57290"/>
</filter>
<filter id="filter6_dii_601_57290" x="305.748" y="809.902" width="143.181" height="126.251" filterUnits="userSpaceOnUse" color-interpolation-filters="sRGB">
<feFlood flood-opacity="0" result="BackgroundImageFix"/>
<feColorMatrix in="SourceAlpha" type="matrix" values="0 0 0 0 0 0 0 0 0 0 0 0 0 0 0 0 0 0 127 0" result="hardAlpha"/>
<feOffset dx="5" dy="-5"/>
<feGaussianBlur stdDeviation="25"/>
<feComposite in2="hardAlpha" operator="out"/>
<feColorMatrix type="matrix" values="0 0 0 0 0 0 0 0 0 0 0 0 0 0 0 0 0 0 0.25 0"/>
<feBlend mode="normal" in2="BackgroundImageFix" result="effect1_dropShadow_601_57290"/>
<feBlend mode="normal" in="SourceGraphic" in2="effect1_dropShadow_601_57290" result="shape"/>
<feColorMatrix in="SourceAlpha" type="matrix" values="0 0 0 0 0 0 0 0 0 0 0 0 0 0 0 0 0 0 127 0" result="hardAlpha"/>
<feOffset dx="-25" dy="-10"/>
<feGaussianBlur stdDeviation="2"/>
<feComposite in2="hardAlpha" operator="arithmetic" k2="-1" k3="1"/>
<feColorMatrix type="matrix" values="0 0 0 0 0 0 0 0 0 0 0 0 0 0 0 0 0 0 0.1 0"/>
<feBlend mode="normal" in2="shape" result="effect2_innerShadow_601_57290"/>
<feColorMatrix in="SourceAlpha" type="matrix" values="0 0 0 0 0 0 0 0 0 0 0 0 0 0 0 0 0 0 127 0" result="hardAlpha"/>
<feOffset dx="-15" dy="-10"/>
<feGaussianBlur stdDeviation="2"/>
<feComposite in2="hardAlpha" operator="arithmetic" k2="-1" k3="1"/>
<feColorMatrix type="matrix" values="0 0 0 0 0 0 0 0 0 0 0 0 0 0 0 0 0 0 0.25 0"/>
<feBlend mode="normal" in2="effect2_innerShadow_601_57290" result="effect3_innerShadow_601_57290"/>
</filter>
<filter id="filter7_i_601_57290" x="246" y="351.363" width="985.495" height="427.362" filterUnits="userSpaceOnUse" color-interpolation-filters="sRGB">
<feFlood flood-opacity="0" result="BackgroundImageFix"/>
<feBlend mode="normal" in="SourceGraphic" in2="BackgroundImageFix" result="shape"/>
<feColorMatrix in="SourceAlpha" type="matrix" values="0 0 0 0 0 0 0 0 0 0 0 0 0 0 0 0 0 0 127 0" result="hardAlpha"/>
<feOffset dx="30" dy="-30"/>
<feGaussianBlur stdDeviation="25"/>
<feComposite in2="hardAlpha" operator="arithmetic" k2="-1" k3="1"/>
<feColorMatrix type="matrix" values="0 0 0 0 0 0 0 0 0 0 0 0 0 0 0 0 0 0 0.15 0"/>
<feBlend mode="normal" in2="shape" result="effect1_innerShadow_601_57290"/>
</filter>
<filter id="filter8_f_601_57290" x="293.294" y="458.28" width="806.739" height="348.027" filterUnits="userSpaceOnUse" color-interpolation-filters="sRGB">
<feFlood flood-opacity="0" result="BackgroundImageFix"/>
<feBlend mode="normal" in="SourceGraphic" in2="BackgroundImageFix" result="shape"/>
<feGaussianBlur stdDeviation="0.5" result="effect1_foregroundBlur_601_57290"/>
</filter>
<filter id="filter9_f_601_57290" x="319.068" y="513.851" width="693.173" height="299.821" filterUnits="userSpaceOnUse" color-interpolation-filters="sRGB">
<feFlood flood-opacity="0" result="BackgroundImageFix"/>
<feBlend mode="normal" in="SourceGraphic" in2="BackgroundImageFix" result="shape"/>
<feGaussianBlur stdDeviation="0.5" result="effect1_foregroundBlur_601_57290"/>
</filter>
<filter id="filter10_f_601_57290" x="270.231" y="411.691" width="885.231" height="368.834" filterUnits="userSpaceOnUse" color-interpolation-filters="sRGB">
<feFlood flood-opacity="0" result="BackgroundImageFix"/>
<feBlend mode="normal" in="SourceGraphic" in2="BackgroundImageFix" result="shape"/>
<feGaussianBlur stdDeviation="0.5" result="effect1_foregroundBlur_601_57290"/>
</filter>
<filter id="filter11_d_601_57290" x="364.769" y="0" width="212.421" height="604.014" filterUnits="userSpaceOnUse" color-interpolation-filters="sRGB">
<feFlood flood-opacity="0" result="BackgroundImageFix"/>
<feColorMatrix in="SourceAlpha" type="matrix" values="0 0 0 0 0 0 0 0 0 0 0 0 0 0 0 0 0 0 127 0" result="hardAlpha"/>
<feOffset dy="4"/>
<feGaussianBlur stdDeviation="2"/>
<feComposite in2="hardAlpha" operator="out"/>
<feColorMatrix type="matrix" values="0 0 0 0 0 0 0 0 0 0 0 0 0 0 0 0 0 0 0.25 0"/>
<feBlend mode="normal" in2="BackgroundImageFix" result="effect1_dropShadow_601_57290"/>
<feBlend mode="normal" in="SourceGraphic" in2="effect1_dropShadow_601_57290" result="shape"/>
</filter>
<filter id="filter12_dd_601_57290" x="211.62" y="367.828" width="1025.5" height="547.572" filterUnits="userSpaceOnUse" color-interpolation-filters="sRGB">
<feFlood flood-opacity="0" result="BackgroundImageFix"/>
<feColorMatrix in="SourceAlpha" type="matrix" values="0 0 0 0 0 0 0 0 0 0 0 0 0 0 0 0 0 0 127 0" result="hardAlpha"/>
<feOffset dx="-15" dy="15"/>
<feGaussianBlur stdDeviation="10"/>
<feComposite in2="hardAlpha" operator="out"/>
<feColorMatrix type="matrix" values="0 0 0 0 0 0 0 0 0 0 0 0 0 0 0 0 0 0 0.25 0"/>
<feBlend mode="normal" in2="BackgroundImageFix" result="effect1_dropShadow_601_57290"/>
<feColorMatrix in="SourceAlpha" type="matrix" values="0 0 0 0 0 0 0 0 0 0 0 0 0 0 0 0 0 0 127 0" result="hardAlpha"/>
<feOffset dx="15" dy="4"/>
<feGaussianBlur stdDeviation="10"/>
<feComposite in2="hardAlpha" operator="out"/>
<feColorMatrix type="matrix" values="0 0 0 0 0 0 0 0 0 0 0 0 0 0 0 0 0 0 0.25 0"/>
<feBlend mode="normal" in2="effect1_dropShadow_601_57290" result="effect2_dropShadow_601_57290"/>
<feBlend mode="normal" in="SourceGraphic" in2="effect2_dropShadow_601_57290" result="shape"/>
</filter>
<filter id="filter13_f_601_57290" x="254.67" y="445.132" width="884.33" height="371.035" filterUnits="userSpaceOnUse" color-interpolation-filters="sRGB">
<feFlood flood-opacity="0" result="BackgroundImageFix"/>
<feBlend mode="normal" in="SourceGraphic" in2="BackgroundImageFix" result="shape"/>
<feGaussianBlur stdDeviation="0.5" result="effect1_foregroundBlur_601_57290"/>
</filter>
<filter id="filter14_f_601_57290" x="268.156" y="508.13" width="811.844" height="336.036" filterUnits="userSpaceOnUse" color-interpolation-filters="sRGB">
<feFlood flood-opacity="0" result="BackgroundImageFix"/>
<feBlend mode="normal" in="SourceGraphic" in2="BackgroundImageFix" result="shape"/>
<feGaussianBlur stdDeviation="0.5" result="effect1_foregroundBlur_601_57290"/>
</filter>
<filter id="filter15_f_601_57290" x="297.396" y="581.58" width="697.104" height="290.587" filterUnits="userSpaceOnUse" color-interpolation-filters="sRGB">
<feFlood flood-opacity="0" result="BackgroundImageFix"/>
<feBlend mode="normal" in="SourceGraphic" in2="BackgroundImageFix" result="shape"/>
<feGaussianBlur stdDeviation="0.5" result="effect1_foregroundBlur_601_57290"/>
</filter>
<filter id="filter16_dd_601_57290" x="380" y="167.667" width="193" height="177.5" filterUnits="userSpaceOnUse" color-interpolation-filters="sRGB">
<feFlood flood-opacity="0" result="BackgroundImageFix"/>
<feColorMatrix in="SourceAlpha" type="matrix" values="0 0 0 0 0 0 0 0 0 0 0 0 0 0 0 0 0 0 127 0" result="hardAlpha"/>
<feOffset dy="4"/>
<feGaussianBlur stdDeviation="2"/>
<feComposite in2="hardAlpha" operator="out"/>
<feColorMatrix type="matrix" values="0 0 0 0 0 0 0 0 0 0 0 0 0 0 0 0 0 0 0.25 0"/>
<feBlend mode="normal" in2="BackgroundImageFix" result="effect1_dropShadow_601_57290"/>
<feColorMatrix in="SourceAlpha" type="matrix" values="0 0 0 0 0 0 0 0 0 0 0 0 0 0 0 0 0 0 127 0" result="hardAlpha"/>
<feOffset dy="4"/>
<feGaussianBlur stdDeviation="2"/>
<feComposite in2="hardAlpha" operator="out"/>
<feColorMatrix type="matrix" values="0 0 0 0 0 0 0 0 0 0 0 0 0 0 0 0 0 0 0.25 0"/>
<feBlend mode="normal" in2="effect1_dropShadow_601_57290" result="effect2_dropShadow_601_57290"/>
<feBlend mode="normal" in="SourceGraphic" in2="effect2_dropShadow_601_57290" result="shape"/>
</filter>
</defs>
</svg>
