<svg width="276" height="458" viewBox="0 0 276 458" fill="none" xmlns="http://www.w3.org/2000/svg">
<g filter="url(#filter0_d_667_59359)">
<g filter="url(#filter1_i_667_59359)">
<path d="M178.592 295.989C179.047 302.58 146.875 300.344 146.49 292.821C144.694 257.637 164.982 231.27 158.218 196.943C150.088 155.681 126.963 147.206 121.232 128.716C114.387 106.63 134.668 94.4098 137.674 69.5627C140.242 48.3326 119.209 24.0118 140.157 15.8026C151.297 11.4367 169.651 25.3047 172.258 47.134C176.624 83.6875 156.935 102.007 159.846 135.992C161.972 160.818 189.636 186.072 189.636 208.329C189.636 230.586 176.967 272.447 178.592 295.989Z" fill="#3B8536"/>
</g>
<g filter="url(#filter2_i_667_59359)">
<path d="M163.436 293.816C164.953 297.174 143.237 303.318 139.213 297.583C124.624 276.787 119.049 272.244 108.395 248.274C102.422 234.834 113.014 208.468 109.936 189.378C105.446 161.529 73.1247 146.661 76.2068 116.185C76.934 108.995 82.3608 97.1811 92.7258 97.1811C109.419 97.1811 99.7454 126.287 109.765 138.613C120.411 151.711 137.392 161.984 135.443 175.339C133.493 188.693 121.803 206.584 128.085 233.807C132.707 253.839 157.595 280.89 163.436 293.816Z" fill="#3B8536"/>
</g>
<g filter="url(#filter3_i_667_59359)">
<path d="M163.564 293.816C162.047 297.174 183.763 303.318 187.787 297.583C202.376 276.787 207.951 272.244 218.605 248.274C224.578 234.834 213.986 208.468 217.064 189.378C221.554 161.529 253.875 146.661 250.793 116.185C250.066 108.995 244.639 97.1811 234.274 97.1811C217.581 97.1811 227.255 126.287 217.235 138.613C206.589 151.711 189.608 161.984 191.557 175.339C193.507 188.693 205.197 206.584 198.915 233.807C194.293 253.839 169.405 280.89 163.564 293.816Z" fill="#3B8536"/>
</g>
<g filter="url(#filter4_ii_667_59359)">
<path d="M169.87 303.236C169.399 301.061 165.695 285.914 171.548 285.199C189.784 282.973 196.494 270.989 210.163 279.806C218.186 284.981 216.236 295.728 216.236 300.437C216.236 305.145 205.188 309.825 196.494 309.914C185.775 310.023 170.984 308.373 169.87 303.236Z" fill="#C1C1C1"/>
</g>
<g filter="url(#filter5_ii_667_59359)">
<path d="M111.612 314.019C108.902 310.253 104.434 293.728 110.157 287.653C115.721 281.746 119.622 276.952 131.044 276.952C143.885 276.952 154.128 279.067 160.463 284.974C166.798 290.881 165.857 301.619 161.661 312.111C158.237 320.671 115.122 318.899 111.612 314.019Z" fill="#C1C1C1"/>
</g>
<g filter="url(#filter6_dii_667_59359)">
<path d="M142.628 317.161C142.157 314.986 140.612 304.974 146.433 304.032C156.108 302.467 167.54 287.114 183.034 295.931C191.331 300.652 194.638 316.679 190.995 319.044C187.352 321.41 177.946 323.75 169.251 323.838C158.533 323.947 143.742 322.298 142.628 317.161Z" fill="#C1C1C1"/>
</g>
</g>
<g filter="url(#filter7_d_667_59359)">
<g filter="url(#filter8_i_667_59359)">
<path d="M92.9364 388.848C93.3265 394.497 65.7498 392.581 65.4205 386.133C63.8804 355.975 81.2703 333.375 75.4729 303.951C68.5045 268.584 48.6828 261.32 43.7705 245.471C37.903 226.54 55.2872 216.066 57.8636 194.768C60.0649 176.571 42.0366 155.724 59.9915 148.688C69.5405 144.946 85.2726 156.833 87.5074 175.543C91.2496 206.875 74.3731 222.577 76.8679 251.708C78.6903 272.987 102.403 294.633 102.403 313.71C102.403 332.788 91.5431 368.669 92.9364 388.848Z" fill="#3B8536"/>
</g>
<g filter="url(#filter9_i_667_59359)">
<path d="M79.9447 386.985C81.2453 389.864 62.6315 395.13 59.1826 390.214C46.6781 372.389 41.8987 368.494 32.7676 347.949C27.6476 336.429 36.7264 313.829 34.0883 297.467C30.2398 273.596 2.53547 260.852 5.17724 234.73C5.80057 228.567 10.4521 218.441 19.3364 218.441C33.6446 218.441 25.3532 243.389 33.9415 253.954C43.067 265.181 57.6219 273.986 55.9509 285.433C54.2798 296.88 44.2593 312.215 49.644 335.549C53.6062 352.719 74.9388 375.905 79.9447 386.985Z" fill="#3B8536"/>
</g>
<g filter="url(#filter10_i_667_59359)">
<path d="M80.0553 386.985C78.7547 389.864 97.3685 395.13 100.817 390.214C113.322 372.389 118.101 368.494 127.232 347.949C132.352 336.429 123.274 313.829 125.912 297.467C129.76 273.596 157.465 260.852 154.823 234.73C154.199 228.567 149.548 218.441 140.664 218.441C126.355 218.441 134.647 243.389 126.058 253.954C116.933 265.181 102.378 273.986 104.049 285.433C105.72 296.88 115.741 312.215 110.356 335.549C106.394 352.719 85.0612 375.905 80.0553 386.985Z" fill="#3B8536"/>
</g>
<g filter="url(#filter11_ii_667_59359)">
<path d="M85.4604 395.059C85.0563 393.195 81.8813 380.211 86.8986 379.599C102.529 377.691 108.28 367.418 119.997 374.976C126.873 379.412 125.202 388.624 125.202 392.659C125.202 396.695 115.733 400.707 108.28 400.783C99.093 400.876 86.4147 399.462 85.4604 395.059Z" fill="#C1C1C1"/>
</g>
<g filter="url(#filter12_ii_667_59359)">
<path d="M35.5243 404.303C33.2021 401.074 29.372 386.91 34.2771 381.703C39.0463 376.64 42.3902 372.531 52.1807 372.531C63.1871 372.531 71.9668 374.344 77.3966 379.407C82.8264 384.47 82.0205 393.674 78.4238 402.667C75.4891 410.005 38.5328 408.485 35.5243 404.303Z" fill="#C1C1C1"/>
</g>
<g filter="url(#filter13_dii_667_59359)">
<path d="M62.1099 406.995C61.7059 405.131 60.3816 396.549 65.3713 395.742C73.6639 394.4 83.4625 381.24 96.7433 388.798C103.855 392.845 106.69 406.582 103.567 408.609C100.445 410.637 92.3826 412.643 84.9298 412.718C75.7426 412.812 63.0643 411.398 62.1099 406.995Z" fill="#C1C1C1"/>
</g>
</g>
<defs>
<filter id="filter0_d_667_59359" x="71" y="0" width="205" height="338.843" filterUnits="userSpaceOnUse" color-interpolation-filters="sRGB">
<feFlood flood-opacity="0" result="BackgroundImageFix"/>
<feColorMatrix in="SourceAlpha" type="matrix" values="0 0 0 0 0 0 0 0 0 0 0 0 0 0 0 0 0 0 127 0" result="hardAlpha"/>
<feOffset dx="10"/>
<feGaussianBlur stdDeviation="7.5"/>
<feComposite in2="hardAlpha" operator="out"/>
<feColorMatrix type="matrix" values="0 0 0 0 0 0 0 0 0 0 0 0 0 0 0 0 0 0 0.25 0"/>
<feBlend mode="normal" in2="BackgroundImageFix" result="effect1_dropShadow_667_59359"/>
<feBlend mode="normal" in="SourceGraphic" in2="effect1_dropShadow_667_59359" result="shape"/>
</filter>
<filter id="filter1_i_667_59359" x="119.83" y="15" width="70.8065" height="284.888" filterUnits="userSpaceOnUse" color-interpolation-filters="sRGB">
<feFlood flood-opacity="0" result="BackgroundImageFix"/>
<feBlend mode="normal" in="SourceGraphic" in2="BackgroundImageFix" result="shape"/>
<feColorMatrix in="SourceAlpha" type="matrix" values="0 0 0 0 0 0 0 0 0 0 0 0 0 0 0 0 0 0 127 0" result="hardAlpha"/>
<feOffset dx="15"/>
<feGaussianBlur stdDeviation="0.5"/>
<feComposite in2="hardAlpha" operator="arithmetic" k2="-1" k3="1"/>
<feColorMatrix type="matrix" values="0 0 0 0 0.968627 0 0 0 0 0.968627 0 0 0 0 0.968627 0 0 0 0.25 0"/>
<feBlend mode="normal" in2="shape" result="effect1_innerShadow_667_59359"/>
</filter>
<filter id="filter2_i_667_59359" x="76" y="97.1811" width="88.5114" height="202.753" filterUnits="userSpaceOnUse" color-interpolation-filters="sRGB">
<feFlood flood-opacity="0" result="BackgroundImageFix"/>
<feBlend mode="normal" in="SourceGraphic" in2="BackgroundImageFix" result="shape"/>
<feColorMatrix in="SourceAlpha" type="matrix" values="0 0 0 0 0 0 0 0 0 0 0 0 0 0 0 0 0 0 127 0" result="hardAlpha"/>
<feOffset dx="10"/>
<feGaussianBlur stdDeviation="0.5"/>
<feComposite in2="hardAlpha" operator="arithmetic" k2="-1" k3="1"/>
<feColorMatrix type="matrix" values="0 0 0 0 0.968627 0 0 0 0 0.968627 0 0 0 0 0.968627 0 0 0 0.25 0"/>
<feBlend mode="normal" in2="shape" result="effect1_innerShadow_667_59359"/>
</filter>
<filter id="filter3_i_667_59359" x="163.489" y="97.1811" width="88.5114" height="202.753" filterUnits="userSpaceOnUse" color-interpolation-filters="sRGB">
<feFlood flood-opacity="0" result="BackgroundImageFix"/>
<feBlend mode="normal" in="SourceGraphic" in2="BackgroundImageFix" result="shape"/>
<feColorMatrix in="SourceAlpha" type="matrix" values="0 0 0 0 0 0 0 0 0 0 0 0 0 0 0 0 0 0 127 0" result="hardAlpha"/>
<feOffset dx="12"/>
<feGaussianBlur stdDeviation="0.5"/>
<feComposite in2="hardAlpha" operator="arithmetic" k2="-1" k3="1"/>
<feColorMatrix type="matrix" values="0 0 0 0 0.968627 0 0 0 0 0.968627 0 0 0 0 0.968627 0 0 0 0.25 0"/>
<feBlend mode="normal" in2="shape" result="effect1_innerShadow_667_59359"/>
</filter>
<filter id="filter4_ii_667_59359" x="160.282" y="268.61" width="56.1622" height="41.309" filterUnits="userSpaceOnUse" color-interpolation-filters="sRGB">
<feFlood flood-opacity="0" result="BackgroundImageFix"/>
<feBlend mode="normal" in="SourceGraphic" in2="BackgroundImageFix" result="shape"/>
<feColorMatrix in="SourceAlpha" type="matrix" values="0 0 0 0 0 0 0 0 0 0 0 0 0 0 0 0 0 0 127 0" result="hardAlpha"/>
<feOffset dx="-20" dy="-30"/>
<feGaussianBlur stdDeviation="4"/>
<feComposite in2="hardAlpha" operator="arithmetic" k2="-1" k3="1"/>
<feColorMatrix type="matrix" values="0 0 0 0 0 0 0 0 0 0 0 0 0 0 0 0 0 0 0.1 0"/>
<feBlend mode="normal" in2="shape" result="effect1_innerShadow_667_59359"/>
<feColorMatrix in="SourceAlpha" type="matrix" values="0 0 0 0 0 0 0 0 0 0 0 0 0 0 0 0 0 0 127 0" result="hardAlpha"/>
<feOffset dx="-10" dy="-5"/>
<feGaussianBlur stdDeviation="2"/>
<feComposite in2="hardAlpha" operator="arithmetic" k2="-1" k3="1"/>
<feColorMatrix type="matrix" values="0 0 0 0 0 0 0 0 0 0 0 0 0 0 0 0 0 0 0.25 0"/>
<feBlend mode="normal" in2="effect1_innerShadow_667_59359" result="effect2_innerShadow_667_59359"/>
</filter>
<filter id="filter5_ii_667_59359" x="102.38" y="268.952" width="62.6312" height="49.1532" filterUnits="userSpaceOnUse" color-interpolation-filters="sRGB">
<feFlood flood-opacity="0" result="BackgroundImageFix"/>
<feBlend mode="normal" in="SourceGraphic" in2="BackgroundImageFix" result="shape"/>
<feColorMatrix in="SourceAlpha" type="matrix" values="0 0 0 0 0 0 0 0 0 0 0 0 0 0 0 0 0 0 127 0" result="hardAlpha"/>
<feOffset dx="-5" dy="-10"/>
<feGaussianBlur stdDeviation="4"/>
<feComposite in2="hardAlpha" operator="arithmetic" k2="-1" k3="1"/>
<feColorMatrix type="matrix" values="0 0 0 0 0 0 0 0 0 0 0 0 0 0 0 0 0 0 0.25 0"/>
<feBlend mode="normal" in2="shape" result="effect1_innerShadow_667_59359"/>
<feColorMatrix in="SourceAlpha" type="matrix" values="0 0 0 0 0 0 0 0 0 0 0 0 0 0 0 0 0 0 127 0" result="hardAlpha"/>
<feOffset dx="-15" dy="-10"/>
<feGaussianBlur stdDeviation="2"/>
<feComposite in2="hardAlpha" operator="arithmetic" k2="-1" k3="1"/>
<feColorMatrix type="matrix" values="0 0 0 0 0 0 0 0 0 0 0 0 0 0 0 0 0 0 0.1 0"/>
<feBlend mode="normal" in2="effect1_innerShadow_667_59359" result="effect2_innerShadow_667_59359"/>
</filter>
<filter id="filter6_dii_667_59359" x="97.0873" y="238.217" width="150.377" height="130.626" filterUnits="userSpaceOnUse" color-interpolation-filters="sRGB">
<feFlood flood-opacity="0" result="BackgroundImageFix"/>
<feColorMatrix in="SourceAlpha" type="matrix" values="0 0 0 0 0 0 0 0 0 0 0 0 0 0 0 0 0 0 127 0" result="hardAlpha"/>
<feOffset dx="5" dy="-5"/>
<feGaussianBlur stdDeviation="25"/>
<feComposite in2="hardAlpha" operator="out"/>
<feColorMatrix type="matrix" values="0 0 0 0 0 0 0 0 0 0 0 0 0 0 0 0 0 0 0.25 0"/>
<feBlend mode="normal" in2="BackgroundImageFix" result="effect1_dropShadow_667_59359"/>
<feBlend mode="normal" in="SourceGraphic" in2="effect1_dropShadow_667_59359" result="shape"/>
<feColorMatrix in="SourceAlpha" type="matrix" values="0 0 0 0 0 0 0 0 0 0 0 0 0 0 0 0 0 0 127 0" result="hardAlpha"/>
<feOffset dx="-25" dy="-10"/>
<feGaussianBlur stdDeviation="2"/>
<feComposite in2="hardAlpha" operator="arithmetic" k2="-1" k3="1"/>
<feColorMatrix type="matrix" values="0 0 0 0 0 0 0 0 0 0 0 0 0 0 0 0 0 0 0.1 0"/>
<feBlend mode="normal" in2="shape" result="effect2_innerShadow_667_59359"/>
<feColorMatrix in="SourceAlpha" type="matrix" values="0 0 0 0 0 0 0 0 0 0 0 0 0 0 0 0 0 0 127 0" result="hardAlpha"/>
<feOffset dx="-15" dy="-10"/>
<feGaussianBlur stdDeviation="2"/>
<feComposite in2="hardAlpha" operator="arithmetic" k2="-1" k3="1"/>
<feColorMatrix type="matrix" values="0 0 0 0 0 0 0 0 0 0 0 0 0 0 0 0 0 0 0.25 0"/>
<feBlend mode="normal" in2="effect2_innerShadow_667_59359" result="effect3_innerShadow_667_59359"/>
</filter>
<filter id="filter7_d_667_59359" x="0" y="133" width="180" height="294.723" filterUnits="userSpaceOnUse" color-interpolation-filters="sRGB">
<feFlood flood-opacity="0" result="BackgroundImageFix"/>
<feColorMatrix in="SourceAlpha" type="matrix" values="0 0 0 0 0 0 0 0 0 0 0 0 0 0 0 0 0 0 127 0" result="hardAlpha"/>
<feOffset dx="10"/>
<feGaussianBlur stdDeviation="7.5"/>
<feComposite in2="hardAlpha" operator="out"/>
<feColorMatrix type="matrix" values="0 0 0 0 0 0 0 0 0 0 0 0 0 0 0 0 0 0 0.25 0"/>
<feBlend mode="normal" in2="BackgroundImageFix" result="effect1_dropShadow_667_59359"/>
<feBlend mode="normal" in="SourceGraphic" in2="effect1_dropShadow_667_59359" result="shape"/>
</filter>
<filter id="filter8_i_667_59359" x="42.5685" y="148" width="60.8342" height="244.19" filterUnits="userSpaceOnUse" color-interpolation-filters="sRGB">
<feFlood flood-opacity="0" result="BackgroundImageFix"/>
<feBlend mode="normal" in="SourceGraphic" in2="BackgroundImageFix" result="shape"/>
<feColorMatrix in="SourceAlpha" type="matrix" values="0 0 0 0 0 0 0 0 0 0 0 0 0 0 0 0 0 0 127 0" result="hardAlpha"/>
<feOffset dx="15"/>
<feGaussianBlur stdDeviation="0.5"/>
<feComposite in2="hardAlpha" operator="arithmetic" k2="-1" k3="1"/>
<feColorMatrix type="matrix" values="0 0 0 0 0.968627 0 0 0 0 0.968627 0 0 0 0 0.968627 0 0 0 0.25 0"/>
<feBlend mode="normal" in2="shape" result="effect1_innerShadow_667_59359"/>
</filter>
<filter id="filter9_i_667_59359" x="5" y="218.441" width="76.0098" height="173.788" filterUnits="userSpaceOnUse" color-interpolation-filters="sRGB">
<feFlood flood-opacity="0" result="BackgroundImageFix"/>
<feBlend mode="normal" in="SourceGraphic" in2="BackgroundImageFix" result="shape"/>
<feColorMatrix in="SourceAlpha" type="matrix" values="0 0 0 0 0 0 0 0 0 0 0 0 0 0 0 0 0 0 127 0" result="hardAlpha"/>
<feOffset dx="10"/>
<feGaussianBlur stdDeviation="0.5"/>
<feComposite in2="hardAlpha" operator="arithmetic" k2="-1" k3="1"/>
<feColorMatrix type="matrix" values="0 0 0 0 0.968627 0 0 0 0 0.968627 0 0 0 0 0.968627 0 0 0 0.25 0"/>
<feBlend mode="normal" in2="shape" result="effect1_innerShadow_667_59359"/>
</filter>
<filter id="filter10_i_667_59359" x="79.9902" y="218.441" width="76.0098" height="173.788" filterUnits="userSpaceOnUse" color-interpolation-filters="sRGB">
<feFlood flood-opacity="0" result="BackgroundImageFix"/>
<feBlend mode="normal" in="SourceGraphic" in2="BackgroundImageFix" result="shape"/>
<feColorMatrix in="SourceAlpha" type="matrix" values="0 0 0 0 0 0 0 0 0 0 0 0 0 0 0 0 0 0 127 0" result="hardAlpha"/>
<feOffset dx="12"/>
<feGaussianBlur stdDeviation="0.5"/>
<feComposite in2="hardAlpha" operator="arithmetic" k2="-1" k3="1"/>
<feColorMatrix type="matrix" values="0 0 0 0 0.968627 0 0 0 0 0.968627 0 0 0 0 0.968627 0 0 0 0.25 0"/>
<feBlend mode="normal" in2="shape" result="effect1_innerShadow_667_59359"/>
</filter>
<filter id="filter11_ii_667_59359" x="76.0989" y="364.236" width="49.2819" height="36.5505" filterUnits="userSpaceOnUse" color-interpolation-filters="sRGB">
<feFlood flood-opacity="0" result="BackgroundImageFix"/>
<feBlend mode="normal" in="SourceGraphic" in2="BackgroundImageFix" result="shape"/>
<feColorMatrix in="SourceAlpha" type="matrix" values="0 0 0 0 0 0 0 0 0 0 0 0 0 0 0 0 0 0 127 0" result="hardAlpha"/>
<feOffset dx="-20" dy="-30"/>
<feGaussianBlur stdDeviation="4"/>
<feComposite in2="hardAlpha" operator="arithmetic" k2="-1" k3="1"/>
<feColorMatrix type="matrix" values="0 0 0 0 0 0 0 0 0 0 0 0 0 0 0 0 0 0 0.1 0"/>
<feBlend mode="normal" in2="shape" result="effect1_innerShadow_667_59359"/>
<feColorMatrix in="SourceAlpha" type="matrix" values="0 0 0 0 0 0 0 0 0 0 0 0 0 0 0 0 0 0 127 0" result="hardAlpha"/>
<feOffset dx="-10" dy="-5"/>
<feGaussianBlur stdDeviation="2"/>
<feComposite in2="hardAlpha" operator="arithmetic" k2="-1" k3="1"/>
<feColorMatrix type="matrix" values="0 0 0 0 0 0 0 0 0 0 0 0 0 0 0 0 0 0 0.25 0"/>
<feBlend mode="normal" in2="effect1_innerShadow_667_59359" result="effect2_innerShadow_667_59359"/>
</filter>
<filter id="filter12_ii_667_59359" x="26.8975" y="364.531" width="54.3982" height="43.2742" filterUnits="userSpaceOnUse" color-interpolation-filters="sRGB">
<feFlood flood-opacity="0" result="BackgroundImageFix"/>
<feBlend mode="normal" in="SourceGraphic" in2="BackgroundImageFix" result="shape"/>
<feColorMatrix in="SourceAlpha" type="matrix" values="0 0 0 0 0 0 0 0 0 0 0 0 0 0 0 0 0 0 127 0" result="hardAlpha"/>
<feOffset dx="-5" dy="-10"/>
<feGaussianBlur stdDeviation="4"/>
<feComposite in2="hardAlpha" operator="arithmetic" k2="-1" k3="1"/>
<feColorMatrix type="matrix" values="0 0 0 0 0 0 0 0 0 0 0 0 0 0 0 0 0 0 0.25 0"/>
<feBlend mode="normal" in2="shape" result="effect1_innerShadow_667_59359"/>
<feColorMatrix in="SourceAlpha" type="matrix" values="0 0 0 0 0 0 0 0 0 0 0 0 0 0 0 0 0 0 127 0" result="hardAlpha"/>
<feOffset dx="-15" dy="-10"/>
<feGaussianBlur stdDeviation="2"/>
<feComposite in2="hardAlpha" operator="arithmetic" k2="-1" k3="1"/>
<feColorMatrix type="matrix" values="0 0 0 0 0 0 0 0 0 0 0 0 0 0 0 0 0 0 0.1 0"/>
<feBlend mode="normal" in2="effect1_innerShadow_667_59359" result="effect2_innerShadow_667_59359"/>
</filter>
<filter id="filter13_dii_667_59359" x="16.6462" y="331.472" width="143.181" height="126.251" filterUnits="userSpaceOnUse" color-interpolation-filters="sRGB">
<feFlood flood-opacity="0" result="BackgroundImageFix"/>
<feColorMatrix in="SourceAlpha" type="matrix" values="0 0 0 0 0 0 0 0 0 0 0 0 0 0 0 0 0 0 127 0" result="hardAlpha"/>
<feOffset dx="5" dy="-5"/>
<feGaussianBlur stdDeviation="25"/>
<feComposite in2="hardAlpha" operator="out"/>
<feColorMatrix type="matrix" values="0 0 0 0 0 0 0 0 0 0 0 0 0 0 0 0 0 0 0.25 0"/>
<feBlend mode="normal" in2="BackgroundImageFix" result="effect1_dropShadow_667_59359"/>
<feBlend mode="normal" in="SourceGraphic" in2="effect1_dropShadow_667_59359" result="shape"/>
<feColorMatrix in="SourceAlpha" type="matrix" values="0 0 0 0 0 0 0 0 0 0 0 0 0 0 0 0 0 0 127 0" result="hardAlpha"/>
<feOffset dx="-25" dy="-10"/>
<feGaussianBlur stdDeviation="2"/>
<feComposite in2="hardAlpha" operator="arithmetic" k2="-1" k3="1"/>
<feColorMatrix type="matrix" values="0 0 0 0 0 0 0 0 0 0 0 0 0 0 0 0 0 0 0.1 0"/>
<feBlend mode="normal" in2="shape" result="effect2_innerShadow_667_59359"/>
<feColorMatrix in="SourceAlpha" type="matrix" values="0 0 0 0 0 0 0 0 0 0 0 0 0 0 0 0 0 0 127 0" result="hardAlpha"/>
<feOffset dx="-15" dy="-10"/>
<feGaussianBlur stdDeviation="2"/>
<feComposite in2="hardAlpha" operator="arithmetic" k2="-1" k3="1"/>
<feColorMatrix type="matrix" values="0 0 0 0 0 0 0 0 0 0 0 0 0 0 0 0 0 0 0.25 0"/>
<feBlend mode="normal" in2="effect2_innerShadow_667_59359" result="effect3_innerShadow_667_59359"/>
</filter>
</defs>
</svg>
