<svg width="200" height="233" viewBox="0 0 200 233" fill="none" xmlns="http://www.w3.org/2000/svg">
<path d="M56.0962 140.282C56.0962 140.282 31.3617 102.405 8.28972 118.874C1.66531 123.602 -2.52752 131.688 1.70574 138.636C24.7842 176.512 48.5258 214.597 69.2737 224.269C94.0003 235.797 148.384 235.454 164.864 225.916C178.653 217.936 183.929 212.751 192.865 199.568C202.914 184.746 199.408 136.685 199.408 113.63C199.408 101.985 194.464 92.2214 182.978 89.2315C171.582 86.2651 163.216 94.1713 163.216 94.1713C163.216 94.1713 163.216 75.3575 145.074 72.7634C133.552 71.116 126.96 82.6437 126.96 82.6437C126.96 82.6437 125.312 63.8689 110.466 61.2357C101.177 59.5883 93.9359 69.166 93.9359 69.166C93.9359 69.166 95.6483 18.4181 90.7043 8.53723C86.387 -0.0911122 80.5436 -0.557168 70.9283 0.303281C61.313 1.16373 56.0963 10.184 56.0963 18.4181L56.0962 140.282Z" fill="#F7F7F7"/>
</svg>
